<svg width="115" height="59" viewBox="0 0 115 59" fill="none" xmlns="http://www.w3.org/2000/svg">
<path d="M68.7995 45.7041V58.1433C68.7995 58.6452 68.7995 58.6045 68.3286 58.6045H61.8025C61.1566 58.6045 61.2104 58.6995 61.2104 58.0348V35.6388C61.2238 35.4537 61.2238 35.2678 61.2104 35.0827C61.1824 34.7818 61.0494 34.5007 60.835 34.2896C60.6206 34.0784 60.3388 33.9508 60.0397 33.9296C59.7175 33.9055 59.3974 33.9992 59.138 34.1935C58.8786 34.3878 58.6971 34.6697 58.6269 34.9877C58.6135 35.1728 58.6135 35.3587 58.6269 35.5439V58.1433C58.6269 58.7131 58.7076 58.6588 58.1156 58.6588H51.5088C51.0782 58.6588 51.0782 58.6588 51.0782 58.2247V35.164C51.0222 34.8697 50.871 34.6023 50.6483 34.4037C50.4255 34.2051 50.1439 34.0864 49.8472 34.0663C49.5505 34.0461 49.2555 34.1256 49.0084 34.2923C48.7613 34.459 48.5759 34.7036 48.4812 34.9877C48.474 35.0689 48.474 35.1507 48.4812 35.2319C48.4812 35.3675 48.4812 35.5032 48.4812 35.6524V58.1433C48.4812 58.7266 48.4812 58.6588 47.9564 58.6588H41.2285C40.8249 58.6588 40.8249 58.6588 40.8249 58.2383C40.8249 49.9364 40.8249 41.6301 40.8249 33.3192C40.8028 32.8689 40.8994 32.4208 41.1051 32.0205C41.3107 31.6201 41.618 31.2819 41.9955 31.0403C42.3329 30.8182 42.7233 30.6917 43.1258 30.674H66.0007C66.2512 30.6471 66.5038 30.6471 66.7543 30.674C67.3094 30.7849 67.8105 31.0831 68.1749 31.5196C68.5394 31.956 68.7455 32.5047 68.7592 33.075V45.7041H68.7995Z" fill="black"/>
<path d="M86.669 22.942C84.9399 22.9199 83.2176 22.7199 81.5288 22.3451C78.9141 21.7672 76.513 20.4605 74.599 18.574C73.9666 17.9636 73.3611 17.3396 72.7421 16.7291L72.1905 16.2408C72.097 16.1697 71.9979 16.1062 71.8944 16.0509C71.8519 16.0177 71.803 15.9937 71.7508 15.9804C71.6987 15.9671 71.6443 15.9649 71.5913 15.9738C71.5382 15.9827 71.4875 16.0026 71.4425 16.0322C71.3974 16.0618 71.3588 16.1005 71.3293 16.1458C71.144 16.3487 70.9414 16.5349 70.7238 16.702C70.0076 17.3077 69.1144 17.6603 68.1807 17.7058C66.8697 17.7554 65.5642 17.5098 64.3592 16.9869C63.4711 16.6478 62.6369 16.2272 61.7892 15.8338C61.438 15.6524 61.0736 15.4982 60.6992 15.3726C60.0264 15.1556 59.7977 15.2912 59.6631 15.9831L59.542 16.5799C59.5107 16.7378 59.4295 16.8813 59.3107 16.9888C59.1919 17.0964 59.0417 17.1623 58.8826 17.1768C58.5653 17.2163 58.2433 17.1832 57.9404 17.0798C57.6375 16.9765 57.3617 16.8056 57.1334 16.5799C57.0427 16.5041 56.9614 16.4176 56.8912 16.3222C56.5848 15.9746 56.4155 15.5257 56.4155 15.0606C56.4155 14.5956 56.5848 14.1467 56.8912 13.7991C57.2086 13.3731 57.6372 13.0443 58.1291 12.8495C58.8311 12.5459 59.5756 12.3538 60.3359 12.2798C61.2386 12.1903 62.1499 12.2638 63.0271 12.4968H63.202C63.3119 12.5305 63.4282 12.538 63.5414 12.5186C63.6547 12.4991 63.7619 12.4534 63.8546 12.3849C63.9473 12.3165 64.023 12.2272 64.0755 12.1242C64.1281 12.0212 64.156 11.9073 64.1573 11.7914C64.1977 11.5308 64.1977 11.2654 64.1573 11.0047C64.1369 10.8466 64.0785 10.6959 63.987 10.5659C63.8955 10.4358 63.7738 10.3303 63.6326 10.2586C63.2459 10.0645 62.8335 9.92743 62.4081 9.85163C62.1718 9.83103 61.9338 9.85873 61.7084 9.93304C61.4942 9.97286 61.2829 10.0272 61.076 10.0958C60.8135 10.1835 60.5306 10.1876 60.2658 10.1075C60.0009 10.0275 59.767 9.86705 59.5958 9.64816L59.2056 9.18695C58.9312 8.91401 58.6238 8.67701 58.2906 8.48156C58.0789 8.34751 57.8806 8.19305 57.6985 8.02036C57.5657 7.89393 57.4675 7.73516 57.4133 7.55933C57.3591 7.38351 57.3508 7.19656 57.3891 7.01653C57.4183 6.85513 57.4985 6.70761 57.6178 6.59602C57.7883 6.43624 57.9681 6.28676 58.1561 6.14837C58.3328 6.02913 58.4819 5.87291 58.5934 5.69032C58.7048 5.50774 58.776 5.30308 58.8019 5.09029C58.8019 5.09029 58.8019 4.98176 58.8019 4.91394C58.811 4.68795 58.8843 4.46936 59.0131 4.28418C59.142 4.099 59.3208 3.95505 59.5285 3.86944L59.69 3.78803C60.2693 3.5431 60.7453 3.10161 61.0356 2.54005C61.2106 2.20092 61.3854 1.86179 61.5738 1.52267C61.7622 1.18354 62.0179 1.00719 62.3812 1.52267C62.5561 1.73971 62.731 1.97033 62.9194 2.1738C63.1078 2.37728 63.3096 2.45867 63.5652 2.1738C63.8209 1.88894 63.9286 1.76684 64.1035 1.56336C64.2135 1.42876 64.3454 1.31407 64.4937 1.22423C64.7225 1.08858 64.8302 1.0886 64.9782 1.30564C65.1045 1.48935 65.2212 1.67951 65.328 1.87537C65.503 2.1738 65.6644 2.4858 65.8259 2.78423C65.8483 2.85719 65.8928 2.92124 65.9531 2.96745C66.0134 3.01367 66.0866 3.03973 66.1623 3.04197C67.9926 3.21528 69.7758 3.72564 71.4235 4.5477C73.8816 5.73134 76.2013 7.18725 78.3398 8.88852C80.0621 10.245 81.6768 11.6015 83.2915 13.0394C84.6298 14.2897 86.0702 15.4242 87.5974 16.4307C89.0442 17.3612 90.5872 18.1299 92.1993 18.7232C93.1268 19.035 94.0899 19.2264 95.0654 19.2929C95.9971 19.3623 96.9329 19.2353 97.8132 18.92C98.6936 18.6047 99.4991 18.1081 100.179 17.4616C101.512 16.2708 102.569 14.7979 103.273 13.148C103.758 12.0492 104.175 10.9233 104.619 9.82451C105.222 8.33713 105.98 6.91841 106.88 5.59219C108.086 3.85342 109.687 2.43029 111.549 1.44128C112.017 1.17392 112.534 1.00761 113.069 0.952934C113.342 0.931868 113.615 0.981987 113.862 1.09842C114.11 1.21486 114.323 1.39369 114.482 1.61763C114.627 1.80914 114.732 2.02767 114.792 2.26053C114.852 2.49339 114.866 2.73594 114.832 2.97414C114.759 3.53065 114.562 4.06342 114.257 4.53304C113.952 5.00266 113.546 5.3971 113.069 5.68716C112.289 6.1755 111.455 6.56888 110.634 6.97584C108.799 7.86154 107.267 9.27829 106.234 11.0454C105.472 12.3919 104.789 13.7825 104.188 15.2099C103.919 15.8203 103.65 16.4171 103.408 17.0411C102.973 18.0778 102.316 19.0044 101.484 19.7542C100.899 20.3126 100.269 20.8208 99.6 21.2735L99.3981 21.4227C99.3713 21.4492 99.3499 21.4808 99.3354 21.5158C99.3208 21.5507 99.3134 21.5882 99.3134 21.6261C99.3134 21.664 99.3208 21.7015 99.3354 21.7365C99.3499 21.7714 99.3713 21.8031 99.3981 21.8296C99.4859 21.9807 99.5897 22.1217 99.7077 22.2501C100.146 22.732 100.48 23.3001 100.69 23.9186C101.17 25.189 101.513 26.5079 101.713 27.8525C101.847 28.7478 101.941 29.6567 101.995 30.5655C102.049 31.4744 101.995 32.0034 101.995 32.7224C101.995 33.0751 101.995 33.4413 101.995 33.794C102.009 34.1801 102.115 34.5572 102.305 34.8928L102.91 35.9509C103.159 36.3358 103.49 36.6601 103.879 36.9004C104.152 37.0562 104.413 37.2331 104.659 37.4295C104.989 37.7199 105.192 38.1291 105.225 38.5689C105.225 38.8674 105.225 39.1522 105.225 39.4507C105.273 40.1211 105.486 40.7689 105.844 41.3362C106.018 41.6346 106.207 41.9059 106.368 42.2044C106.474 42.3777 106.53 42.5773 106.53 42.7809C106.53 42.9845 106.474 43.1841 106.368 43.3574C106.12 43.8948 106.022 44.4907 106.086 45.0802C106.086 45.5007 106.086 45.9077 106.086 46.3282C106.086 46.7487 105.951 46.8844 105.547 46.8844C104.997 46.9 104.452 46.7595 103.977 46.479C103.501 46.1984 103.113 45.789 102.856 45.2972C102.479 44.5856 102.241 43.8072 102.157 43.0047C102.074 42.3207 102.038 41.6318 102.049 40.9428C102.049 40.658 102.049 40.3731 102.049 40.0882C102.069 39.9161 102.042 39.7416 101.971 39.5838C101.9 39.426 101.787 39.2908 101.645 39.1929C101.04 38.7453 100.475 38.2705 99.8826 37.8364C99.3354 37.4022 98.8307 36.9162 98.3755 36.385C97.3988 35.3069 96.4994 34.16 95.6844 32.953C94.8303 31.6833 94.1258 30.3175 93.5853 28.8834C93.2528 27.9372 92.8244 27.0281 92.307 26.1704C91.7679 25.3008 91.0441 24.5626 90.1878 24.009C89.3315 23.4554 88.3641 23.1002 87.3552 22.9691C87.2165 22.9556 87.0768 22.9556 86.9381 22.9691L86.669 22.942Z" fill="black"/>
<path d="M89.1853 45.6905V58.1432C89.1853 58.6451 89.1853 58.6044 88.7278 58.6044H81.9999C81.5693 58.6044 81.5693 58.6044 81.5693 58.1703V51.944C81.5693 51.4828 81.5693 51.537 81.1656 51.537H79.3491C78.9589 51.537 78.9588 51.537 78.9588 51.9168V58.1432C78.9588 58.6723 79.0262 58.6315 78.4879 58.6315H71.76C71.2891 58.6315 71.3159 58.6316 71.3159 58.1839V33.292C71.2919 32.8281 71.3945 32.3665 71.6128 31.9575C71.8311 31.5484 72.1567 31.2077 72.5539 30.9723C72.8589 30.7716 73.2125 30.659 73.5765 30.6468H86.4403C86.9687 30.6213 87.493 30.7534 87.9474 31.0266C88.2689 31.2313 88.5392 31.5078 88.7376 31.8348C88.9359 32.1618 89.0569 32.5304 89.0911 32.9121C89.0911 33.0749 89.0911 33.2513 89.0911 33.4276L89.1853 45.6905ZM81.5827 41.5395V35.6523C81.5687 35.5397 81.5687 35.4258 81.5827 35.3132C81.6053 35.0548 81.5474 34.7958 81.4172 34.5722C81.287 34.3485 81.0909 34.1713 80.8562 34.0652C80.622 33.9565 80.3619 33.9179 80.1067 33.954C79.8514 33.9901 79.6118 34.0993 79.4164 34.2687C79.2584 34.4075 79.1349 34.5815 79.0554 34.777C78.976 34.9725 78.9429 35.1839 78.9588 35.3946V47.7795C78.9588 48.1457 78.9589 48.1458 79.3222 48.1593H81.1656C81.5962 48.1593 81.5693 48.1593 81.5693 47.7524L81.5827 41.5395Z" fill="black"/>
<path d="M38.1877 43.7509V56.1629C38.1998 56.4994 38.1496 56.8352 38.0397 57.1532C37.8728 57.5974 37.5707 57.9771 37.1767 58.2378C36.7828 58.4985 36.3172 58.6269 35.8464 58.6046H23.0499C22.7995 58.6317 22.5469 58.6317 22.2964 58.6046C21.7792 58.5215 21.3079 58.2567 20.9656 57.857C20.6233 57.4574 20.4322 56.9486 20.426 56.4207C20.426 54.6572 20.426 52.8937 20.426 51.1438V31.1896C20.426 30.5249 20.4261 30.6334 20.9912 30.6334H27.6115C28.0824 30.6334 28.0555 30.6334 28.0555 31.0811C28.0555 38.5509 28.0555 46.0253 28.0555 53.5041C28.0555 53.6669 28.0555 53.8297 28.0555 53.9925C28.0728 54.3404 28.2222 54.6682 28.4727 54.9081C28.7232 55.148 29.0556 55.2816 29.4011 55.2812C29.7444 55.2818 30.075 55.1501 30.3251 54.9131C30.5753 54.676 30.7261 54.3516 30.7467 54.0061C30.7534 53.8841 30.7534 53.7618 30.7467 53.6398V31.0132C30.7467 30.5656 30.6659 30.5791 31.1907 30.5791H37.9186C38.2819 30.5791 38.2954 30.5792 38.2954 30.9454L38.1877 43.7509Z" fill="black"/>
<path d="M0 44.5784V31.0133C0 30.4979 4.92847e-05 30.5386 0.471003 30.5386H15.084C15.3868 30.5246 15.69 30.552 15.9855 30.62C16.4954 30.759 16.9462 31.0622 17.2693 31.4834C17.5924 31.9046 17.77 32.4207 17.7752 32.9531V45.3109C17.7752 46.5589 17.7752 47.8069 17.7752 49.0549C17.7612 49.6979 17.4988 50.31 17.0439 50.761C16.589 51.2119 15.9776 51.4661 15.3397 51.4695H7.77751C7.66986 51.4695 7.61604 51.4695 7.61604 51.6187C7.61604 51.7679 7.61604 51.8222 7.61604 51.9307V58.1164C7.61604 58.5369 7.61605 58.5369 7.19892 58.5369H0.471003C0.0538726 58.5369 0.0538759 58.5369 0.0538759 58.1164L0 44.5784ZM7.60257 40.9701V47.617C7.59586 47.7209 7.59586 47.8251 7.60257 47.929C7.60257 48.0375 7.60257 48.0918 7.76404 48.0918C8.21155 48.1348 8.66211 48.1348 9.10962 48.0918C9.33484 48.0656 9.54846 47.977 9.72665 47.8357C9.90483 47.6944 10.0406 47.506 10.1188 47.2915C10.1745 47.0885 10.1972 46.8778 10.1861 46.6675V35.3135C10.1861 34.9537 10.0443 34.6087 9.79194 34.3543C9.53959 34.0999 9.19736 33.957 8.84049 33.957C8.57137 33.957 8.30227 33.957 8.0197 33.957C7.73713 33.957 7.58911 33.957 7.58911 34.3775L7.60257 40.9701Z" fill="black"/>
</svg>
