<svg width="106" height="71" viewBox="0 0 106 71" fill="none" xmlns="http://www.w3.org/2000/svg">
<path d="M47.9492 9.33488L63.3011 0L90.7822 46.1292H86.2571C81.0148 46.1292 75.7834 46.1292 70.5521 46.1292C70.3131 46.1608 70.0705 46.1126 69.8612 45.992C69.652 45.8715 69.4876 45.6852 69.3933 45.4617C67.0756 41.523 64.7432 37.588 62.3961 33.6568L52.8053 17.5238L47.9492 9.33488Z" fill="black"/>
<path d="M62.4623 46.0401C61.1821 46.0401 59.9019 46.1068 58.6216 46.1068H42.2102C42.0119 46.1304 41.8112 46.0918 41.6354 45.9962C41.4597 45.9007 41.3174 45.7528 41.228 45.5728C37.3725 39.0751 33.506 32.5848 29.6285 26.1019C29.5623 25.9907 29.5182 25.8794 29.4409 25.7236L44.8259 16.411C45.9296 18.169 46.9008 19.8935 47.9161 21.6181C52.7428 29.6957 57.5621 37.7807 62.374 45.8732C62.4044 45.9304 62.4302 45.9899 62.4513 46.0512L62.4623 46.0401Z" fill="black"/>
<path d="M62.4513 46.0514H66.7997V70.2842H62.5396L62.4734 69.383C60.5407 70.631 58.2235 71.127 55.9546 70.7785C53.6856 70.4299 51.6201 69.2606 50.1439 67.4889C48.6677 65.7172 47.8817 63.4644 47.9328 61.1512C47.9838 58.838 48.8685 56.6226 50.4214 54.9189C51.9128 53.2597 53.9325 52.178 56.1312 51.8611C58.33 51.5441 60.5694 52.0118 62.4623 53.1832V45.9957L62.4513 46.0514ZM62.4513 61.361C62.7603 58.5683 60.0894 56.0761 57.4076 56.1094C56.0318 56.1021 54.7096 56.6459 53.7316 57.6214C52.7537 58.5969 52.2001 59.9241 52.1928 61.311C52.1855 62.6979 52.725 64.0309 53.6926 65.0168C54.6602 66.0027 55.9767 66.5607 57.3524 66.5681C60.4978 66.5681 62.8045 63.7976 62.5065 61.361H62.4513Z" fill="black"/>
<path d="M35.0585 46.1292H39.3738V70.2841H35.1027V69.4608C29.783 72.0198 25.1697 71.2298 21.925 66.1229C20.8313 64.3806 20.3569 62.3155 20.5795 60.2659C20.8021 58.2162 21.7084 56.3035 23.15 54.841C24.6598 53.2337 26.6736 52.2009 28.8513 51.9171C31.0289 51.6333 33.2371 52.1159 35.1027 53.2833L35.0585 46.1292ZM35.0585 61.3609C35.0836 60.6956 34.978 60.032 34.7477 59.408C34.5175 58.784 34.1672 58.2121 33.7169 57.7251C33.2666 57.2381 32.7253 56.8456 32.1241 56.5702C31.5228 56.2948 30.8735 56.142 30.2135 56.1205C29.5318 56.0845 28.8497 56.1849 28.2066 56.4158C27.5635 56.6467 26.9721 57.0035 26.4664 57.4658C25.9607 57.928 25.5506 58.4866 25.2599 59.1092C24.9692 59.7319 24.8035 60.4064 24.7724 61.0939C24.7185 62.4855 25.2128 63.842 26.1474 64.8676C27.082 65.8931 28.381 66.5044 29.7609 66.568C30.4549 66.6 31.148 66.4884 31.7975 66.24C32.447 65.9917 33.0393 65.6119 33.5376 65.1241C34.036 64.6362 34.43 64.0507 34.6954 63.4035C34.9608 62.7563 35.0918 62.0611 35.0806 61.3609H35.0585Z" fill="black"/>
<path d="M14.4532 53.2613L14.5304 52.3267H18.8126V70.2733H14.5415L14.4642 69.3832C13.3537 70.0872 12.1097 70.5499 10.8117 70.7415C9.51372 70.9331 8.1903 70.8494 6.92622 70.4958C5.00081 69.9851 3.29488 68.8516 2.07016 67.2692C1.05768 65.9933 0.387823 64.4762 0.125021 62.8639C-0.137782 61.2516 0.0152941 59.5982 0.569542 58.0628C1.12379 56.5273 2.06053 55.1615 3.28975 54.0965C4.51897 53.0315 5.99935 52.3033 7.58845 51.9818C9.9549 51.5238 12.4056 51.9806 14.4532 53.2613ZM14.4532 61.3389C14.7512 58.7131 12.301 56.0317 9.1887 56.0985C7.84374 56.1869 6.58542 56.7984 5.67915 57.8041C4.77287 58.8099 4.28951 60.1311 4.33103 61.4892C4.37255 62.8474 4.93572 64.1361 5.90171 65.0837C6.8677 66.0313 8.161 66.5635 9.50881 66.5682C12.3121 66.4792 14.7401 63.9647 14.5083 61.3389H14.4532Z" fill="black"/>
<path d="M82.8359 53.2499L82.9242 52.3265H87.1733V70.2619H82.9242L82.8249 69.3941C80.9099 70.5731 78.6411 71.0264 76.4248 70.673C74.2085 70.3195 72.1893 69.1823 70.7288 67.465C69.2683 65.7477 68.4618 63.5624 68.4537 61.3003C68.4456 59.0382 69.2364 56.8471 70.6846 55.1192C72.161 53.4052 74.1936 52.2761 76.4196 51.9337C78.6455 51.5913 80.9197 52.0578 82.8359 53.2499ZM82.8359 61.3609C83.1449 58.724 80.6286 56.076 77.726 56.0983C76.3902 56.1604 75.1296 56.739 74.206 57.7139C73.2825 58.6889 72.7672 59.9851 72.7672 61.3331C72.7672 62.6812 73.2825 63.9774 74.206 64.9523C75.1296 65.9273 76.3902 66.5059 77.726 66.568C78.408 66.5816 79.0857 66.4563 79.7185 66.1994C80.3512 65.9425 80.926 65.5595 81.4083 65.0732C81.8907 64.587 82.2707 64.0075 82.5254 63.3696C82.7802 62.7317 82.9046 62.0485 82.8911 61.3609H82.8359Z" fill="black"/>
<path d="M89.1597 64.354H93.9496C93.9483 64.7914 94.0658 65.2207 94.2896 65.5954C94.5134 65.9701 94.8347 66.2757 95.2188 66.4791C95.9245 66.803 96.6873 66.9817 97.4624 67.0046C98.2375 67.0275 99.0094 66.8943 99.7328 66.6126C100.119 66.4315 100.445 66.1417 100.671 65.7782C100.765 65.6696 100.833 65.5407 100.869 65.4013C100.905 65.262 100.909 65.116 100.88 64.9749C100.852 64.8338 100.791 64.7013 100.703 64.5878C100.615 64.4743 100.502 64.3829 100.373 64.3206C99.5738 63.9161 98.7387 63.5883 97.8786 63.3415C96.2673 62.8742 94.5676 62.585 93.0336 62.0287C92.097 61.7783 91.2702 61.2198 90.6843 60.4418C90.0985 59.6637 89.7872 58.7107 89.7999 57.734C89.7155 56.6187 89.9813 55.5049 90.5597 54.5504C91.1381 53.5959 91.9997 52.849 93.0225 52.4156C94.4179 51.8145 95.9197 51.5046 97.4371 51.5046C98.9546 51.5046 100.456 51.8145 101.852 52.4156C102.86 52.7962 103.714 53.5027 104.281 54.4247C104.848 55.3467 105.096 56.4322 104.986 57.5114C103.562 57.5114 102.139 57.5114 100.704 57.5114C100.583 57.5114 100.373 57.2666 100.34 57.1109C100.25 56.5884 99.9789 56.1153 99.5743 55.7767C99.1696 55.438 98.6583 55.2562 98.1325 55.2639C97.2649 55.2153 96.3946 55.2675 95.5389 55.4197C95.2123 55.4656 94.9134 55.6299 94.6981 55.8817C94.4828 56.1336 94.3658 56.4558 94.369 56.7882C94.37 57.0949 94.4831 57.3905 94.6867 57.6183C94.8903 57.8462 95.1702 57.9904 95.4727 58.0232C96.9847 58.4905 98.5298 58.8577 100.064 59.2805C100.858 59.4724 101.639 59.714 102.404 60.0037C103.224 60.2459 103.956 60.7228 104.513 61.3765C105.069 62.0302 105.425 62.8327 105.538 63.6864C105.71 64.6746 105.604 65.6917 105.231 66.622C104.859 67.5523 104.235 68.3585 103.43 68.9492C101.95 69.9762 100.194 70.5235 98.3973 70.518C96.0712 70.7423 93.7327 70.2413 91.6981 69.0827C90.894 68.5955 90.2344 67.8998 89.7879 67.0681C89.3414 66.2364 89.1244 65.2991 89.1597 64.354Z" fill="black"/>
<path d="M34.2306 46.1181H13.8351C13.6583 46.1405 13.4791 46.1064 13.3226 46.0205C13.1662 45.9347 13.0404 45.8015 12.9632 45.6397C12.3231 44.527 11.6388 43.4144 10.9104 42.1571L26.3616 32.8223L34.2306 46.1181Z" fill="black"/>
<path d="M46.2717 70.2842H41.6033V51.8369H46.2717V70.2842Z" fill="black"/>
<path d="M46.3047 50.3572H41.5811C41.5811 49.0554 41.5811 47.7981 41.5811 46.5297C41.6172 46.4438 41.673 46.3677 41.744 46.3077C41.815 46.2477 41.8991 46.2056 41.9894 46.1848C43.2807 46.1848 44.5609 46.1848 45.8522 46.1848C45.9488 46.2092 46.0378 46.2577 46.1111 46.3257C46.1843 46.3937 46.2395 46.4792 46.2716 46.5742C46.3157 47.8204 46.3047 49.0443 46.3047 50.3572Z" fill="black"/>
<path d="M104.777 46.83C104.777 47.5677 104.486 48.2752 103.968 48.7969C103.451 49.3185 102.749 49.6116 102.017 49.6116C101.286 49.6116 100.584 49.3185 100.066 48.7969C99.549 48.2752 99.2583 47.5677 99.2583 46.83C99.2583 46.0923 99.549 45.3848 100.066 44.8632C100.584 44.3415 101.286 44.0485 102.017 44.0485C102.749 44.0485 103.451 44.3415 103.968 44.8632C104.486 45.3848 104.777 46.0923 104.777 46.83ZM102.006 44.4935C101.401 44.5105 100.825 44.7612 100.398 45.194C99.9707 45.6268 99.7247 46.2085 99.7108 46.8189C99.7108 47.2793 99.8464 47.7293 100.1 48.1119C100.354 48.4946 100.715 48.7926 101.137 48.9683C101.559 49.144 102.024 49.1894 102.472 49.0987C102.919 49.0081 103.33 48.7855 103.652 48.4592C103.975 48.1329 104.193 47.7175 104.281 47.2657C104.369 46.8139 104.322 46.346 104.145 45.9213C103.969 45.4966 103.672 45.1342 103.291 44.88C102.91 44.6258 102.463 44.4913 102.006 44.4935Z" fill="black"/>
<path d="M102.426 47.0082C102.582 46.9631 102.718 46.8659 102.813 46.7325C102.907 46.5991 102.953 46.4374 102.945 46.2739C102.945 45.929 102.779 45.5173 102.018 45.5173H101.179V48.1097H101.642V47.075H101.929L102.514 48.1097H103.033L102.426 47.0082ZM101.642 45.8956H101.973C102.426 45.8956 102.492 46.0625 102.492 46.2517C102.492 46.4408 102.315 46.6522 101.973 46.6522H101.642V45.8956Z" fill="black"/>
</svg>
