<svg width="96" height="57" viewBox="0 0 96 57" fill="none" xmlns="http://www.w3.org/2000/svg">
<path d="M70.4384 0.578369L73.9479 1.26348C79.6785 2.52547 85.2508 4.42229 90.5619 6.91885C92.018 7.59151 93.4242 8.41367 94.8553 9.14862C95.0456 9.2288 95.2007 9.37493 95.2922 9.56024C95.3836 9.74555 95.4052 9.95762 95.3532 10.1576C94.9485 13.4507 93.5705 16.5478 91.3957 19.0517C88.4683 22.4525 84.8824 25.2239 80.8548 27.1984C79.8841 27.7092 78.901 28.17 77.8929 28.6683C79.3739 29.4282 80.8299 30.1258 82.2486 30.923C86.3676 33.0827 89.9259 36.1751 92.6402 39.9541C94.1058 42.0844 95.0365 44.5372 95.3532 47.1043C95.4179 47.3311 95.398 47.5736 95.2973 47.7867C95.1965 47.9999 95.0218 48.1691 94.8056 48.2628C92.4535 49.3964 90.1637 50.642 87.7618 51.6759C82.7873 53.8412 77.5861 55.4415 72.2554 56.4469L70.6002 56.7209L69.9282 56.7957V52.8967C69.9282 48.4247 69.9282 43.9403 69.9282 39.4683C69.8399 36.9264 68.8771 34.493 67.2028 32.5798C67.1225 32.5079 67.0272 32.455 66.9239 32.4248C66.8205 32.3946 66.7117 32.388 66.6055 32.4053C63.8551 32.8662 61.1173 33.4766 58.3545 33.8254C55.5917 34.1742 52.6298 34.3361 49.7675 34.4732C46.0284 34.6534 42.2808 34.5075 38.5671 34.0372C35.3438 33.6261 32.158 32.9908 28.9596 32.4178C28.7772 32.358 28.58 32.361 28.3995 32.4265C28.219 32.492 28.0657 32.6161 27.964 32.7791C26.3173 34.9189 25.4404 37.5523 25.475 40.2531C25.475 45.7341 25.475 51.2026 25.475 56.7957C24.5043 56.6462 23.546 56.5216 22.6002 56.3348C15.6913 54.8991 8.99797 52.5709 2.68837 49.4088C1.91678 49.0351 1.20744 48.5618 0.448301 48.1632C0.298436 48.0953 0.176781 47.9775 0.104137 47.8298C0.0314922 47.6821 0.0123644 47.5137 0.0500547 47.3534C0.418678 44.0935 1.7438 41.016 3.85819 38.5092C6.08174 35.7983 8.77566 33.5111 11.8105 31.7576C13.6524 30.6614 15.544 29.6898 17.4605 28.6559C16.5644 28.2199 15.5813 27.7465 14.6231 27.2483C10.531 25.2592 6.89196 22.4479 3.93286 18.9894C1.79852 16.5066 0.447345 13.4462 0.0500547 10.195C-0.00384861 9.9755 0.0247245 9.74385 0.130266 9.54405C0.235808 9.34425 0.410989 9.19023 0.622548 9.11125C3.02441 7.94031 5.38892 6.68216 7.82812 5.62334C12.2368 3.72278 16.8222 2.26242 21.5175 1.26348C22.6624 1.0268 23.8198 0.81506 24.9648 0.590838H25.5621C25.5621 6.13409 25.5621 11.6649 25.5621 17.2081C25.5476 19.9672 26.4937 22.6452 28.2378 24.7818C28.3115 24.8962 28.4219 24.982 28.5509 25.025C28.6799 25.068 28.8197 25.0657 28.9472 25.0185C31.1126 24.5825 33.278 24.1092 35.4683 23.7728C39.0566 23.2247 42.6784 22.9251 46.3078 22.8759C50.5014 22.788 54.6953 23.0254 58.8522 23.586C61.4906 23.9597 64.104 24.5327 66.7299 24.9936C66.8285 25.0121 66.9299 25.0083 67.0268 24.9824C67.1237 24.9565 67.2136 24.9093 67.2899 24.8441C69.0135 22.8695 69.9911 20.3527 70.0527 17.7313C70.0527 13.6579 70.0527 9.57216 70.0527 5.4988C70.0527 3.86697 69.9905 2.22267 69.9531 0.590838L70.4384 0.578369ZM62.7227 28.6933C54.9695 23.4988 40.0107 23.7106 32.6931 28.6933C39.712 33.4517 54.3597 34.0247 62.7227 28.6434V28.6933Z" fill="black"/>
</svg>
