<svg width="117" height="66" viewBox="0 0 117 66" fill="none" xmlns="http://www.w3.org/2000/svg">
<mask id="mask0_3715_651" style="mask-type:luminance" maskUnits="userSpaceOnUse" x="0" y="0" width="117" height="66">
<path d="M116.766 0.948242H0V65.4494H116.766V0.948242Z" fill="white"/>
</mask>
<g mask="url(#mask0_3715_651)">
<path d="M0 65.086H2.63021V59.8587C2.53336 58.9138 2.69448 57.9603 3.09613 57.101C3.29483 56.8051 3.56083 56.5613 3.87194 56.39C4.18305 56.2186 4.53027 56.1248 4.88467 56.1162C7.09404 56.1162 7.09404 58.7374 7.09404 59.6465V65.086H9.70922V59.1314C9.82328 57.7556 9.46802 56.3818 8.70223 55.2373C8.28884 54.7712 7.78449 54.396 7.22072 54.1353C6.65695 53.8746 6.04588 53.734 5.42574 53.7222C4.86034 53.7219 4.30108 53.8403 3.78356 54.0699C3.26604 54.2994 2.80159 54.6351 2.41979 55.0555V54.101H0V65.1163" fill="#E21836"/>
<path d="M25.761 65.0858H27.3692L29.3982 57.9493L31.4422 65.0858H33.0654L37.0633 54.0704H34.343L32.4041 60.7978L30.6306 54.0704H28.4363L26.6477 60.7978L24.6638 54.0704H21.8833L25.761 65.0858Z" fill="#E21836"/>
<path fill-rule="evenodd" clip-rule="evenodd" d="M41.5574 65.0861H43.9621V63.7528C44.3957 64.3129 44.9566 64.7596 45.5976 65.055C46.2385 65.3503 46.9406 65.4858 47.6444 65.4498C49.1187 65.343 50.4982 64.6772 51.5052 63.5865C52.5122 62.4957 53.072 61.061 53.072 59.5709C53.072 58.0808 52.5122 56.646 51.5052 55.5553C50.4982 54.4645 49.1187 53.7988 47.6444 53.692C46.3734 53.691 45.1511 54.185 44.2327 55.0708V50.4041H41.5574V65.0861ZM44.0223 59.4345C44.0183 59.0015 44.0992 58.5719 44.2604 58.1705C44.4216 57.7691 44.6599 57.4036 44.9615 57.0953C45.2632 56.787 45.6223 56.5418 46.0182 56.3738C46.4141 56.2058 46.8391 56.1183 47.2687 56.1163C47.7042 56.1216 48.1341 56.2161 48.5324 56.394C48.9306 56.5718 49.2888 56.8293 49.5854 57.1509C49.8819 57.4726 50.1106 57.8516 50.2575 58.2649C50.4044 58.6783 50.4665 59.1174 50.44 59.5557C50.475 59.9949 50.4201 60.4367 50.2786 60.8535C50.1371 61.2704 49.912 61.6534 49.6174 61.9789C49.3228 62.3043 48.9649 62.5652 48.566 62.7452C48.1671 62.9253 47.7358 63.0207 47.2987 63.0255C46.8441 63.0226 46.3949 62.9256 45.9789 62.7405C45.563 62.5554 45.1891 62.2862 44.8806 61.9496C44.572 61.6129 44.3353 61.216 44.185 60.7834C44.0348 60.3508 43.9743 59.8917 44.0072 59.4345M65.2743 54.0708H62.8696V55.4647C62.435 54.9158 61.8842 54.4717 61.2575 54.165C60.6308 53.8583 59.944 53.6967 59.2474 53.692C58.5054 53.6994 57.7726 53.8572 57.0924 54.1561C56.4122 54.455 55.7986 54.8887 55.2882 55.4316C54.7777 55.9745 54.3808 56.6154 54.1211 57.3161C53.8615 58.0168 53.7443 58.763 53.7766 59.5103C53.6484 60.6259 53.8739 61.7538 54.4207 62.7323C54.9675 63.7107 55.8075 64.4897 56.8203 64.9573C57.8332 65.4249 58.9669 65.5573 60.059 65.3355C61.151 65.1137 62.1454 64.549 62.8996 63.7225V65.0861H65.3044L65.2743 54.0708ZM62.7944 59.5557C62.8275 59.9982 62.7697 60.4428 62.6246 60.8618C62.4796 61.2807 62.2504 61.665 61.9513 61.9906C61.6523 62.3162 61.2899 62.5762 60.8867 62.7543C60.4835 62.9323 60.0483 63.0247 59.6081 63.0255C58.7443 62.9939 57.9279 62.6194 57.3367 61.9837C56.7456 61.348 56.4275 60.5025 56.4519 59.6315C56.4296 59.1842 56.4966 58.7371 56.6489 58.3164C56.8011 57.8957 57.0356 57.51 57.3382 57.1823C57.6409 56.8545 58.0057 56.5913 58.4111 56.4082C58.8165 56.2251 59.2542 56.1259 59.6983 56.1163C60.1364 56.1152 60.57 56.2051 60.972 56.3806C61.3741 56.556 61.7359 56.8132 62.035 57.136C62.334 57.4587 62.5638 57.8402 62.71 58.2566C62.8561 58.6729 62.9156 59.1152 62.8846 59.5557" fill="#E21836"/>
<path d="M69.3022 50.4041H66.687V65.0861H69.3022V50.4041Z" fill="#E21836"/>
<path fill-rule="evenodd" clip-rule="evenodd" d="M81.6266 54.0706H79.2219V55.4645C78.7873 54.9156 78.2365 54.4715 77.6098 54.1648C76.9831 53.8581 76.2963 53.6965 75.5997 53.6918C74.1229 53.7777 72.7333 54.4248 71.711 55.5027C70.6887 56.5805 70.1096 58.0089 70.0906 59.5001C70.0715 60.9912 70.6138 62.4342 71.6083 63.5383C72.6027 64.6423 73.9753 65.3253 75.4494 65.4496C76.1672 65.4291 76.8739 65.2659 77.529 64.9695C78.1841 64.6731 78.7747 64.2493 79.267 63.7223V65.0859H81.6717L81.6266 54.0706ZM79.1467 59.5555C79.1774 59.995 79.1189 60.4362 78.9749 60.8521C78.8308 61.2681 78.6042 61.65 78.3088 61.9747C78.0135 62.2994 77.6555 62.5601 77.2569 62.7407C76.8584 62.9213 76.4274 63.0181 75.9905 63.0253C75.555 63.0214 75.1247 62.9301 74.7247 62.7566C74.3247 62.5832 73.963 62.3311 73.6607 62.0151C73.3585 61.6991 73.1217 61.3255 72.9643 60.9162C72.8069 60.5069 72.732 60.0701 72.744 59.6313C72.7218 59.184 72.7888 58.7368 72.9411 58.3161C73.0933 57.8955 73.3277 57.5098 73.6304 57.1821C73.9331 56.8543 74.2979 56.5911 74.7033 56.408C75.1087 56.2249 75.5464 56.1256 75.9905 56.1161C76.4292 56.1151 76.8634 56.205 77.2662 56.3803C77.669 56.5556 78.0317 56.8125 78.3319 57.1351C78.6321 57.4576 78.8633 57.8388 79.0113 58.2552C79.1592 58.6716 79.2206 59.1142 79.1918 59.5555" fill="#E21836"/>
<path d="M83.0094 65.0861H85.6246V59.8587C85.5245 58.9122 85.6912 57.9564 86.1055 57.1011C86.3042 56.8051 86.5702 56.5613 86.8814 56.39C87.1925 56.2187 87.5397 56.1248 87.8941 56.1162C90.1034 56.1162 90.1035 58.7375 90.1035 59.6466V65.0861H92.7186V59.1314C92.8327 57.7557 92.4774 56.3819 91.7116 55.2374C91.2965 54.7694 90.7898 54.3931 90.2233 54.1324C89.6568 53.8716 89.0428 53.7319 88.4201 53.7222C87.855 53.7238 87.2963 53.843 86.779 54.0725C86.2618 54.3019 85.7971 54.6366 85.4142 55.0556V54.101H82.9944V65.1164M101.992 61.5254C101.764 61.9733 101.42 62.3506 100.997 62.6174C100.574 62.8841 100.086 63.0304 99.5872 63.0406C99.1421 63.0453 98.7008 62.9581 98.2904 62.7844C97.88 62.6107 97.5092 62.3541 97.2008 62.0305C96.8925 61.7068 96.6531 61.323 96.4974 60.9026C96.3418 60.4822 96.2731 60.0341 96.2957 59.586C96.2626 59.1455 96.3201 58.7029 96.4644 58.2857C96.6087 57.8686 96.8367 57.486 97.1344 57.1618C97.432 56.8376 97.7928 56.5787 98.1941 56.4014C98.5955 56.2241 99.0288 56.1322 99.467 56.1313C99.9981 56.1178 100.521 56.2631 100.971 56.5489C101.42 56.8347 101.775 57.2483 101.992 57.7374H104.998C104.629 56.5637 103.898 55.5395 102.911 54.8144C101.924 54.0894 100.733 53.7014 99.5121 53.7071C97.9655 53.7071 96.4822 54.3265 95.3886 55.429C94.2949 56.5315 93.6805 58.0268 93.6805 59.586C93.6805 61.1451 94.2949 62.6405 95.3886 63.743C96.4822 64.8455 97.9655 65.4649 99.5121 65.4649C100.724 65.4844 101.91 65.1105 102.895 64.3984C103.88 63.6863 104.612 62.6738 104.983 61.5103H101.977" fill="#E21836"/>
<path fill-rule="evenodd" clip-rule="evenodd" d="M116.571 60.7675C116.667 60.3295 116.717 59.8827 116.721 59.4342C116.725 57.9136 116.134 56.4527 115.076 55.3689C114.018 54.2852 112.578 53.6661 111.07 53.6462C110.304 53.6561 109.547 53.8185 108.843 54.1243C108.139 54.43 107.502 54.873 106.968 55.4278C106.435 55.9825 106.015 56.6382 105.734 57.3569C105.452 58.0757 105.315 58.8434 105.329 59.616C105.323 60.3825 105.468 61.1425 105.755 61.852C106.043 62.5615 106.468 63.2063 107.005 63.749C107.542 64.2916 108.18 64.7214 108.883 65.0133C109.586 65.3052 110.34 65.4535 111.1 65.4495C112.261 65.4329 113.389 65.056 114.331 64.37C115.272 63.6841 115.981 62.7225 116.36 61.616H113.61C113.366 62.066 113.001 62.4372 112.557 62.6866C112.113 62.936 111.608 63.0534 111.1 63.0252C110.424 63.0269 109.766 62.8079 109.224 62.4009C108.682 61.9939 108.286 61.4208 108.094 60.7675H116.571ZM108.004 58.6463C108.143 57.92 108.528 57.2648 109.092 56.7924C109.657 56.3199 110.366 56.0594 111.1 56.0553C111.827 56.0476 112.532 56.3059 113.085 56.7823C113.638 57.2587 114.001 57.9209 114.106 58.6463H108.094M21.7181 60.7675C21.8139 60.3295 21.8642 59.8827 21.8684 59.4342C21.8725 57.9136 21.2812 56.4527 20.2231 55.3689C19.165 54.2852 17.7254 53.6661 16.2172 53.6462C15.4508 53.6561 14.6938 53.8185 13.9899 54.1243C13.286 54.43 12.6489 54.873 12.1154 55.4278C11.5818 55.9825 11.1623 56.6382 10.8809 57.3569C10.5996 58.0757 10.4619 58.8434 10.4758 59.616C10.4698 60.3812 10.6145 61.14 10.9013 61.8485C11.1881 62.5569 11.6114 63.2011 12.1467 63.7435C12.682 64.286 13.3187 64.7161 14.02 65.0089C14.7213 65.3018 15.4732 65.4515 16.2322 65.4495C17.3961 65.436 18.5275 65.0605 19.4717 64.3743C20.4159 63.6882 21.127 62.7249 21.5077 61.616H18.7121C18.4686 62.066 18.1036 62.4372 17.6593 62.6866C17.2151 62.936 16.7099 63.0534 16.2022 63.0252C15.5264 63.0269 14.8682 62.8079 14.3263 62.4009C13.7844 61.9939 13.3879 61.4208 13.1962 60.7675H21.7181ZM13.1511 58.6463C13.2897 57.9225 13.6721 57.2693 14.2335 56.7971C14.795 56.325 15.5011 56.0629 16.2322 56.0553C16.9594 56.0476 17.6647 56.3059 18.2174 56.7823C18.7701 57.2587 19.1328 57.9209 19.2382 58.6463H13.2263M44.6685 28.5851L41.1816 34.6458L21.8082 33.5549L23.7471 30.1609L44.6685 28.5851ZM58.6612 9.17566L60.4197 15.9031L32.9453 14.0848L34.8841 10.6908L58.6612 9.17566ZM40.4602 0.948242H56.4518L57.6542 5.49378L38.4161 4.34223L40.4602 0.948242ZM39.0474 38.4641L36.2518 43.2975H16.2472L18.1861 39.9035L39.0474 38.4641ZM74.0517 25.4638L69.1971 33.9337H73.8112C75.9454 33.9337 79.8231 32.8579 80.9653 29.7821C82.0475 26.9336 80.0485 25.4638 78.6508 25.4638H74.0517ZM78.6658 17.3728H82.6787C84.0046 17.452 85.3246 17.1403 86.4776 16.4757C87.6307 15.8111 88.5667 14.8224 89.1716 13.6303C90.1185 11.2969 88.856 9.32718 87.1726 9.32718H83.2799L78.6658 17.3728ZM60.4497 15.9637L64.5228 8.79686L78.26 7.90291L78.7409 7.05442L66.0258 6.1453L69.0317 0.948242H92.5232C99.7826 0.948242 105.148 3.55433 103.044 11.2514C102.413 13.5697 99.467 19.4334 90.8249 21.8577C91.6929 21.9704 92.5296 22.2577 93.2855 22.7024C94.0413 23.1472 94.7009 23.7404 95.2251 24.4469C95.7494 25.1534 96.1275 25.9588 96.3372 26.8154C96.547 27.672 96.5839 28.5623 96.446 29.4336C95.0332 38.8126 82.9192 43.2823 76.2761 43.2823H48.5161L47.1484 37.858L61.7273 36.8125L62.2232 35.964L46.3969 34.9943L44.6986 28.5548L67.2432 27.2215L67.7241 26.373L27.2941 23.7971L29.2329 20.4183L72.7441 17.5546L73.24 16.7061L60.4798 15.8728" fill="#E21836"/>
</g>
</svg>
