<svg width="122" height="70" viewBox="0 0 122 70" fill="none" xmlns="http://www.w3.org/2000/svg">
<path d="M121.113 69.1587H0V0.484375H121.113V69.1587ZM49.5169 47.3106H49.0118C48.782 47.3233 48.5516 47.3233 48.3218 47.3106C48.1844 47.3027 48.0509 47.2613 47.9329 47.1899C47.8149 47.1185 47.7158 47.0193 47.6442 46.9007C47.5112 46.6575 47.4433 46.3835 47.447 46.1058V25.8848C47.4401 25.8146 47.4401 25.7439 47.447 25.6737C48.8415 25.5714 50.2416 25.5714 51.6361 25.6737V51.3722H56.7369C56.8372 51.361 56.9361 51.3402 57.0325 51.3101V38.554C57.0325 36.3928 57.0325 34.244 57.0325 32.0952C57.0325 29.9464 57.0325 27.8225 57.0325 25.6612H57.4761H59.1517C59.4597 25.6612 59.509 25.6613 59.509 25.3259C59.509 24.0838 59.509 22.8417 59.509 21.6742C59.5138 21.608 59.5138 21.5416 59.509 21.4754H59.1271H57.4268H57.1188C57.1188 21.3885 57.1188 21.3388 57.1188 21.2891C57.1188 20.8793 57.1188 20.4694 57.1188 20.0471C57.1316 19.816 57.1688 19.587 57.2297 19.3639C57.2654 19.1838 57.3601 19.021 57.4987 18.9016C57.6372 18.7822 57.8115 18.7132 57.9935 18.7056H58.7698H59.509C59.509 18.5566 59.509 18.4448 59.509 18.333V14.8303C59.509 14.5943 59.509 14.5571 59.238 14.5447H59.0162C58.2153 14.5447 57.4145 14.5447 56.6136 14.5447C55.7423 14.5344 54.8743 14.6558 54.0386 14.9049C53.3605 15.1167 52.7739 15.5547 52.3753 16.147C52.113 16.5431 51.9406 16.9926 51.8702 17.4635C51.7491 18.1118 51.6709 18.7674 51.6361 19.426C51.6361 19.9974 51.6361 20.5812 51.6361 21.1649C51.6427 21.2559 51.6427 21.3472 51.6361 21.4382C51.1309 21.5003 47.6934 21.4382 47.447 21.4382V14.6937C47.0007 14.6444 46.5504 14.6444 46.1041 14.6937H44.7242C44.2929 14.6937 43.8494 14.6937 43.4058 14.6937C42.9464 14.663 42.4854 14.663 42.0259 14.6937V19.2024C42.0259 19.9477 42.0259 20.6929 42.0259 21.4258C41.5577 21.55 41.1142 21.3637 40.6583 21.5003V21.8605C40.6583 23.028 40.6583 24.208 40.6583 25.388C40.6583 25.6488 40.6583 25.6737 40.9417 25.6737H41.2005H42.0505V26.245C42.0505 33.1841 42.0505 40.1273 42.0505 47.0746C42.0436 47.7963 42.1561 48.5141 42.3832 49.1986C42.4881 49.5782 42.6735 49.9303 42.9267 50.2305C43.1798 50.5308 43.4947 50.772 43.8494 50.9375C44.5221 51.2381 45.2455 51.4068 45.9809 51.4343C47.0404 51.4343 48.1 51.4343 49.1596 51.4343C49.48 51.4343 49.5046 51.4343 49.5046 51.0989V47.5963C49.5539 47.559 49.5416 47.4597 49.5416 47.3106H49.5169ZM89.3991 21.4879H88.9185H84.1874C84.0395 21.4879 83.9779 21.5748 83.9779 21.7363C83.9902 21.9473 83.9902 22.1588 83.9779 22.3697V60.9983H84.3106H88.9432H89.3005V59.2594C89.3005 57.6074 89.3005 55.9679 89.3005 54.2911C89.3005 53.049 89.3005 51.8069 89.3005 50.6394C89.2921 50.507 89.2921 50.3743 89.3005 50.2419L89.6085 50.5152C89.794 50.6868 89.9917 50.8445 90.1999 50.9872C90.6235 51.2213 91.0747 51.4008 91.5429 51.5212C92.3626 51.7174 93.2223 51.6568 94.007 51.3474C94.293 51.2387 94.5594 51.0834 94.7955 50.8878C95.3915 50.3491 95.7979 49.6299 95.9537 48.8384C96.1649 48.0265 96.2848 47.1932 96.311 46.3542C96.311 45.4102 96.3849 44.4663 96.3849 43.5347C96.3849 38.4174 96.3849 33.3083 96.3849 28.2075C96.3849 27.3877 96.3849 26.568 96.274 25.7233C96.2265 24.8962 96.0606 24.0804 95.7812 23.3013C95.6182 22.8519 95.3543 22.4465 95.0102 22.1168C94.6661 21.7872 94.2511 21.5422 93.7975 21.4009C93.3714 21.2867 92.9325 21.2283 92.4915 21.227C92.1143 21.2026 91.7355 21.2403 91.3703 21.3388C90.7085 21.5555 90.0996 21.9111 89.5839 22.3822L89.3498 22.5436L89.3991 21.4879ZM68.996 36.3928V45.2985C68.996 45.994 68.996 46.6772 68.996 47.3603C69.0227 48.0818 69.1771 48.7927 69.4518 49.4594C69.6989 50.1232 70.1943 50.6628 70.8317 50.9623C71.3013 51.169 71.7935 51.319 72.2979 51.4095C73.221 51.5728 74.1578 51.6435 75.0947 51.6206C76.3398 51.6611 77.5843 51.5231 78.7909 51.2107C79.2392 51.0903 79.6584 50.879 80.023 50.5897C80.5254 50.151 80.8787 49.5646 81.0333 48.9129C81.2564 48.0705 81.3642 47.2012 81.3536 46.3294C81.3536 39.7712 81.3536 33.2131 81.3536 26.6549C81.4001 25.5604 81.2326 24.4673 80.8608 23.4379C80.6812 22.9853 80.3884 22.5873 80.0107 22.2828C79.2259 21.6824 78.2728 21.3476 77.2878 21.3264C76.2528 21.2519 75.2056 21.2643 74.1706 21.2643C73.2234 21.2298 72.2773 21.3601 71.3739 21.6493C70.7408 21.8308 70.1831 22.2143 69.7845 22.7424C69.4153 23.2369 69.1778 23.8184 69.0945 24.4316C68.9937 25.1645 68.9361 25.9027 68.9221 26.6425C69.0083 29.9091 69.0206 33.1634 69.0206 36.4052L68.996 36.3928ZM61.0614 8.98017C61.0614 9.26585 61.0614 9.52668 61.0614 9.7751V51.0369C61.0614 51.1611 61.0614 51.2729 61.0614 51.3971H66.3593C66.4456 51.1114 66.4332 9.26585 66.3593 8.98017H61.0614ZM29.6436 51.4095V26.0711C29.6436 25.9345 29.6436 25.8103 29.6436 25.6612H29.9023H31.6026C31.9969 25.6612 32.0215 25.6612 32.0092 25.2265C31.9969 24.7918 32.0092 24.3571 32.0092 23.9844V21.7611C32.0142 21.6825 32.0142 21.6037 32.0092 21.5251H31.6272H30.0256H29.6806C29.6776 21.4755 29.6776 21.4257 29.6806 21.3761C29.6806 20.8544 29.6806 20.3327 29.6806 19.8111C29.6902 19.667 29.7192 19.5249 29.7668 19.3888C29.9146 19.0285 30.1118 18.7553 30.5553 18.7677H31.4301H32.0338C32.0954 17.389 32.0338 16.0227 32.0338 14.6316H31.6519C30.9003 14.6316 30.1364 14.6316 29.3849 14.6316C28.4568 14.6207 27.5318 14.7419 26.6374 14.9918C25.9469 15.192 25.349 15.632 24.9494 16.2339C24.5317 16.9225 24.3061 17.7121 24.2964 18.5193C24.2964 19.2149 24.2964 19.898 24.2225 20.5936C24.2225 20.9041 24.2225 21.2146 24.2225 21.55H23.0644C22.8426 21.55 22.8056 21.55 22.7933 21.8108V24.7545C22.7933 24.9284 22.7933 25.0899 22.7933 25.2638C22.7933 25.4377 22.8549 25.624 23.1383 25.6116H24.1979C24.1979 25.773 24.1979 25.9097 24.1979 26.0463C24.1979 26.717 24.1979 27.3753 24.1979 28.046V50.9375C24.1979 51.0865 24.1979 51.2232 24.1979 51.3846L29.6436 51.4095ZM33.5862 21.4506V21.5127C33.5862 21.5127 33.5862 21.5997 33.5862 21.6369C33.5862 31.499 33.5862 41.3569 33.5862 51.2107C33.5862 51.2107 33.5862 51.2977 33.5862 51.3349H38.6377C38.7175 51.3215 38.7958 51.3007 38.8718 51.2729V21.5003C38.6993 21.4382 33.8696 21.4134 33.6355 21.463L33.5862 21.4506ZM38.8965 14.6937C38.5496 14.6373 38.1961 14.6373 37.8492 14.6937H34.6335C34.2805 14.6751 33.9269 14.6751 33.5739 14.6937C33.5739 14.7931 33.5739 14.8428 33.5739 14.8924V18.7429C33.5739 19.0037 33.5739 19.0286 33.8696 19.0286H38.6624H38.9211L38.8965 14.6937ZM56.1454 56.9243H56.2317C56.2595 57.0008 56.2802 57.0798 56.2933 57.1603C56.4042 57.5702 56.5028 57.98 56.6136 58.4024C56.6182 58.4558 56.6334 58.5078 56.6584 58.5552C56.6834 58.6025 56.7177 58.6443 56.7591 58.6779C56.8006 58.7116 56.8484 58.7364 56.8996 58.751C56.9508 58.7655 57.0044 58.7695 57.0572 58.7626C57.3036 58.7626 57.3898 58.688 57.4638 58.4148C57.6609 57.595 57.8457 56.7628 58.0428 55.9306C58.0484 55.8811 58.0484 55.8311 58.0428 55.7816C58.0335 55.7327 58.0073 55.6887 57.9689 55.6574C57.9108 55.6142 57.8428 55.5865 57.7713 55.5767C57.6998 55.5669 57.6269 55.5754 57.5595 55.6014C57.4921 55.6273 57.4322 55.6699 57.3853 55.7253C57.3384 55.7807 57.3061 55.847 57.2913 55.9182L57.0449 57.0485C57.0238 57.1378 56.995 57.2251 56.9586 57.3093C56.9233 57.2332 56.8945 57.1543 56.8724 57.0733C56.7738 56.6759 56.6629 56.2784 56.5767 55.8312C56.5667 55.7591 56.5336 55.6921 56.4825 55.6406C56.4313 55.589 56.3649 55.5557 56.2933 55.5456C56.0469 55.4835 55.8744 55.5456 55.8005 55.8064C55.7265 56.0673 55.591 56.6635 55.4802 57.0485C55.4802 57.1106 55.4802 57.1727 55.3693 57.2969C55.3293 57.1874 55.2964 57.0753 55.2707 56.9615C55.1844 56.5641 55.1105 56.179 55.0243 55.7195C55.0243 55.5828 54.9503 55.4835 54.8025 55.4586C54.7173 55.4285 54.6263 55.4184 54.5366 55.4292C54.4469 55.4399 54.3609 55.4712 54.285 55.5207C54.285 55.5207 54.285 55.6077 54.285 55.6574C54.285 55.7071 54.285 55.8064 54.285 55.8809L54.9627 58.3651C54.9824 58.4425 55.0309 58.5092 55.0982 58.5514C55.1576 58.6 55.2284 58.6322 55.3038 58.6451C55.3793 58.6579 55.4567 58.6508 55.5286 58.6246C55.6005 58.5983 55.6645 58.5538 55.7143 58.4953C55.7641 58.4367 55.798 58.3662 55.8128 58.2906C55.8128 58.0422 55.899 57.7937 55.9606 57.5453C56.0222 57.2969 56.1208 57.123 56.1701 56.887L56.1454 56.9243ZM79.2221 58.6756C79.2221 58.5266 79.2221 58.4023 79.2221 58.2781C79.2221 58.1539 79.2221 57.8559 79.2221 57.6447C79.2221 57.4336 79.2221 57.446 79.37 57.446C79.4571 57.4579 79.5409 57.4875 79.6164 57.5329C79.6164 57.5329 79.6164 57.6199 79.6903 57.6695C79.7889 57.918 79.8628 58.1664 79.9737 58.4148C80.012 58.52 80.0863 58.6081 80.1832 58.6632C80.2895 58.7123 80.405 58.7377 80.522 58.7377C80.6389 58.7377 80.7545 58.7123 80.8608 58.6632C80.8694 58.6014 80.8694 58.5387 80.8608 58.4769C80.7622 58.2533 80.6637 58.0422 80.5528 57.8186C80.484 57.7017 80.4303 57.5765 80.3926 57.446C80.3926 57.2721 80.5651 57.2224 80.6637 57.1106C80.7578 56.9987 80.8227 56.8649 80.8526 56.7213C80.8825 56.5777 80.8764 56.4288 80.8348 56.2882C80.7932 56.1476 80.7174 56.0197 80.6144 55.916C80.5114 55.8124 80.3843 55.7363 80.2448 55.6946C79.7895 55.6108 79.3276 55.5692 78.8648 55.5704C78.5199 55.5704 78.4952 55.5704 78.4829 55.9555V58.4396C78.4829 58.5266 78.4829 58.6259 78.4829 58.7501L79.2221 58.6756ZM41.6686 57.1478C41.6686 56.8622 41.6686 56.5765 41.6686 56.2909C41.672 56.1527 41.6305 56.0173 41.5504 55.9052C41.4703 55.793 41.3561 55.7104 41.2251 55.6698C40.9177 55.525 40.5727 55.4815 40.2394 55.5456C39.5494 55.6822 39.3523 55.8561 39.3523 56.5392V57.682C39.3397 57.8266 39.3397 57.972 39.3523 58.1167C39.3603 58.2007 39.3894 58.2813 39.4368 58.3508C39.4842 58.4203 39.5484 58.4765 39.6234 58.5141C39.8214 58.6282 40.04 58.7012 40.2664 58.7289C40.4928 58.7567 40.7224 58.7385 40.9417 58.6756C41.4715 58.5141 41.607 58.4272 41.6316 57.8434L41.6686 57.1478ZM31.6889 57.1478V58.0049C31.6851 58.1268 31.7185 58.247 31.7846 58.3491C31.8507 58.4513 31.9463 58.5306 32.0585 58.5763C32.4713 58.7698 32.94 58.8052 33.3768 58.6756C33.5348 58.6473 33.6785 58.5654 33.7838 58.4433C33.8892 58.3213 33.9499 58.1666 33.9559 58.0049C33.9559 57.4335 33.9559 56.8622 33.9559 56.2909C33.9571 56.1679 33.9228 56.0472 33.8572 55.9435C33.7916 55.8399 33.6974 55.7577 33.5862 55.7071C33.1444 55.5006 32.6397 55.4783 32.1817 55.6449C32.0278 55.6876 31.8934 55.7827 31.8013 55.9141C31.7092 56.0454 31.6651 56.2049 31.6765 56.3654L31.6889 57.1478ZM73.185 58.6756C73.185 58.539 73.185 58.4272 73.185 58.3154C73.0618 57.8931 72.9386 57.4832 72.8277 57.0733C72.7168 56.6634 72.6798 56.4895 72.6306 56.179C72.5566 55.6574 72.4704 55.5829 71.9406 55.5829C71.6449 55.5829 71.571 55.645 71.4971 55.9306C71.2999 56.651 71.1028 57.3714 70.918 58.1043C70.8762 58.2335 70.8473 58.3667 70.8317 58.5017C70.8317 58.6881 70.8317 58.7377 71.0412 58.7377C71.5463 58.7377 71.571 58.7377 71.6326 58.303C71.6324 58.2714 71.6388 58.2402 71.6515 58.2113C71.6641 58.1824 71.6827 58.1566 71.706 58.1354C71.7293 58.1143 71.7567 58.0984 71.7866 58.0887C71.8164 58.0791 71.8479 58.0759 71.879 58.0794H72.1008C72.4088 58.0794 72.4334 58.0794 72.495 58.4148C72.5567 58.7501 72.6306 58.7998 72.9632 58.7874C73.056 58.7515 73.1465 58.7101 73.2343 58.6632L73.185 58.6756ZM64.1909 56.1294H65.1765C65.349 56.1294 65.386 56.0176 65.3983 55.8809C65.4106 55.7443 65.3983 55.645 65.2258 55.6201H63.4517C63.4483 55.678 63.4483 55.7361 63.4517 55.794C63.4517 56.6883 63.4517 57.5702 63.4517 58.4645C63.4517 58.6632 63.4516 58.688 63.698 58.7004H65.3983H65.5092C65.6324 58.3527 65.5831 58.2657 65.2258 58.2533H64.4373C64.2771 58.2533 64.1909 58.1788 64.1909 58.0173C64.1909 57.8558 64.1909 57.6074 64.1909 57.3715H64.8808C64.9229 57.3779 64.966 57.3727 65.0054 57.3564C65.0447 57.34 65.079 57.3131 65.1043 57.2786C65.1297 57.2441 65.1452 57.2033 65.1492 57.1606C65.1533 57.1178 65.1457 57.0748 65.1273 57.0361C65.1154 56.9787 65.0816 56.9283 65.0332 56.8957C64.9848 56.8632 64.9257 56.8512 64.8685 56.8622C64.6468 56.8622 64.425 56.8622 64.1909 56.8622V56.1294ZM24.3087 55.5829C24.2989 55.711 24.2989 55.8397 24.3087 55.9679C24.3087 56.738 24.3087 57.4956 24.3087 58.2533C24.3087 58.688 24.3704 58.7501 24.7893 58.7129C24.8936 58.7018 24.9967 58.681 25.0973 58.6508V57.4087H25.4299H25.8735C26.0213 57.4087 26.1199 57.3342 26.1199 57.1851C26.1271 57.1513 26.1269 57.1162 26.1192 57.0825C26.1115 57.0488 26.0966 57.0172 26.0754 56.9899C26.0542 56.9626 26.0274 56.9404 25.9967 56.9248C25.9661 56.9091 25.9324 56.9005 25.8981 56.8995C25.7626 56.8995 25.6271 56.8995 25.4916 56.8995H25.1219C25.1219 56.8001 25.1219 56.7256 25.1219 56.651C25.1219 56.3032 25.1219 56.266 25.4792 56.266H26.2431C26.271 56.2695 26.2993 56.267 26.3261 56.2586C26.353 56.2502 26.3777 56.2362 26.3987 56.2174C26.4197 56.1985 26.4365 56.1754 26.4479 56.1495C26.4593 56.1236 26.4651 56.0956 26.4649 56.0672C26.4649 55.8313 26.4649 55.7568 26.2061 55.7443H24.9741L24.3087 55.5829ZM48.4204 56.1169H48.9009C49.0734 56.1169 49.135 56.0176 49.1596 55.8437C49.1843 55.6698 49.0487 55.6574 48.9379 55.6201C48.8438 55.6075 48.7485 55.6075 48.6545 55.6201H47.1883C47.0528 55.6201 47.0035 55.6946 46.9912 55.8189C46.9788 55.9431 47.0528 56.1169 47.2499 56.1418H47.6811C47.6863 56.2038 47.6863 56.2661 47.6811 56.3281C47.6811 56.9492 47.6811 57.5702 47.6811 58.1912C47.6811 58.8123 47.6811 58.7625 48.2232 58.7004C48.3095 58.7004 48.3834 58.7004 48.4943 58.7004L48.4204 56.1169ZM95.5964 57.0733V57.3466C95.5964 57.5329 95.5964 57.7068 95.5964 57.8931C95.5964 58.0794 95.5964 58.1042 95.7566 58.1167C95.9167 58.1291 95.929 58.0049 95.929 57.9055C95.929 57.4708 95.929 57.0361 95.929 56.6014C95.9262 56.5589 95.9136 56.5177 95.8922 56.4811C95.8708 56.4444 95.8412 56.4133 95.8058 56.3902C95.7469 56.3649 95.6805 56.3636 95.6207 56.3868C95.5609 56.41 95.5124 56.4558 95.4855 56.5144C95.4485 56.5662 95.4233 56.6256 95.4116 56.6883C95.4116 56.8249 95.3376 56.974 95.2884 57.1106C95.2391 57.2472 95.2021 57.4087 94.9926 57.3963L94.8818 57.0609C94.8818 56.9243 94.8202 56.7753 94.7709 56.6386C94.7216 56.502 94.5984 56.3281 94.2657 56.4399C94.2657 56.9119 94.2657 57.3963 94.2657 57.8807C94.2657 57.9925 94.2657 58.1167 94.4259 58.1167C94.5861 58.1167 94.5738 57.9676 94.5861 57.8558C94.5984 57.7441 94.5861 57.6074 94.5861 57.4832V57.123H94.66C94.7339 57.359 94.8078 57.595 94.8941 57.831C94.9153 57.9003 94.9442 57.967 94.9803 58.0298C95.0543 58.154 95.1775 58.1664 95.2514 58.0298C95.3186 57.9091 95.3684 57.7795 95.3992 57.6447C95.4278 57.4275 95.5128 57.2218 95.6456 57.0485L95.5964 57.0733ZM93.9454 56.5144C93.574 56.4154 93.1833 56.4154 92.8119 56.5144C92.8119 56.5144 92.738 56.5889 92.738 56.6262C92.7398 56.6513 92.7475 56.6756 92.7603 56.6971C92.7732 56.7187 92.7908 56.7369 92.8119 56.7504C92.916 56.795 93.023 56.8324 93.1322 56.8622V57.8186C93.1126 57.9211 93.1126 58.0265 93.1322 58.1291C93.147 58.1601 93.1696 58.1868 93.1977 58.2063C93.2257 58.2259 93.2584 58.2378 93.2924 58.2409C93.3258 58.2358 93.3576 58.223 93.3853 58.2037C93.4131 58.1843 93.4361 58.1588 93.4526 58.1291C93.4719 58.0265 93.4719 57.9212 93.4526 57.8186C93.4526 57.4956 93.4526 57.1727 93.4526 56.8622C93.4526 56.5517 93.9331 56.7256 94.007 56.502L93.9454 56.5144Z" fill="#D2013A"/>
<path d="M49.5416 47.3105C49.5416 47.4595 49.5416 47.5589 49.5416 47.6458V51.1485C49.5416 51.459 49.5416 51.4838 49.1966 51.4838C48.1371 51.4838 47.0775 51.4838 46.0179 51.4838C45.2825 51.4563 44.5592 51.2876 43.8864 50.987C43.5317 50.8215 43.2168 50.5803 42.9637 50.2801C42.7105 49.9798 42.5251 49.6277 42.4203 49.2481C42.1931 48.5637 42.0807 47.8458 42.0876 47.1241C42.0876 40.1768 42.0876 33.2336 42.0876 26.2946V25.7232H41.2375H41.028C40.7693 25.7232 40.7446 25.7232 40.7446 25.4375C40.7446 24.1954 40.7446 23.0776 40.7446 21.91V21.5498C41.2005 21.4132 41.6441 21.5498 42.1122 21.4753C42.1122 20.7425 42.1122 19.9972 42.1122 19.252V14.7432C42.5717 14.7125 43.0327 14.7125 43.4922 14.7432C43.9357 14.7432 44.3793 14.7432 44.8105 14.7432H46.1658C46.6121 14.6939 47.0624 14.6939 47.5087 14.7432V21.4256C47.7551 21.5001 51.2049 21.525 51.6978 21.4256C51.7044 21.3347 51.7044 21.2433 51.6978 21.1524C51.6978 20.5686 51.6978 19.9848 51.6978 19.4134C51.7326 18.7548 51.8108 18.0992 51.9318 17.451C52.0023 16.98 52.1747 16.5305 52.437 16.1344C52.8356 15.5421 53.4221 15.1041 54.1003 14.8923C54.9359 14.6432 55.804 14.5218 56.6753 14.5321C57.4762 14.5321 58.277 14.5321 59.0778 14.5321H59.2996C59.5337 14.5321 59.5583 14.5321 59.5707 14.8178V18.3204C59.5707 18.4322 59.5707 18.544 59.5707 18.693H58.7945H58.0183C57.8362 18.7006 57.6619 18.7696 57.5234 18.889C57.3849 19.0084 57.2901 19.1712 57.2544 19.3513C57.1935 19.5744 57.1563 19.8035 57.1435 20.0345C57.1435 20.4568 57.1435 20.8667 57.1435 21.2766C57.1435 21.2766 57.1435 21.3759 57.1435 21.4629H57.4515H59.1518H59.5337C59.5385 21.529 59.5385 21.5954 59.5337 21.6616C59.5337 22.9037 59.5337 24.1458 59.5337 25.3133C59.5337 25.6114 59.5337 25.6487 59.1764 25.6487H57.5008H57.0573C57.0573 27.8099 57.0573 29.9462 57.0573 32.0826C57.0573 34.219 57.0573 36.3802 57.0573 38.5414V51.3845C56.9609 51.4146 56.8618 51.4354 56.7615 51.4466H51.6608V25.7232C50.2663 25.6209 48.8663 25.6209 47.4718 25.7232C47.4648 25.7934 47.4648 25.8641 47.4718 25.9343V46.1181C47.468 46.3958 47.5359 46.6697 47.6689 46.913C47.7405 47.0315 47.8395 47.1307 47.9576 47.2021C48.0756 47.2735 48.2091 47.315 48.3465 47.3229C48.5763 47.3356 48.8067 47.3356 49.0365 47.3229L49.5416 47.3105Z" fill="white"/>
<path d="M89.4237 21.4879V22.5809L89.6578 22.4194C90.1736 21.9484 90.7824 21.5928 91.4443 21.3761C91.8095 21.2776 92.1882 21.2398 92.5655 21.2643C93.0064 21.2655 93.4454 21.324 93.8715 21.4382C94.325 21.5795 94.74 21.8245 95.0841 22.1541C95.4282 22.4838 95.6921 22.8891 95.8551 23.3386C96.1345 24.1177 96.3005 24.9335 96.3479 25.7606C96.4095 26.568 96.4588 27.3877 96.4588 28.2448C96.4588 33.3456 96.4588 38.4546 96.4588 43.572C96.4588 44.5035 96.4588 45.4475 96.3849 46.3915C96.3587 47.2304 96.2389 48.0637 96.0276 48.8757C95.8719 49.6672 95.4655 50.3864 94.8695 50.9251C94.6333 51.1207 94.3669 51.2759 94.0809 51.3846C93.2962 51.6941 92.4366 51.7547 91.6168 51.5585C91.1487 51.438 90.6975 51.2586 90.2738 51.0244C90.0656 50.8818 89.8679 50.724 89.6824 50.5524L89.3744 50.2792C89.366 50.4115 89.366 50.5443 89.3744 50.6767C89.3744 51.9187 89.3744 53.1608 89.3744 54.3284C89.3744 55.9679 89.3744 57.6074 89.3744 59.2967V61.0356H89.0171H84.3845H84.0519V22.407C84.0642 22.196 84.0642 21.9845 84.0519 21.7736C84.0519 21.6121 84.1135 21.5376 84.2613 21.5251H88.9925L89.4237 21.4879ZM91.05 36.3928V27.2387C91.0505 26.9843 91.0257 26.7305 90.9761 26.481C90.9385 26.3197 90.8495 26.1752 90.7226 26.0698C90.5958 25.9643 90.4381 25.9037 90.2738 25.8972C90.0986 25.8785 89.9229 25.9269 89.7814 26.0327C89.6399 26.1385 89.543 26.2941 89.51 26.4686C89.4503 26.725 89.4213 26.9877 89.4237 27.2511V44.1061C89.4237 44.2924 89.4237 44.4911 89.4237 44.6774C89.4237 45.2736 89.4237 45.9195 89.4976 46.4536C89.4976 46.8511 89.7687 47.0374 90.1753 47.0746C90.2578 47.0929 90.3431 47.0945 90.4263 47.0793C90.5094 47.0642 90.5888 47.0327 90.6598 46.9865C90.7308 46.9403 90.792 46.8804 90.8399 46.8103C90.8879 46.7401 90.9216 46.6611 90.9392 46.5778C91.0171 46.3285 91.0585 46.0691 91.0623 45.8077C91.0623 42.6528 91.05 39.5477 91.05 36.4425V36.3928Z" fill="white"/>
<path d="M69.0206 36.4052C69.0206 33.1633 69.0206 29.9091 69.0206 26.6549C69.0347 25.9151 69.0923 25.1768 69.1931 24.444C69.2763 23.8308 69.5139 23.2492 69.8831 22.7547C70.2817 22.2267 70.8393 21.8432 71.4724 21.6617C72.3758 21.3724 73.3219 21.2422 74.2692 21.2767C75.3042 21.2767 76.3514 21.2767 77.3864 21.3388C78.3713 21.36 79.3244 21.6948 80.1092 22.2952C80.4869 22.5996 80.7798 22.9976 80.9594 23.4503C81.3312 24.4797 81.4986 25.5727 81.4522 26.6673C81.4522 33.2254 81.4522 39.7836 81.4522 46.3418C81.4627 47.2136 81.3549 48.0829 81.1318 48.9253C80.9772 49.5769 80.6239 50.1634 80.1216 50.6021C79.757 50.8914 79.3378 51.1027 78.8895 51.2231C77.6829 51.5354 76.4384 51.6735 75.1933 51.633C74.2564 51.6559 73.3195 51.5851 72.3965 51.4218C71.892 51.3314 71.3999 51.1813 70.9303 50.9747C70.2929 50.6751 69.7974 50.1355 69.5504 49.4718C69.2756 48.805 69.1212 48.0942 69.0945 47.3727C69.0945 46.6895 69.0945 46.0064 69.0945 45.3108L69.0206 36.4052ZM76.0434 36.4797V26.8536C76.0628 26.5593 76.0251 26.264 75.9325 25.9841C75.871 25.8166 75.75 25.6781 75.5929 25.5955C75.4358 25.5129 75.2539 25.492 75.0824 25.537C74.9179 25.5495 74.7642 25.6244 74.6522 25.7465C74.5402 25.8686 74.4782 26.029 74.4787 26.1953C74.4787 26.6052 74.4787 27.0151 74.4787 27.4374V45.6586C74.4849 46.0075 74.5096 46.3557 74.5526 46.702C74.559 46.8908 74.6388 47.0696 74.7748 47.1997C74.9108 47.3299 75.092 47.4009 75.2795 47.3975C75.6984 47.3975 75.9818 47.2857 76.0311 46.851C76.0804 46.4163 76.0927 46.3293 76.0927 46.0685C76.068 42.8722 76.0516 39.676 76.0434 36.4797Z" fill="white"/>
<path d="M61.0861 8.99268H66.384C66.4579 9.27835 66.4702 51.1239 66.384 51.4096H61.0861C61.0861 51.2853 61.0861 51.1736 61.0861 51.0494V9.84971C61.0614 9.53919 61.0738 9.27835 61.0861 8.99268Z" fill="white"/>
<path d="M29.6683 51.4216H24.2472C24.2472 51.2602 24.2472 51.1235 24.2472 50.9745V28.083C24.2472 27.4123 24.2472 26.754 24.2472 26.0833C24.2472 25.9467 24.2472 25.81 24.2472 25.6486H23.1876C22.9042 25.6486 22.8426 25.6486 22.8426 25.3008C22.8426 24.953 22.8426 24.9654 22.8426 24.7915V21.6739C22.8426 21.4504 22.8426 21.4131 23.1137 21.4131H24.2718C24.2718 21.0777 24.2718 20.7672 24.2718 20.4567C24.2718 19.7611 24.2718 19.078 24.3458 18.3824C24.3524 17.5614 24.5826 16.758 25.0111 16.0597C25.4107 15.4578 26.0086 15.0178 26.699 14.8177C27.5935 14.5678 28.5185 14.4465 29.4466 14.4575C30.1981 14.4575 30.962 14.4575 31.7136 14.4575H32.0955C32.0955 15.8486 32.0955 17.2149 32.0955 18.5936H31.4918H30.617C30.1735 18.5936 29.9763 18.8544 29.8285 19.2146C29.7809 19.3508 29.7518 19.4929 29.7422 19.6369C29.7422 20.1586 29.7422 20.6803 29.7422 21.2019C29.7393 21.2516 29.7393 21.3013 29.7422 21.351H30.0872H31.6889H32.0709C32.0759 21.4296 32.0759 21.5084 32.0709 21.587V23.8103C32.0709 24.2326 32.0709 24.6673 32.0709 25.0524C32.0709 25.4374 32.0709 25.4871 31.6643 25.4871H29.9394H29.6807C29.6807 25.6361 29.6807 25.7603 29.6807 25.897V51.2477L29.6683 51.4216Z" fill="white"/>
<path d="M33.6356 21.4629C33.8943 21.4629 38.7241 21.4629 38.9581 21.4629V51.3597C38.8822 51.3875 38.8038 51.4083 38.7241 51.4218H33.6726C33.6726 51.4218 33.6726 51.3348 33.6726 51.2975C33.6726 41.4355 33.6726 31.5775 33.6726 21.7237C33.6726 21.7237 33.6726 21.6368 33.6726 21.5995L33.6356 21.4629Z" fill="white"/>
<path d="M38.9211 14.7059V18.9538H38.6624H33.8696C33.5986 18.9538 33.574 18.9538 33.574 18.6681V14.8177C33.574 14.8177 33.574 14.7183 33.574 14.619C33.9269 14.6003 34.2806 14.6003 34.6335 14.619H37.8493C38.2089 14.5885 38.571 14.6179 38.9211 14.7059Z" fill="white"/>
<path d="M56.1701 56.8871C56.1701 57.1231 56.0469 57.3467 55.9976 57.5827C55.9483 57.8187 55.899 58.0795 55.8498 58.3279C55.8436 58.4058 55.8174 58.4807 55.7736 58.5451C55.7298 58.6095 55.67 58.6613 55.6002 58.6952C55.5305 58.7292 55.4531 58.7441 55.3758 58.7385C55.2985 58.7329 55.2241 58.7069 55.1598 58.6633C55.0925 58.6211 55.044 58.5544 55.0243 58.477L54.3466 55.9928C54.3466 55.9183 54.3466 55.8438 54.3466 55.7693C54.3466 55.6948 54.3466 55.645 54.3466 55.6326C54.4225 55.5831 54.5085 55.5518 54.5982 55.541C54.6879 55.5303 54.7789 55.5404 54.8641 55.5705C55.012 55.5705 55.0612 55.6947 55.0859 55.8314C55.1721 56.2288 55.246 56.6139 55.3323 57.0734C55.358 57.1872 55.3909 57.2993 55.4309 57.4088C55.4925 57.2846 55.5171 57.2225 55.5417 57.1604C55.6526 56.7381 55.7389 56.3034 55.8621 55.9183C55.9853 55.5333 56.1085 55.5954 56.3549 55.6575C56.4265 55.6676 56.4929 55.7009 56.5441 55.7525C56.5952 55.804 56.6283 55.8709 56.6383 55.9431C56.7246 56.353 56.8354 56.7505 56.934 57.1852C56.9561 57.2662 56.985 57.3451 57.0202 57.4212C57.0433 57.2985 57.0516 57.1734 57.0449 57.0486L57.3036 55.8935C57.3184 55.8223 57.3508 55.7559 57.3976 55.7006C57.4445 55.6452 57.5044 55.6026 57.5718 55.5766C57.6393 55.5507 57.7121 55.5422 57.7836 55.552C57.8552 55.5618 57.9231 55.5895 57.9813 55.6326C58.0197 55.6639 58.0458 55.7079 58.0552 55.7568C58.0608 55.8064 58.0608 55.8564 58.0552 55.9059C57.858 56.7257 57.6732 57.5578 57.4761 58.39C57.4022 58.6633 57.3159 58.7378 57.0695 58.7378C57.0167 58.7447 56.9631 58.7408 56.9119 58.7263C56.8607 58.7117 56.8129 58.6869 56.7714 58.6532C56.73 58.6196 56.6958 58.5778 56.6708 58.5304C56.6457 58.4831 56.6305 58.4311 56.626 58.3776C56.5151 57.9802 56.4165 57.5703 56.3056 57.1356C56.2924 57.0551 56.2718 56.9761 56.244 56.8996L56.1701 56.8871Z" fill="white"/>
<path d="M79.2222 58.6756H78.4583C78.4583 58.5514 78.4583 58.452 78.4583 58.3651V55.8809C78.4583 55.5331 78.4583 55.4959 78.8402 55.4959C79.303 55.4946 79.7649 55.5362 80.2201 55.6201C80.3597 55.6617 80.4868 55.7378 80.5898 55.8415C80.6928 55.9451 80.7686 56.073 80.8102 56.2136C80.8518 56.3543 80.8579 56.5031 80.828 56.6467C80.7981 56.7903 80.7332 56.9241 80.639 57.036C80.5405 57.1478 80.3433 57.1975 80.368 57.3714C80.4056 57.5019 80.4594 57.6271 80.5282 57.744C80.639 57.9676 80.7376 58.1788 80.8362 58.4023C80.8448 58.4641 80.8448 58.5268 80.8362 58.5886C80.7299 58.6378 80.6143 58.6632 80.4974 58.6632C80.3804 58.6632 80.2649 58.6378 80.1586 58.5886C80.0617 58.5335 79.9874 58.4455 79.9491 58.3402C79.8382 58.0918 79.7643 57.8434 79.6657 57.595C79.6657 57.595 79.6657 57.4832 79.5918 57.4583C79.5163 57.4129 79.4325 57.3834 79.3454 57.3714C79.2345 57.3714 79.1975 57.4708 79.1975 57.5702C79.1975 57.6695 79.1975 57.9924 79.1975 58.2036C79.1975 58.4147 79.2838 58.5265 79.2222 58.6756ZM79.2222 56.9119H79.4316C79.8259 56.9119 79.986 56.7379 79.9121 56.3405C79.9121 56.1542 79.7889 56.0797 79.5302 56.0424C79.2715 56.0051 79.1975 56.0424 79.1852 56.3157C79.2102 56.5185 79.2555 56.7183 79.3207 56.9119H79.2222Z" fill="white"/>
<path d="M41.7179 57.1479V57.8435C41.7179 58.4273 41.5578 58.5142 41.028 58.6757C40.8086 58.7386 40.579 58.7567 40.3527 58.729C40.1263 58.7013 39.9077 58.6282 39.7097 58.5142C39.6347 58.4766 39.5705 58.4204 39.5231 58.3509C39.4757 58.2813 39.4466 58.2007 39.4386 58.1167C39.426 57.9721 39.426 57.8267 39.4386 57.682V56.5393C39.4386 55.8562 39.6357 55.6823 40.3257 55.5456C40.659 55.4816 41.0039 55.525 41.3114 55.6699C41.4424 55.7105 41.5566 55.7931 41.6367 55.9052C41.7168 56.0173 41.7583 56.1528 41.7549 56.2909C41.7549 56.5766 41.7549 56.8622 41.7549 57.1479H41.7179ZM40.9417 57.1479C40.9417 56.8871 40.9417 56.6387 40.9417 56.3903C40.9417 56.1418 40.8309 56.1046 40.6091 56.0922C40.3873 56.0797 40.2394 56.0922 40.2394 56.3282C40.2394 56.883 40.2394 57.4419 40.2394 58.0049C40.2394 58.2037 40.3504 58.2534 40.5352 58.2658C40.72 58.2782 40.9171 58.1913 40.9417 57.9056C40.9664 57.6199 40.9417 57.3591 40.9417 57.1106V57.1479Z" fill="white"/>
<path d="M31.7381 57.1355V56.353C31.7267 56.1926 31.7708 56.0331 31.8629 55.9018C31.955 55.7704 32.0895 55.6753 32.2433 55.6326C32.7013 55.466 33.2061 55.4883 33.6479 55.6947C33.759 55.7454 33.8532 55.8275 33.9188 55.9312C33.9845 56.0348 34.0187 56.1555 34.0175 56.2785C34.0175 56.8499 34.0175 57.4212 34.0175 57.9926C34.0115 58.1543 33.9508 58.309 33.8454 58.431C33.7401 58.553 33.5964 58.635 33.4384 58.6633C33.0016 58.7928 32.5329 58.7575 32.1201 58.5639C32.0079 58.5182 31.9123 58.439 31.8462 58.3368C31.7801 58.2346 31.7467 58.1145 31.7505 57.9926V57.1355H31.7381ZM33.2413 57.1355C33.2413 56.8995 33.2413 56.6511 33.2413 56.4151C33.2453 56.3673 33.2387 56.3193 33.2219 56.2744C33.2052 56.2295 33.1788 56.189 33.1446 56.1557C33.1104 56.1224 33.0692 56.0972 33.0242 56.0819C32.9791 56.0666 32.9312 56.0616 32.884 56.0673C32.6376 56.0673 32.5144 56.1667 32.5144 56.44C32.5144 56.912 32.5144 57.384 32.5144 57.8684C32.5155 57.889 32.5155 57.9098 32.5144 57.9305C32.5144 58.154 32.6376 58.241 32.8717 58.241C33.1058 58.241 33.2289 58.1416 33.2413 57.8684C33.2536 57.5951 33.2413 57.3715 33.2413 57.1231V57.1355Z" fill="white"/>
<path d="M73.2343 58.663C73.1236 58.6706 73.0124 58.6706 72.9017 58.663C72.569 58.663 72.4951 58.663 72.4335 58.2904C72.3719 57.9178 72.3472 57.9675 72.0392 57.9551H71.8298C71.7986 57.9516 71.7671 57.9548 71.7373 57.9644C71.7075 57.9741 71.68 57.9899 71.6568 58.0111C71.6335 58.0322 71.6149 58.058 71.6022 58.0869C71.5896 58.1158 71.5831 58.1471 71.5833 58.1786C71.5217 58.6258 71.4971 58.6134 70.992 58.6134C70.8071 58.6134 70.7702 58.6134 70.7825 58.3774C70.7981 58.2423 70.827 58.1092 70.8687 57.9799C71.0536 57.2471 71.2507 56.5267 71.4478 55.8063C71.5217 55.5206 71.5956 55.4709 71.8913 55.4585C72.4211 55.4585 72.5074 55.533 72.5813 56.0547C72.5813 56.3652 72.7045 56.6633 72.7784 56.949C72.8524 57.2347 73.0125 57.7812 73.1357 58.1911C73.2097 58.4147 73.2097 58.5264 73.2343 58.663ZM72.2487 57.4831L72.0269 56.4273H71.9406C71.8275 56.7634 71.7693 57.1158 71.7682 57.4707L72.2487 57.4831Z" fill="white"/>
<path d="M64.2402 56.1167V56.775C64.4743 56.775 64.6961 56.775 64.9179 56.775C64.975 56.764 65.0341 56.7761 65.0825 56.8086C65.1309 56.8411 65.1647 56.8915 65.1766 56.9489C65.195 56.9877 65.2026 57.0307 65.1986 57.0734C65.1945 57.1162 65.179 57.157 65.1536 57.1915C65.1283 57.226 65.0941 57.2528 65.0547 57.2692C65.0153 57.2856 64.9723 57.2908 64.9302 57.2843H64.2402C64.2402 57.5203 64.2402 57.7314 64.2402 57.9302C64.2402 58.1289 64.3265 58.1662 64.4867 58.1662H65.2012C65.5585 58.1662 65.6078 58.2655 65.4846 58.6133H65.3738H63.6735C63.464 58.6133 63.4271 58.6133 63.4271 58.3773C63.4271 57.483 63.4271 56.6012 63.4271 55.7069C63.4237 55.649 63.4237 55.5909 63.4271 55.533H65.2505C65.3984 55.533 65.4353 55.6572 65.423 55.7938C65.4107 55.9304 65.423 56.0422 65.2012 56.0422L64.2402 56.1167Z" fill="white"/>
<path d="M24.3581 55.5703H25.0111H26.2432C26.4896 55.5703 26.5265 55.6573 26.5019 55.8933C26.5021 55.9216 26.4963 55.9496 26.4849 55.9755C26.4735 56.0014 26.4567 56.0245 26.4357 56.0433C26.4147 56.0622 26.39 56.0763 26.3631 56.0846C26.3363 56.093 26.308 56.0955 26.2801 56.092H25.5162C25.1836 56.092 25.1466 56.092 25.1589 56.477C25.1589 56.5516 25.1589 56.6261 25.1589 56.7254H25.5286C25.6641 56.7254 25.7996 56.7254 25.9351 56.7254C25.9695 56.7265 26.0031 56.7351 26.0338 56.7508C26.0644 56.7664 26.0913 56.7886 26.1124 56.8159C26.1336 56.8431 26.1485 56.8748 26.1562 56.9085C26.1639 56.9423 26.1641 56.9773 26.1569 57.0111C26.1569 57.1602 26.0584 57.2347 25.9105 57.2347H25.4669H25.1343V58.4768C25.0337 58.507 24.9306 58.5278 24.8263 58.5389C24.4074 58.5389 24.3458 58.5389 24.3458 58.0793C24.3458 57.3216 24.3458 56.564 24.3458 55.7939C24.3465 55.7192 24.3507 55.6446 24.3581 55.5703Z" fill="white"/>
<path d="M48.4205 56.1046V58.6509C48.3096 58.6509 48.2357 58.6509 48.1494 58.6509C47.6443 58.713 47.595 58.6509 47.6073 58.1416C47.6196 57.6324 47.6073 56.8995 47.6073 56.2785C47.6125 56.2165 47.6125 56.1542 47.6073 56.0922H47.1761C46.9789 56.0922 46.8927 55.968 46.9173 55.7693C46.942 55.5705 46.979 55.5705 47.1145 55.5705H48.6792C48.7732 55.5579 48.8685 55.5579 48.9626 55.5705C49.0735 55.5705 49.1967 55.645 49.1844 55.7941C49.172 55.9431 49.0981 56.0549 48.9256 56.0673L48.4205 56.1046Z" fill="white"/>
<path d="M95.6457 57.0485C95.4945 57.208 95.3882 57.4052 95.3377 57.6199C95.3068 57.7546 95.2571 57.8843 95.1898 58.0049C95.1159 58.1291 94.9927 58.1167 94.9188 58.0049C94.8827 57.9422 94.8537 57.8755 94.8326 57.8062C94.7463 57.5702 94.6724 57.3342 94.5985 57.0982H94.5246V57.4584C94.5246 57.5826 94.5246 57.7068 94.5246 57.831C94.5246 57.9552 94.5245 58.0919 94.3644 58.0919C94.2042 58.0919 94.2042 57.9676 94.2042 57.8559C94.2042 57.3714 94.2042 56.887 94.2042 56.415C94.5369 56.3033 94.6231 56.3405 94.7094 56.6138C94.7956 56.887 94.7833 56.8995 94.8202 57.0361L94.9311 57.3715C95.1406 57.3715 95.1775 57.2224 95.2268 57.0858C95.2761 56.9491 95.3007 56.8001 95.35 56.6635C95.3617 56.6007 95.3869 56.5414 95.4239 56.4896C95.4508 56.4309 95.4993 56.3852 95.5591 56.362C95.619 56.3388 95.6854 56.34 95.7443 56.3654C95.7797 56.3885 95.8093 56.4196 95.8307 56.4562C95.8521 56.4929 95.8647 56.5341 95.8675 56.5765C95.8675 57.0112 95.8675 57.446 95.8675 57.8807C95.8675 57.9801 95.8675 58.1043 95.695 58.0919C95.5225 58.0794 95.5348 57.9677 95.5348 57.8683C95.5348 57.7689 95.5348 57.5081 95.5348 57.3218L95.6457 57.0485Z" fill="white"/>
<path d="M94.007 56.5019C93.9454 56.7255 93.699 56.6013 93.5511 56.7379C93.4033 56.8746 93.5511 57.3714 93.5511 57.6943C93.5705 57.7969 93.5705 57.9023 93.5511 58.0048C93.5347 58.0345 93.5116 58.0601 93.4839 58.0794C93.4561 58.0988 93.4243 58.1115 93.391 58.1166C93.357 58.1136 93.3243 58.1017 93.2962 58.0821C93.2681 58.0625 93.2456 58.0359 93.2308 58.0048C93.2112 57.9023 93.2112 57.7969 93.2308 57.6943V56.7379C93.1216 56.7081 93.0146 56.6708 92.9104 56.6262C92.8894 56.6127 92.8717 56.5944 92.8589 56.5729C92.8461 56.5513 92.8384 56.527 92.8365 56.5019C92.8365 56.5019 92.8365 56.3902 92.9104 56.3902C93.2819 56.2912 93.6725 56.2912 94.044 56.3902L94.007 56.5019Z" fill="white"/>
<path d="M91.05 36.4422C91.05 39.5474 91.05 42.6526 91.05 45.7578C91.0462 46.0191 91.0047 46.2785 90.9268 46.5279C90.9092 46.6112 90.8755 46.6902 90.8276 46.7603C90.7796 46.8305 90.7184 46.8903 90.6474 46.9365C90.5764 46.9827 90.497 47.0143 90.4139 47.0294C90.3307 47.0445 90.2454 47.0429 90.1629 47.0247C89.7563 47.0247 89.5099 46.8011 89.4852 46.4036C89.4852 45.8199 89.4852 45.1616 89.4113 44.6275C89.4113 44.4412 89.4113 44.2424 89.4113 44.0561V27.2384C89.4089 26.975 89.4379 26.7123 89.4976 26.4559C89.5306 26.2814 89.6275 26.1259 89.769 26.02C89.9105 25.9142 90.0862 25.8658 90.2615 25.8846C90.4257 25.891 90.5834 25.9516 90.7102 26.0571C90.8371 26.1625 90.9261 26.307 90.9637 26.4683C91.0133 26.7178 91.0381 26.9716 91.0377 27.226L91.05 36.4422Z" fill="#D2013A"/>
<path d="M76.0435 36.4796C76.0435 39.6676 76.0435 42.8597 76.0435 46.0559C76.0435 46.3168 76.0435 46.5776 75.9819 46.8385C75.9203 47.0993 75.6492 47.3974 75.2303 47.385C75.0429 47.3883 74.8616 47.3173 74.7256 47.1872C74.5896 47.0571 74.5098 46.8783 74.5034 46.6894C74.4604 46.3432 74.4357 45.9949 74.4294 45.6461V27.4248C74.4294 27.0149 74.4294 26.605 74.4294 26.1827C74.429 26.0164 74.491 25.8561 74.603 25.734C74.715 25.6119 74.8687 25.537 75.0332 25.5244C75.2047 25.4795 75.3866 25.5003 75.5437 25.5829C75.7008 25.6656 75.8218 25.8041 75.8833 25.9716C75.9759 26.2514 76.0135 26.5467 75.9942 26.841V36.4671L76.0435 36.4796Z" fill="#D2013A"/>
<path d="M79.3207 56.9125C79.3027 56.7223 79.3027 56.5308 79.3207 56.3406C79.3207 56.0796 79.407 56.0298 79.666 56.0671C79.9249 56.1044 80.0112 56.179 80.0482 56.3655C80.1222 56.7633 79.9619 56.9497 79.5673 56.9373L79.3207 56.9125Z" fill="#D2013A"/>
<path d="M40.9417 57.1105C40.9417 57.3589 40.9417 57.6198 40.9417 57.8682C40.9417 58.1166 40.8062 58.2408 40.5351 58.2284C40.2641 58.216 40.2394 58.1662 40.2394 57.9675C40.2394 57.4127 40.2394 56.8538 40.2394 56.2907C40.2394 56.1044 40.375 56.0423 40.6091 56.0547C40.8431 56.0672 40.9294 56.1417 40.9417 56.3528C40.954 56.564 40.9417 56.8496 40.9417 57.1105Z" fill="#D2013A"/>
<path d="M33.2413 57.123C33.2413 57.3714 33.2413 57.6198 33.2413 57.8558C33.2413 58.0918 33.1181 58.2284 32.8717 58.2284C32.6253 58.2284 32.5513 58.1415 32.5144 57.9179C32.5156 57.8972 32.5156 57.8765 32.5144 57.8558C32.5144 57.3714 32.5144 56.8994 32.5144 56.4274C32.5144 56.1541 32.6376 56.0548 32.884 56.0548C32.9312 56.0491 32.9791 56.054 33.0242 56.0693C33.0693 56.0846 33.1104 56.1098 33.1446 56.1431C33.1788 56.1764 33.2052 56.2169 33.222 56.2618C33.2387 56.3067 33.2453 56.3548 33.2413 56.4026C33.2413 56.6386 33.2413 56.887 33.2413 57.123Z" fill="#D2013A"/>
<path d="M72.249 57.4841H71.8298C71.8309 57.1289 71.8892 56.7763 72.0024 56.4399H72.0887L72.249 57.4841Z" fill="#D2013A"/>
</svg>
