<svg width="76" height="76" viewBox="0 0 76 76" fill="none" xmlns="http://www.w3.org/2000/svg">
<rect width="76" height="76" rx="8" fill="#EB143E"/>
<g clip-path="url(#clip0_3602_978)">
<path d="M17.1448 64.7463C17.019 64.6753 16.883 64.6042 16.7572 64.5231C16.5495 64.3969 16.375 64.2221 16.2484 64.0136C16.1219 63.805 16.0471 63.5688 16.0303 63.325C16.0135 63.0811 16.0552 62.8368 16.152 62.6126C16.2487 62.3885 16.3976 62.1911 16.586 62.0372C17.9499 60.7566 19.1352 59.2958 20.1099 57.6945C20.5176 57.0147 20.4924 56.9234 19.8833 56.4363C14.4012 52.0632 11.8288 46.3356 12.2869 39.3244C12.5821 35.369 14.0782 31.601 16.572 28.5323C19.0659 25.4636 22.4366 23.2429 26.2263 22.1718C26.5028 22.0729 26.7384 21.8836 26.8958 21.634C28.4257 19.1259 30.489 16.9911 32.9366 15.3838C33.0071 15.3381 33.0776 15.2874 33.1531 15.2468C33.2368 15.184 33.3325 15.1391 33.4341 15.1149C33.5357 15.0907 33.6412 15.0877 33.744 15.1062C33.8468 15.1246 33.9448 15.164 34.0319 15.222C34.119 15.2801 34.1934 15.3554 34.2505 15.4435C34.3076 15.5316 34.3463 15.6305 34.364 15.7342C34.3818 15.8379 34.3783 15.9442 34.3538 16.0465C34.3292 16.1488 34.2842 16.2449 34.2215 16.329C34.1587 16.4131 34.0795 16.4833 33.9887 16.5354C33.0725 17.2406 32.106 17.8849 31.2653 18.6713C30.3624 19.5552 29.5214 20.5011 28.7483 21.5021C36.5863 20.8426 42.9997 23.4502 47.4297 29.9998C51.8597 36.5493 51.8546 43.5402 48.3157 50.5819C49.4534 51.7132 55.2677 53.9403 57.1756 53.9555C56.5514 53.2707 55.897 52.6264 55.3382 51.9263C54.6538 51.0565 54.0136 50.1523 53.4202 49.2172C52.6751 48.0503 52.8866 47.0103 53.974 46.1732C57.7092 43.3068 60.1205 39.578 60.8656 34.9005C61.9932 27.798 59.7531 21.9029 54.0998 17.5348C49.0356 13.6234 43.342 12.8167 37.281 14.9221C36.7122 15.12 36.2742 14.983 36.1181 14.5569C35.9621 14.1307 36.1635 13.7046 36.7575 13.4813C47.631 9.35681 59.9846 16.1651 62.2348 27.6864C63.7903 35.6412 61.2784 42.2161 55.016 47.3248C54.4169 47.8322 54.3867 47.8981 54.7995 48.583C55.7418 50.1468 56.8975 51.5694 58.2328 52.809C58.4209 52.9555 58.5767 53.1398 58.6903 53.3503C58.8038 53.5608 58.8726 53.7929 58.8922 54.0316C58.9014 54.2624 58.8585 54.4923 58.7665 54.7039C58.6745 54.9154 58.536 55.1031 58.3613 55.2527C58.1867 55.4023 57.9806 55.5099 57.7585 55.5673C57.5365 55.6247 57.3045 55.6304 57.0799 55.584C53.7987 55.0291 50.6468 53.87 47.7821 52.1647L47.4397 51.9618C47.183 52.2966 46.9364 52.6314 46.6746 52.9764C45.6027 54.368 44.3438 55.6025 42.9343 56.6443C42.4007 57.0451 41.9275 57.0401 41.6456 56.6443C41.3637 56.2486 41.4794 55.8377 42.008 55.4369C45.8742 52.4995 48.3106 48.6388 49.0305 43.804C49.992 37.3661 48.0237 31.8819 43.2262 27.5291C39.4406 24.0996 34.915 22.6994 29.8508 23.1103C26.1156 23.4442 22.5828 24.9672 19.7637 27.4589C16.9445 29.9507 14.9853 33.2819 14.1697 36.9704C12.6595 44.3925 14.95 50.5311 20.7945 55.2949C21.9674 56.2486 22.1789 57.1973 21.4036 58.4961C20.4718 60.0465 19.3486 61.4716 18.061 62.7373C17.9327 62.8472 17.7964 62.9472 17.6533 63.0366L17.7489 63.199C18.1818 63.1178 18.6148 63.0468 19.0427 62.9402C22.0412 62.2668 24.8855 61.0255 27.4244 59.2824C28.0069 58.8609 28.7272 58.6795 29.438 58.7751C32.5844 59.1513 35.7733 58.6676 38.6704 57.3749C39.2443 57.1263 39.6772 57.2531 39.8685 57.7097C40.0598 58.1663 39.8434 58.5265 39.2795 58.7751C36.1968 60.1496 32.8111 60.6883 29.4581 60.3377C29.0605 60.2807 28.6554 60.3574 28.3053 60.5558C25.2376 62.6145 21.7864 64.0229 18.1617 64.6956C18.0687 64.7244 17.9778 64.76 17.8898 64.8021L17.1448 64.7463Z" fill="white"/>
<path d="M18.0106 65.0001H17.0793L16.8981 64.8986C16.8075 64.8479 16.7118 64.7972 16.6262 64.7414C16.3945 64.6027 16.1976 64.412 16.0509 64.1841C15.9042 63.9562 15.8117 63.6972 15.7806 63.4274C15.759 63.133 15.805 62.8375 15.915 62.5639C16.0249 62.2903 16.196 62.0459 16.4148 61.8496C17.7696 60.5895 18.9453 59.1469 19.9085 57.5627C20.2306 57.025 20.2307 57.025 19.7373 56.6343C14.1646 52.1851 11.5771 46.356 12.0553 39.3042C12.3522 35.3005 13.8639 31.4857 16.3854 28.3773C18.9069 25.269 22.3162 23.0175 26.1507 21.9284C26.3611 21.8471 26.5383 21.6971 26.6541 21.5022C28.2147 18.9626 30.3116 16.8008 32.7956 15.1708L32.846 15.1404C32.9013 15.0998 32.9618 15.0643 33.0222 15.0288C33.133 14.9445 33.2599 14.8843 33.395 14.8518C33.53 14.8194 33.6702 14.8154 33.8068 14.8402C33.9434 14.865 34.0735 14.9179 34.1888 14.9958C34.3042 15.0737 34.4023 15.1747 34.477 15.2926C34.5537 15.4087 34.606 15.5395 34.6303 15.6768C34.6546 15.8141 34.6506 15.955 34.6185 16.0907C34.5864 16.2264 34.5268 16.354 34.4436 16.4654C34.3603 16.5769 34.2552 16.6698 34.1347 16.7385L33.3293 17.3371C32.6692 17.8087 32.0356 18.3168 31.4314 18.8591C30.6804 19.5921 29.979 20.3751 29.3322 21.2029C37.2659 20.6956 43.4276 23.6076 47.6562 29.8578C51.9552 36.2146 52.2875 43.1649 48.663 50.5211C49.8963 51.5357 54.3967 53.2809 56.5715 53.6361L56.4506 53.5092C56.0177 53.0476 55.5697 52.5758 55.172 52.0684C54.5075 51.2212 53.8581 50.3029 53.2439 49.339C52.4385 48.0809 52.655 46.8785 53.8581 45.9603C57.6538 43.0432 59.9393 39.3042 60.6491 34.8448C61.7767 27.7727 59.5365 22.0096 53.9839 17.7227C49.0405 13.9076 43.4628 13.0401 37.3968 15.1455C36.7071 15.389 36.1382 15.1911 35.9218 14.6382C35.8706 14.5188 35.8443 14.3902 35.8443 14.2602C35.8443 14.1302 35.8706 14.0016 35.9218 13.8823C36.0023 13.7256 36.1134 13.5869 36.2484 13.4745C36.3833 13.3621 36.5393 13.2782 36.7071 13.2278C39.3482 12.2372 42.1721 11.8397 44.9815 12.0632C47.7908 12.2866 50.5179 13.1256 52.9722 14.5215C55.4155 15.8691 57.5373 17.7382 59.1893 19.9981C60.8414 22.258 61.9839 24.8542 62.5369 27.6053C64.0974 35.5703 61.6358 42.2568 55.2324 47.4873C54.729 47.8779 54.729 47.8779 55.0713 48.4157C56.0019 49.9598 57.1423 51.3652 58.4592 52.591C58.6722 52.7599 58.848 52.9716 58.9754 53.2126C59.1028 53.4537 59.1791 53.7188 59.1993 53.9912C59.2095 54.2576 59.1605 54.5228 59.056 54.7677C58.9515 55.0126 58.794 55.2309 58.5952 55.4066C58.3891 55.5827 58.1464 55.7098 57.8849 55.7783C57.6234 55.8468 57.35 55.855 57.0849 55.8023C53.7739 55.2442 50.5941 54.0728 47.7065 52.3475L47.5555 52.2561L47.4497 52.3931L46.9463 53.0831C45.8574 54.4899 44.582 55.7395 43.1557 56.7967C42.8762 57.0361 42.515 57.1562 42.1489 57.1315C42.0251 57.1097 41.9069 57.0629 41.8014 56.9941C41.6959 56.9252 41.6052 56.8357 41.5347 56.7307C41.3233 56.4314 41.0918 55.8277 41.9476 55.1732C43.8069 53.8282 45.3787 52.1201 46.5695 50.1503C47.7604 48.1806 48.546 45.9897 48.8795 43.7078C49.8259 37.3611 47.8978 31.9632 43.1507 27.6611C39.5061 24.3534 35.0962 22.8872 29.9665 23.3032C22.5262 23.912 16.0222 29.6549 14.512 36.9604C13.0018 44.2658 15.2117 50.2776 21.0562 55.0363C22.345 56.0915 22.5664 57.1772 21.7157 58.5875C20.7982 60.1234 19.6921 61.5365 18.4234 62.7932C18.6449 62.7526 18.8664 62.707 19.0829 62.6563C22.0512 61.9902 24.8667 60.7609 27.379 59.034C28.0161 58.5795 28.7999 58.3838 29.5738 58.4861C32.6771 58.8525 35.8213 58.3761 38.6805 57.1061C38.8351 57.0274 39.0036 56.9802 39.1763 56.9672C39.3491 56.9541 39.5227 56.9755 39.6873 57.03C39.8028 57.0835 39.9067 57.1594 39.9931 57.2535C40.0795 57.3475 40.1467 57.4577 40.1907 57.5779C40.3014 57.8519 40.4474 58.5368 39.4758 58.9731C36.351 60.3625 32.9206 60.9063 29.5235 60.5509C29.1777 60.5016 28.8253 60.5638 28.5167 60.7284C25.425 62.8129 21.9418 64.2357 18.2825 64.9088L18.1516 64.9595L18.0559 65.0052L18.0106 65.0001ZM17.2102 64.4928H17.9452C18.0222 64.4548 18.1032 64.4258 18.1868 64.4065C21.7862 63.7473 25.213 62.3504 28.2549 60.3023C28.6545 60.0776 29.1147 59.987 29.5688 60.0435C32.8786 60.3937 36.2218 59.8691 39.2694 58.5216C39.9037 58.2375 39.7728 57.9026 39.7225 57.7809C39.7023 57.722 39.6705 57.6677 39.629 57.6215C39.5874 57.5753 39.5371 57.5381 39.4809 57.512C39.2731 57.4538 39.0511 57.4793 38.8617 57.583C35.9215 58.8872 32.6889 59.3758 29.4984 58.9985C28.8467 58.9097 28.1859 59.0748 27.6508 59.4601C25.0769 61.2098 22.1968 62.451 19.1634 63.1179C18.8664 63.1889 18.5694 63.2447 18.2774 63.3005L17.8596 63.3767L17.6834 63.4122L17.3864 62.9048L17.5676 62.7729L17.7086 62.6715C17.7934 62.6227 17.8727 62.5649 17.9452 62.499C19.2177 61.2469 20.3274 59.8372 21.2475 58.3034C21.9523 57.1315 21.7962 56.3249 20.6988 55.432C14.7032 50.5465 12.4429 44.2709 13.9834 36.8589C15.5389 29.3353 22.2291 23.425 29.891 22.801C35.1365 22.3698 39.6973 23.8765 43.4527 27.2806C48.3358 31.7096 50.3141 37.2597 49.3426 43.7839C48.6277 48.5628 46.2315 52.5301 42.2194 55.5791C41.6203 56.0306 41.8217 56.3147 41.9073 56.4365C41.9392 56.4869 41.9812 56.5301 42.0306 56.5633C42.08 56.5965 42.1357 56.6189 42.1942 56.6293C42.3127 56.6345 42.431 56.6162 42.5425 56.5753C42.6539 56.5344 42.7562 56.4717 42.8436 56.3908C44.2331 55.3604 45.4763 54.1434 46.5386 52.7736L47.042 52.0836L47.4145 51.5763L47.9532 51.901C50.7901 53.5928 53.9137 54.7401 57.1655 55.2849C57.3528 55.3256 57.547 55.3223 57.7329 55.2753C57.9188 55.2283 58.0914 55.1387 58.2374 55.0137C58.3835 54.8886 58.4989 54.7313 58.5749 54.554C58.6509 54.3766 58.6854 54.1841 58.6757 53.9912C58.6582 53.7856 58.5976 53.5861 58.4978 53.4059C58.3979 53.2257 58.2613 53.069 58.0968 52.9461C56.7444 51.6897 55.5735 50.2484 54.6182 48.6643C54.145 47.8779 54.1853 47.6497 54.8951 47.0764C61.1424 41.9778 63.5437 35.4536 62.0234 27.6865C61.4859 25.0102 60.3754 22.4843 58.7696 20.285C57.1637 18.0857 55.101 16.2659 52.7254 14.9527C50.3346 13.5918 47.6777 12.7737 44.9404 12.5555C42.2031 12.3373 39.4516 12.7243 36.8782 13.6895C36.6681 13.7463 36.4878 13.8826 36.3748 14.07C36.3502 14.1277 36.3375 14.1898 36.3375 14.2526C36.3375 14.3154 36.3502 14.3776 36.3748 14.4352C36.5208 14.8056 36.9135 14.7599 37.2206 14.6483C43.4527 12.4871 49.1916 13.38 54.276 17.3067C59.9846 21.7153 62.2902 27.6408 61.1323 34.9108C60.4024 39.502 58.0515 43.3476 54.1451 46.3458C53.1383 47.1068 52.9923 48.0149 53.6417 49.0499C54.2508 49.9985 54.8901 50.9016 55.5445 51.7387C55.9271 52.246 56.3651 52.6924 56.793 53.144L57.3719 53.768L57.7595 54.1992H57.2209C55.2828 54.1992 49.3728 51.9264 48.1898 50.7545L48.0589 50.6226L48.1394 50.4551C51.7841 43.2157 51.4921 36.3769 47.2685 30.1318C43.045 23.8867 36.838 21.071 28.8187 21.7458L28.2298 21.7914L28.6728 21.2435C29.4248 20.2667 30.2422 19.3429 31.1193 18.4786C31.7348 17.9314 32.382 17.4215 33.0574 16.9516C33.3242 16.7537 33.591 16.5558 33.8528 16.3529C34.1145 16.15 34.2505 15.8456 34.0844 15.5869C33.9182 15.3281 33.6262 15.2977 33.299 15.4854L33.148 15.5818L33.0977 15.6173C30.6741 17.2057 28.6286 19.314 27.1072 21.7914C26.9189 22.094 26.6325 22.3217 26.2966 22.4357C22.5565 23.4916 19.2296 25.6824 16.7681 28.7103C14.3066 31.7383 12.8299 35.4567 12.5386 39.36C12.0755 46.2342 14.5975 51.9162 20.0394 56.2538C20.7542 56.8271 20.7944 57.0656 20.3263 57.8468C19.3373 59.4688 18.1331 60.9469 16.7471 62.2402C16.5791 62.3798 16.4461 62.5572 16.3586 62.7581C16.2712 62.9591 16.2318 63.1779 16.2437 63.3969C16.2649 63.5893 16.3307 63.7739 16.4356 63.9361C16.5405 64.0982 16.6817 64.2333 16.8478 64.3304C16.9283 64.3812 17.0139 64.4268 17.0995 64.4725L17.2102 64.4928Z" fill="white"/>
<path d="M31.5926 43.3322C34.91 43.3322 38.2325 43.3322 41.555 43.3322C42.8739 43.3322 43.7297 44.22 43.5686 45.4427C43.5339 45.6778 43.4661 45.9067 43.3672 46.1225C42.3703 48.4979 40.6817 50.5126 38.5246 51.9003C36.3674 53.288 33.8432 53.9834 31.2855 53.8947C25.899 53.6918 22.0178 51.1095 19.7072 46.1834C18.9923 44.6614 19.8733 43.3322 21.5496 43.3271L31.5926 43.3322ZM31.5573 44.8542H21.7409C20.9607 44.8542 20.8549 45.0064 21.2073 45.7268C23.3115 50.0492 26.7951 52.322 31.5372 52.322C36.2793 52.322 39.7981 50.034 41.9073 45.6913C42.2345 45.0115 42.1238 44.8441 41.3737 44.8441L31.5573 44.8542Z" fill="white"/>
<path d="M31.7889 54.1686H31.2855C25.8084 53.9606 21.8416 51.3175 19.4958 46.3153C19.3135 45.9736 19.2206 45.5907 19.2259 45.2028C19.2311 44.8149 19.3344 44.4348 19.5259 44.0983C19.752 43.767 20.0586 43.4998 20.4164 43.3221C20.7743 43.1444 21.1714 43.0623 21.5698 43.0836C23.9257 43.0836 26.2817 43.0836 28.6175 43.0836H41.5247C41.8597 43.0702 42.1937 43.1289 42.5045 43.2558C42.8152 43.3826 43.0956 43.5747 43.3269 43.8192C43.5229 44.0429 43.6691 44.3061 43.7559 44.5914C43.8428 44.8766 43.8681 45.1772 43.8304 45.4731C43.7935 45.7346 43.7188 45.9893 43.6088 46.229C42.6344 48.5791 40.9926 50.5865 38.8896 51.9992C36.7866 53.4118 34.3162 54.1665 31.7889 54.1686ZM25.7027 43.596H21.5798C21.2704 43.5753 20.9608 43.6332 20.6794 43.7644C20.3979 43.8955 20.1536 44.0958 19.9689 44.3468C19.8212 44.6108 19.7435 44.9087 19.7435 45.2118C19.7435 45.5149 19.8212 45.8128 19.9689 46.0768C22.2242 50.8964 26.0451 53.4381 31.3207 53.641C33.8288 53.7373 36.3063 53.0604 38.4227 51.7007C40.5392 50.341 42.1938 48.3632 43.1658 46.0312C43.256 45.8384 43.317 45.6333 43.347 45.4224C43.3803 45.1979 43.3652 44.9689 43.3027 44.7509C43.2401 44.5329 43.1316 44.331 42.9846 44.1591C42.8003 43.9689 42.578 43.8204 42.3324 43.7233C42.0868 43.6262 41.8235 43.5828 41.56 43.596C39.2141 43.596 36.8682 43.596 34.5123 43.596H25.6926H25.7027ZM31.5472 52.6111C26.7196 52.6111 23.1706 50.3332 20.9757 45.8637C20.7794 45.4528 20.6837 45.1535 20.8297 44.91C20.9757 44.6664 21.3684 44.6259 21.7359 44.6259H41.3687C41.7916 44.6259 42.1087 44.6766 42.2547 44.915C42.4007 45.1535 42.3101 45.4579 42.1288 45.8384C39.9491 50.3333 36.39 52.6111 31.5472 52.6111ZM29.1007 45.1332H21.7359C21.5661 45.1131 21.3939 45.1322 21.2325 45.189C21.2791 45.3448 21.3398 45.4959 21.4137 45.6405C23.4978 49.9223 26.9008 52.0987 31.517 52.1038C36.1483 52.1038 39.5716 49.9172 41.6456 45.6151C41.8067 45.2803 41.7966 45.189 41.7915 45.1789C41.6455 45.1313 41.491 45.1157 41.3385 45.1332H29.1007Z" fill="white"/>
<path d="M42.4812 36.3057C42.4812 36.8688 42.2395 37.224 41.7915 37.2646C41.3435 37.3052 41.0062 36.9551 40.9609 36.3717C40.9296 35.6738 40.637 35.0139 40.1419 34.525C39.6469 34.0361 38.9862 33.7545 38.2933 33.7372C37.6004 33.7198 36.9267 33.9679 36.4081 34.4314C35.8895 34.8949 35.5646 35.5393 35.499 36.2347C35.3983 36.9957 35.1315 37.3153 34.6482 37.2493C34.165 37.1834 33.9032 36.742 34.0039 35.9709C34.1251 34.8967 34.6446 33.9083 35.4583 33.2037C36.2721 32.4992 37.3199 32.1305 38.3919 32.1716C39.464 32.2126 40.481 32.6604 41.2393 33.4251C41.9976 34.1899 42.4412 35.2152 42.4812 36.2956V36.3057Z" fill="white"/>
<path d="M34.7539 37.5184H34.618C34.4908 37.5089 34.367 37.4729 34.2543 37.4126C34.1417 37.3524 34.0427 37.2692 33.9636 37.1684C33.8506 36.9904 33.7737 36.7916 33.7374 36.5835C33.7011 36.3753 33.7061 36.162 33.7522 35.9559C33.9346 34.861 34.5067 33.8706 35.3613 33.1701C36.2159 32.4695 37.2945 32.1067 38.3953 32.1497C39.4962 32.1926 40.5437 32.6382 41.3421 33.4032C42.1405 34.1682 42.6349 35.2001 42.7329 36.3059C42.7329 37.006 42.3957 37.4728 41.8167 37.5184C41.6919 37.5326 41.5654 37.521 41.4451 37.4844C41.3248 37.4478 41.2132 37.3868 41.117 37.3054C40.9921 37.1904 40.8916 37.0511 40.8215 36.8959C40.7514 36.7407 40.7132 36.5728 40.7092 36.4023C40.6886 35.765 40.4259 35.16 39.9752 34.7125C39.5246 34.2649 38.9205 34.009 38.2879 33.9976H38.2073C37.5924 34.0093 37.003 34.2474 36.5504 34.6671C36.0978 35.0868 35.8133 35.6589 35.7507 36.2755C35.6399 37.1024 35.3027 37.5184 34.7539 37.5184ZM38.1771 32.4452C37.209 32.4632 36.2798 32.8321 35.5596 33.4843C34.8394 34.1365 34.3764 35.0283 34.2556 35.9965C34.1874 36.2791 34.225 36.5771 34.3613 36.8335C34.401 36.8794 34.4497 36.9165 34.5043 36.9427C34.5588 36.9689 34.6181 36.9835 34.6784 36.9857C34.8345 36.9857 35.1365 37.0416 35.2523 36.1842C35.3214 35.4242 35.6744 34.7191 36.2399 34.2116C36.8055 33.7042 37.5412 33.4323 38.2982 33.451C39.0553 33.4697 39.7769 33.7776 40.3171 34.3124C40.8573 34.8472 41.1756 35.5689 41.2076 36.3313C41.2127 36.5425 41.2973 36.7438 41.4442 36.8944C41.4893 36.9322 41.5416 36.9603 41.5978 36.9769C41.6541 36.9935 41.7133 36.9982 41.7714 36.9908C42.1591 36.9553 42.2345 36.59 42.2295 36.2907C42.179 35.2807 41.7562 34.3262 41.0439 33.6139C40.3315 32.9017 39.381 32.4831 38.3784 32.4401L38.1771 32.4452Z" fill="white"/>
<path d="M24.8569 32.2017C25.9445 32.2007 26.9917 32.6171 27.7856 33.3662C28.5795 34.1154 29.0605 35.1411 29.1308 36.2349C29.1711 36.8437 28.8892 37.2495 28.406 37.2495C27.9227 37.2495 27.666 36.9451 27.6106 36.3262C27.5646 35.6233 27.2541 34.9646 26.7425 34.4846C26.2309 34.0045 25.5569 33.7394 24.8579 33.7433C24.1589 33.7472 23.4877 34.0198 22.9814 34.5055C22.4751 34.9911 22.1719 35.6533 22.1336 36.3566C22.0883 36.9401 21.7711 37.285 21.313 37.2495C20.8549 37.214 20.5881 36.8386 20.6133 36.2349C20.6821 35.1459 21.1585 34.1239 21.9462 33.3752C22.7339 32.6266 23.7742 32.2072 24.8569 32.2017Z" fill="white"/>
<path d="M28.3657 37.5184C27.7969 37.5184 27.4244 37.0923 27.3589 36.3668C27.3196 35.7277 27.0419 35.1274 26.5816 34.686C26.1213 34.2447 25.5124 33.9952 24.8771 33.9874C24.2381 33.9908 23.6249 34.2419 23.1646 34.6887C22.7044 35.1355 22.4325 35.7437 22.4054 36.3871C22.4011 36.5585 22.3634 36.7274 22.2943 36.8841C22.2251 37.0408 22.1261 37.1822 22.0027 37.3003C21.9079 37.3824 21.7971 37.4438 21.6775 37.4805C21.5579 37.5171 21.4321 37.5283 21.308 37.5133C20.7089 37.4677 20.3515 37.006 20.3817 36.2501C20.4482 35.0916 20.9499 34.002 21.7849 33.2029C22.62 32.4038 23.7256 31.9551 24.8771 31.948C26.0298 31.9456 27.14 32.386 27.9818 33.1797C28.8235 33.9733 29.3335 35.0604 29.4077 36.2197C29.4285 36.3944 29.4143 36.5715 29.3659 36.7406C29.3175 36.9097 29.2358 37.0672 29.1258 37.2039C29.0385 37.3 28.9329 37.3774 28.8153 37.4314C28.6977 37.4855 28.5704 37.5151 28.4412 37.5184H28.3657ZM24.8771 33.4598C25.6384 33.4671 26.3689 33.7638 26.9224 34.2906C27.4759 34.8173 27.8116 35.5353 27.8623 36.3008C27.9278 37.0111 28.2801 37.0009 28.3657 36.9908C28.429 36.9911 28.4916 36.9781 28.5496 36.9528C28.6077 36.9275 28.6599 36.8903 28.703 36.8437C28.8315 36.6671 28.8858 36.4465 28.854 36.2298C28.7874 35.1998 28.3339 34.234 27.5857 33.529C26.8376 32.8241 25.851 32.4329 24.8268 32.435C23.8062 32.4421 22.8263 32.8394 22.0853 33.5467C21.3442 34.254 20.8972 35.2184 20.8347 36.245C20.8347 36.5697 20.8901 36.9553 21.3029 36.9908C21.4185 37.0005 21.5335 36.9661 21.6251 36.8944C21.7688 36.7425 21.8498 36.5412 21.8516 36.3313C21.8949 35.5621 22.226 34.838 22.7781 34.3051C23.3302 33.7722 24.0623 33.4702 24.8268 33.4598H24.8771Z" fill="white"/>
</g>
<defs>
<clipPath id="clip0_3602_978">
<rect width="51" height="53" fill="white" transform="translate(12 12)"/>
</clipPath>
</defs>
</svg>
