<svg width="117" height="62" viewBox="0 0 117 62" fill="none" xmlns="http://www.w3.org/2000/svg">
<path d="M68.1975 32.3951H67.8572C67.7168 32.367 67.5723 32.367 67.4319 32.3951H61.7606H60.7539H58.1026L58.0317 32.2665C58.0317 31.7662 58.0317 31.2516 58.0317 30.737C58.0317 30.2225 58.0317 29.9366 58.0317 29.5507C58.0317 28.6073 58.0317 27.6783 58.0317 26.692C58.0317 26.0774 57.9324 25.4485 58.0317 24.8196C58.1309 24.1907 58.0317 23.3902 58.0317 22.6756C58.0317 21.9609 58.0317 21.4035 58.0317 20.7603C58.0317 20.117 57.9324 19.7454 57.9324 19.2308C57.7637 19.4828 57.6301 19.7569 57.5354 20.0456L57.0675 21.3177C56.8832 21.8894 56.5997 22.4183 56.4154 22.99C56.1034 23.9763 55.6923 24.9053 55.352 25.8487C55.0117 26.7921 54.7565 27.5067 54.4162 28.3358C54.0759 29.1648 53.9058 29.7651 53.6222 30.4655C53.3836 30.9896 53.1799 31.5292 53.0126 32.0806C53.0111 32.1171 53.0019 32.1529 52.9856 32.1855C52.9693 32.2182 52.9463 32.247 52.9181 32.2699C52.89 32.2929 52.8573 32.3096 52.8222 32.3189C52.7872 32.3281 52.7505 32.3297 52.7148 32.3236H45.9234C45.5264 32.3236 45.5264 32.3236 45.6399 31.9377C45.7533 31.5518 45.8667 31.3517 45.9659 31.0515C46.1786 30.4226 46.4622 29.8223 46.6607 29.1934C46.8592 28.5644 47.1711 27.9212 47.3696 27.2495C47.5681 26.5777 47.7524 26.0917 47.9935 25.5342C48.2345 24.9768 48.518 24.0334 48.83 23.2902C49.1419 22.5469 49.3687 21.7894 49.6665 21.0318L50.6306 18.4161C50.9284 17.6014 51.2545 16.7867 51.538 15.9719C51.8216 15.1572 52.0768 14.6141 52.2895 13.928C52.5021 13.2419 52.885 12.4129 53.126 11.6268C53.367 10.8406 53.608 10.3261 53.8491 9.68285C54.0901 9.03965 54.3028 8.46791 54.5154 7.86758C54.8557 6.93851 55.2102 6.00944 55.5505 5.09466C55.7773 4.45145 56.0325 3.82255 56.2452 3.17935C56.5288 2.32174 56.8974 1.50702 57.181 0.663713C57.181 0.506485 57.2944 0.449312 57.4362 0.463606H64.3268C64.7663 0.463606 64.738 0.463596 64.6104 0.878105C64.2985 1.82147 63.8731 2.72196 63.5612 3.73679C63.4194 4.17988 63.2209 4.5944 63.0649 5.03749C62.7105 6.02374 62.2993 6.9814 61.959 7.96765C61.7464 8.59656 61.4912 9.21117 61.236 9.84008C61.2341 9.87341 61.2341 9.9068 61.236 9.94012C61.3919 9.94012 61.4486 9.84009 61.5195 9.75432C61.8314 9.32552 62.1717 8.911 62.512 8.51078C62.8523 8.11057 63.3769 7.4245 63.8306 6.89564C64.2843 6.36679 64.4544 6.12379 64.7805 5.75216C65.1066 5.38054 65.6879 4.62297 66.1984 4.06553L67.2617 2.37892C67.5595 2.02158 67.8572 1.67854 68.1408 1.30691C68.4243 0.935283 68.5519 0.820944 68.7504 0.577956C68.7782 0.528369 68.82 0.488265 68.8705 0.462799C68.9211 0.437333 68.978 0.427656 69.034 0.435013H91.0812C91.5775 0.435013 91.5917 0.435008 91.4215 0.920984L91.2089 1.42126C90.8686 2.13593 90.6701 2.8506 90.3723 3.60815C90.1074 4.22408 89.8755 4.85389 89.6776 5.49487C89.6067 5.75215 89.5784 5.76645 89.2523 5.76645H82.3333C81.9788 5.76645 81.993 5.76647 81.8795 6.09521C81.7661 6.42396 81.5109 7.09575 81.2982 7.52456C81.0855 7.95336 81.0572 8.26781 80.9154 8.63944C80.6602 9.3684 80.3625 10.0688 80.1214 10.812C79.9513 11.3266 79.7103 11.8126 79.5401 12.3414C79.6535 12.4701 79.7953 12.4129 79.9229 12.4129H86.7001C86.7001 12.4987 86.7001 12.5701 86.7001 12.6416C86.4166 13.3705 86.1047 14.0709 85.8636 14.8571C85.6226 15.6432 85.2823 16.1864 85.1122 16.9153C85.0273 17.2186 84.9084 17.5111 84.7577 17.7872C84.6808 17.938 84.6373 18.1038 84.6301 18.2732H77.7253C77.6119 18.2732 77.4701 18.2732 77.3708 18.2732C77.2911 18.426 77.2338 18.5898 77.2007 18.7592C76.8604 19.6597 76.5201 20.5602 76.194 21.4606C76.0381 21.9323 75.8112 22.3611 75.6694 22.89C75.4851 23.5904 75.1449 24.2335 74.9322 24.9339C74.8471 25.2484 74.7053 25.5485 74.6061 25.8487C74.5068 26.1489 74.6061 26.0488 74.7337 26.0488H82.7302C82.8836 26.0082 83.0447 26.0082 83.1981 26.0488L82.3758 28.4358C82.7507 28.4174 83.1198 28.3352 83.4675 28.1928C84.1055 27.9784 84.7577 27.8212 85.4099 27.6497C86.3315 27.3781 87.2531 27.0922 88.1747 26.8778C89.3373 26.6205 90.4432 26.206 91.6059 25.9631C91.8752 25.9631 92.1304 25.8201 92.3856 25.7487C93.1796 25.5343 93.9736 25.2913 94.7676 25.1054C95.5616 24.9196 96.0295 24.7195 96.6533 24.5623L98.936 23.9477C100.17 23.6046 101.417 23.2902 102.651 22.9329L105.189 22.2325L108.365 21.3749L111.555 20.503C112.334 20.2743 113.128 20.0456 113.937 19.8741L114.575 19.674L115.751 19.3595C115.93 19.3311 116.112 19.3311 116.29 19.3595C116.489 19.3595 116.531 19.5453 116.404 19.7025C116.361 19.7688 116.303 19.823 116.234 19.8598C115.927 20.0323 115.609 20.1851 115.284 20.3172C114.858 20.4887 114.433 20.6745 114.022 20.8746C113.611 21.0747 113.199 21.2176 112.802 21.3892C112.008 21.7322 111.2 22.0609 110.42 22.4469L108.45 23.3188L105.472 24.6052C104.749 24.9196 104.054 25.2198 103.303 25.5628C102.551 25.9059 101.573 26.3204 100.708 26.7063C99.8434 27.0922 99.3897 27.3066 98.7233 27.5782C98.057 27.8498 97.6174 28.0785 97.0503 28.2929C96.2563 28.6073 95.5049 29.0219 94.6967 29.322C94.1863 29.5078 93.69 29.7937 93.1796 29.9938L91.9036 30.5369C90.8119 31.0086 89.7343 31.5232 88.6284 31.9663C88.2881 32.0949 87.9762 32.295 87.6359 32.4094C87.2956 32.5237 86.6009 32.9097 86.0621 33.0955C85.8127 33.1794 85.5708 33.2846 85.339 33.4099C84.6727 33.6958 83.9921 33.9817 83.3399 34.2818L81.0714 35.2824C80.1781 35.6969 79.2849 36.0828 78.3775 36.4687L74.6345 38.0982C73.9114 38.3983 73.2166 38.7557 72.4935 39.0272C71.9831 39.1988 71.5152 39.4846 71.0757 39.6704C70.3242 39.9563 69.6579 40.3565 68.8781 40.6138C68.4368 40.7831 68.006 40.9788 67.5878 41.1998C67.2759 41.3571 66.9498 41.4714 66.6521 41.6001C66.3543 41.7287 65.8439 42.0146 65.4186 42.1575C64.6813 42.4148 64.0007 42.7864 63.2776 43.0723C62.7885 43.236 62.3142 43.4417 61.8598 43.6869C61.6886 43.7745 61.5077 43.8416 61.321 43.887C60.9949 44.0013 60.683 44.1729 60.3711 44.3158C59.804 44.5731 59.2226 44.8018 58.6697 45.0591C57.8615 45.4307 57.0534 45.7594 56.2452 46.1168L54.7565 46.7743C53.9767 47.103 53.1969 47.4746 52.4029 47.7891C51.6089 48.1036 50.9 48.5181 50.106 48.7611C49.8418 48.8596 49.5858 48.9791 49.3404 49.1184C48.674 49.4471 47.9226 49.6472 47.2987 50.0188C47.1002 50.1189 46.8875 50.1761 46.7032 50.2619C46.0652 50.5334 45.4413 50.8336 44.8175 51.0909C44.1937 51.3481 43.6265 51.634 43.0169 51.877C42.152 52.2201 41.3297 52.6346 40.4648 52.9633C40.0394 53.1348 39.6283 53.3778 39.2029 53.5208C38.4656 53.778 37.7851 54.164 37.0478 54.4356C36.5658 54.6071 36.112 54.8643 35.63 55.0502C34.8076 55.3789 34.0278 55.7791 33.2055 56.0793C32.766 56.2365 32.3548 56.4509 31.9295 56.6367C31.1638 56.9655 30.4124 57.3371 29.6326 57.6087C28.8528 57.8803 28.3991 58.1375 27.7752 58.3662C27.1514 58.5949 26.3574 58.9665 25.5351 59.2238C24.7127 59.4811 23.9471 59.8241 23.1106 60.0671C22.274 60.3101 21.1965 60.6532 20.2749 60.8676C18.8041 61.2112 17.312 61.4547 15.8088 61.5965C14.973 61.6465 14.135 61.6465 13.2992 61.5965C12.3669 61.5447 11.4414 61.4059 10.5344 61.182C9.61865 60.9861 8.72191 60.7086 7.85474 60.353C6.90255 59.9589 5.98683 59.4806 5.11832 58.9237C4.50686 58.534 3.92831 58.0942 3.38857 57.6087C2.25768 56.6163 1.36968 55.3738 0.79394 53.9781C0.5059 53.2381 0.28755 52.4724 0.141751 51.6912C0.0882559 51.2977 0.055118 50.9018 0.0424926 50.5049C-0.0141642 49.7198 -0.0141642 48.9315 0.0424926 48.1464C0.0987607 47.618 0.183972 47.0931 0.297713 46.5742C0.482031 45.7308 0.666352 44.8732 0.921561 44.0585C1.10588 43.4582 1.31853 42.8579 1.54539 42.2575C1.77224 41.6572 2.04163 41.0426 2.28266 40.428C2.52369 39.8134 3.01994 38.8557 3.3744 38.0553C3.57289 37.5836 3.84228 37.1262 4.08331 36.6259C4.32434 36.1257 4.70715 35.4253 5.07579 34.8536C5.30264 34.5105 5.50114 34.1532 5.69963 33.7958C5.75578 33.688 5.8173 33.583 5.88396 33.4814C6.22424 32.9382 6.55032 32.3951 6.90478 31.8805C7.42937 31.0944 7.93979 30.3083 8.47857 29.5364C9.01734 28.7646 9.31508 28.3215 9.74043 27.7354L11.1583 25.9345C11.4985 25.5057 11.853 25.0769 12.1649 24.6195C12.4768 24.1621 12.7321 23.9191 13.0014 23.5618C13.5119 22.9186 14.0365 22.2897 14.5469 21.6607H14.6461C14.6461 21.8751 14.5043 22.0324 14.4476 22.2039C14.2633 22.647 14.0223 23.0615 13.8663 23.5046C13.7104 23.9477 13.3701 24.7481 13.1574 25.3913C12.9447 26.0345 12.8738 26.2632 12.732 26.7206C12.4726 27.555 12.2643 28.4047 12.1082 29.2648C11.9948 30.0367 11.9239 30.8085 11.8814 31.5947C11.8261 32.5499 11.8736 33.5084 12.0231 34.4533C12.094 34.7964 12.0231 35.1537 12.1649 35.4968C12.3634 36.1114 12.5619 36.726 12.8171 37.3263C13.088 37.9345 13.4106 38.518 13.7812 39.0701C14.7109 40.3303 15.8948 41.3776 17.2549 42.1432C18.0084 42.5534 18.8018 42.8838 19.6227 43.1294C20.462 43.3611 21.3142 43.5425 22.1748 43.6726C23.0014 43.7871 23.8363 43.8301 24.6702 43.8012C25.7274 43.7517 26.7795 43.6227 27.8177 43.4153C28.5267 43.2724 29.2356 43.058 29.9161 42.9008C30.5967 42.7435 31.2347 42.4862 31.9011 42.3433C32.5675 42.2004 33.4465 41.9002 34.2122 41.7144L36.2964 41.157C37.5724 40.7853 38.8485 40.4709 40.1103 40.1135C41.3722 39.7562 42.5915 39.4275 43.825 39.0987C44.8175 38.8271 45.7674 38.5127 46.7599 38.284C47.7524 38.0553 48.3054 37.8123 49.0994 37.6551C49.5105 37.5836 49.9075 37.4407 50.3045 37.3406L52.488 36.7117C53.0693 36.5545 53.6506 36.4544 54.2177 36.2686C55.2102 35.9399 56.231 35.7398 57.2235 35.4396C58.216 35.1394 59.095 34.9679 60.0592 34.682C61.0233 34.3962 62.2852 34.096 63.3911 33.753C64.1425 33.5243 64.9081 33.3385 65.6738 33.1384C66.4394 32.9382 66.9214 32.781 67.5595 32.5952C67.7438 32.5952 67.9423 32.5952 68.1124 32.4808C68.2945 32.4571 68.4716 32.404 68.637 32.3236C68.7221 32.3236 68.8072 32.3236 68.8781 32.3236C68.8404 32.3058 68.7992 32.2965 68.7575 32.2965C68.7159 32.2965 68.6747 32.3058 68.637 32.3236H68.3676L68.1975 32.3951ZM65.5178 30.1796C65.686 29.8936 65.8148 29.5859 65.9006 29.2648C66.1417 28.5645 66.4394 27.8355 66.6804 27.1637C66.9214 26.4919 67.2759 25.7344 67.5169 24.9053C67.758 24.0763 68.0273 23.6618 68.2258 23.0186C68.4243 22.3754 68.8355 21.4892 69.0765 20.6888C69.3176 19.8883 69.6295 19.2594 69.8989 18.5019C70.1683 17.7443 70.5086 16.8867 70.8063 16.0863C70.9906 15.5717 71.2175 15.0715 71.3734 14.5569C71.657 13.6564 72.0398 12.7988 72.3517 11.9126C72.6637 11.0264 73.0748 9.91156 73.4576 8.91102C73.642 8.45363 73.8121 7.98195 73.9822 7.48168C74.2658 6.65266 74.6061 5.82363 74.918 5.0089C75.2299 4.19418 75.4851 3.42233 75.7829 2.63619L76.2366 1.43555C76.2366 1.43555 76.3075 1.30692 76.2366 1.24975C76.1657 1.19257 76.1232 1.24973 76.0806 1.36408C75.8112 1.69282 75.5277 1.99299 75.2441 2.30745C74.7479 2.86489 74.2233 3.37945 73.8263 3.97977L73.6987 4.09412C73.2166 4.55151 72.8054 5.08037 72.3517 5.52346C71.898 5.96656 71.657 6.3096 71.3026 6.68123C70.9481 7.05286 70.4093 7.68177 69.9556 8.11057C69.5019 8.53937 69.0907 9.11111 68.6228 9.53991L68.0132 10.226L66.5954 11.7268C66.1842 12.1699 65.8156 12.6416 65.376 13.0561C65.2464 13.1541 65.1451 13.2853 65.0828 13.4362C65.0204 13.587 64.9993 13.7519 65.0216 13.9137C65.0432 14.1514 65.0432 14.3907 65.0216 14.6284C65.0216 15.5003 65.0216 16.3722 65.0925 17.2441C65.0925 17.873 65.0925 18.5162 65.0925 19.1451C65.0925 19.774 65.0925 20.7602 65.1775 21.5607C65.1775 22.0467 65.1775 22.5183 65.1775 22.99C65.1775 23.4617 65.1775 24.4194 65.1775 25.0626C65.1775 25.4914 65.1775 25.9202 65.1775 26.349V28.1213C65.1775 28.2929 65.1775 28.4644 65.1775 28.6359C65.4327 29.2077 65.5178 29.665 65.5178 30.1081V30.1796Z" fill="black"/>
<path d="M27.3641 18.4018C27.2647 18.5856 27.1793 18.7767 27.1089 18.9736C26.9387 19.5739 26.6552 20.1313 26.4708 20.7317C26.2865 21.332 25.9463 22.161 25.7052 22.8328C25.5634 23.2616 25.3933 23.6618 25.2515 24.0763C24.9913 24.6828 24.7642 25.3031 24.571 25.9345C24.5013 26.1865 24.4063 26.4308 24.2874 26.6634C23.9755 27.3352 23.7912 28.0928 23.5076 28.7646C23.224 29.4364 23.0539 29.9366 22.8554 30.5513C22.7155 30.9597 22.5546 31.3604 22.3733 31.7519C22.3733 31.7519 22.3733 31.8805 22.3024 31.9377C22.2032 32.3093 22.2032 32.3093 21.8487 32.3093H15.0573C14.8305 32.3093 14.8305 32.3093 14.8872 32.0378C15.1282 31.2087 15.4969 30.4226 15.7804 29.6079C16.064 28.7932 16.3476 28.1785 16.5886 27.4496C16.8296 26.7206 17.1983 26.0202 17.4251 25.1912C17.652 24.3622 18.049 23.6189 18.29 22.8185C18.4318 22.404 18.6161 22.0038 18.772 21.5893L19.6511 19.188C19.9488 18.3875 20.2608 17.5871 20.5443 16.7724C20.8279 15.9577 21.2391 15 21.5368 14.0995C21.6644 13.6993 21.8204 13.3134 21.9763 12.9132C22.4159 11.7697 22.827 10.6262 23.2524 9.48275C23.4367 8.98248 23.6777 8.5108 23.8195 8.05341C24.0464 7.19581 24.5001 6.40966 24.7269 5.52347C24.7269 5.35195 24.8687 5.19474 24.9254 5.02321C25.1948 4.25137 25.5209 3.50811 25.7619 2.72197C25.812 2.54699 25.8835 2.37894 25.9746 2.2217C26.2015 1.76431 26.3007 1.26404 26.485 0.792354C26.5054 0.696526 26.56 0.611582 26.6384 0.553622C26.7168 0.495661 26.8136 0.468713 26.9104 0.477897H34.1555C34.4957 0.477897 34.5241 0.477889 34.4958 0.849518C34.4958 1.5356 34.354 2.27887 34.354 2.89349C34.354 3.5081 34.2547 4.13701 34.354 4.76592C34.4532 5.39483 34.354 5.63782 34.2689 6.08091L34.0562 8.83955C34.0562 9.56852 33.9428 10.2689 33.9003 11.0407C33.8577 11.8126 33.7585 12.6988 33.7301 13.5278C33.7584 13.8846 33.7584 14.243 33.7301 14.5998H33.801C33.9428 14.271 34.0988 13.9423 34.2122 13.5993C34.595 12.5987 34.9353 11.5982 35.3181 10.5976C35.5166 10.0688 35.6867 9.52563 35.9278 9.01107C36.1688 8.4965 36.1546 8.25352 36.3247 7.89618C36.6508 7.18151 36.8635 6.46685 37.1471 5.69501C37.3962 5.11171 37.6139 4.51528 37.7993 3.90833C37.9132 3.56303 38.0458 3.22424 38.1963 2.89349C38.4515 2.2217 38.6784 1.54992 38.9336 0.892418V0.763761C38.9336 0.520773 39.1462 0.449304 39.3873 0.449304H45.9943C46.1189 0.409802 46.2526 0.409802 46.3772 0.449304C46.2921 0.677999 46.2354 0.921003 46.1361 1.1354C45.8667 1.77861 45.6682 2.43611 45.413 3.07931C45.1578 3.72251 44.8743 4.50865 44.6332 5.18044C44.3456 5.84566 44.0994 6.52829 43.896 7.22439C43.8318 7.44206 43.7463 7.65274 43.6407 7.8533C43.3288 8.53939 43.1162 9.28265 42.8468 9.95444C42.5959 10.5468 42.3782 11.1528 42.1946 11.7697C42.0812 12.1699 41.8685 12.5272 41.7409 12.9132C41.3864 13.9709 40.961 15 40.5782 16.0434C40.1954 17.0868 39.9969 17.7158 39.6567 18.5305C39.3164 19.3452 39.1462 19.9598 38.8768 20.6602C38.6261 21.2428 38.4084 21.8394 38.2247 22.4469C38.1401 22.6957 38.0407 22.9391 37.9269 23.1758C37.6292 23.8619 37.4307 24.6052 37.1471 25.277C36.7643 26.2489 36.4098 27.2352 36.0554 28.2071C35.7009 29.1791 35.4741 29.7365 35.1905 30.5084L34.6659 31.9377C34.6456 32.0259 34.5941 32.1037 34.521 32.1563C34.4479 32.209 34.3583 32.2329 34.2689 32.2236H26.8537C26.5417 32.2236 26.5559 32.2236 26.5701 31.8805C26.641 31.0658 26.6835 30.2511 26.7402 29.4363C26.7969 28.6216 26.8678 27.8927 26.9104 27.1208C26.9104 26.7778 26.9104 26.4205 26.9104 26.0631C26.986 25.3199 27.0427 24.5623 27.0805 23.7905C27.0805 23.4474 27.0805 23.0901 27.0805 22.747C27.1561 21.9847 27.2128 21.2272 27.2507 20.4744C27.2507 19.8169 27.3357 19.1594 27.3924 18.5019C27.4063 18.4456 27.4063 18.3867 27.3924 18.3304L27.3641 18.4018Z" fill="black"/>
<path d="M55.2386 0.492162C55.1358 0.917396 54.9982 1.33334 54.8274 1.7357C54.6005 2.50755 54.2036 3.16503 54.0192 3.97976C53.9781 4.09657 53.9307 4.21108 53.8774 4.32281C53.4946 5.23759 53.2111 6.18096 52.8424 7.09573C52.4738 8.01051 52.1477 8.911 51.8074 9.82578C51.4671 10.7406 51.141 11.5124 50.8717 12.3843C50.7488 12.7559 50.607 13.1275 50.4463 13.4992C50.1202 14.2567 49.8792 15.0429 49.5814 15.8147C49.1986 16.8438 48.7874 17.873 48.4472 18.9164C48.2912 19.3738 48.0785 19.8169 47.9226 20.3457C47.639 21.089 47.3838 21.7751 47.1002 22.5755C46.8167 23.3759 46.4906 24.1478 46.2212 24.9339C45.9518 25.72 45.5123 26.7063 45.2287 27.6211C45.1 28.0408 44.9437 28.4515 44.7608 28.8503C44.5056 29.4363 44.3638 30.0653 44.1086 30.637C43.9071 31.1031 43.7319 31.5803 43.584 32.0663C43.5635 32.1639 43.5062 32.2497 43.4242 32.3057C43.3423 32.3617 43.242 32.3834 43.1445 32.3665H36.2964C36.0695 32.3665 36.0412 32.3665 36.1262 32.1235C36.4098 31.466 36.6083 30.6942 36.8777 30.0938C37.2605 29.1219 37.615 28.1356 37.9694 27.2352C38.3239 26.3347 38.7776 25.0911 39.1746 24.0191C39.4581 23.2473 39.7275 22.4754 40.0111 21.7179C40.3797 20.7174 40.7625 19.7311 41.1312 18.7306C41.4147 17.9444 41.7266 17.1869 41.996 16.4007C42.2654 15.6146 42.6908 14.5426 43.0452 13.5421C43.3997 12.5415 43.8959 11.2694 44.3071 10.1402C44.7183 9.01104 45.172 7.92475 45.5264 6.78128C45.5973 6.58117 45.6824 6.38106 45.7675 6.18096C46.0794 5.49487 46.2779 4.75161 46.5614 4.07982C46.845 3.40803 47.0577 2.77912 47.2704 2.10733C47.483 1.43553 47.6674 1.16396 47.8091 0.677984C47.8109 0.655431 47.8171 0.633468 47.8274 0.613339C47.8376 0.59321 47.8517 0.575325 47.8689 0.560711C47.886 0.546097 47.9058 0.535026 47.9272 0.528171C47.9486 0.521316 47.9711 0.518798 47.9935 0.520755H54.7849C54.9321 0.477449 55.0871 0.467678 55.2386 0.492162Z" fill="black"/>
<path d="M60.8106 32.3949H61.8173H67.4886C67.629 32.3668 67.7735 32.3668 67.9139 32.3949C67.7555 32.4543 67.5863 32.4787 67.4177 32.4663H61.3069C61.1386 32.4724 60.9705 32.4482 60.8106 32.3949Z" fill="#48704D"/>
<path d="M86.7001 12.4985H79.9229C79.7953 12.4985 79.6536 12.4985 79.5401 12.4271H86.2465C86.4013 12.3947 86.5625 12.4201 86.7001 12.4985Z" fill="#48704D"/>
<path d="M77.3141 18.4302C77.4134 18.3302 77.5552 18.4302 77.6686 18.4302H84.5734C84.4055 18.4919 84.2275 18.521 84.0488 18.516L77.3141 18.4302Z" fill="#48704D"/>
<path d="M68.4531 32.3951C68.2876 32.4755 68.1103 32.5286 67.9281 32.5524L68.1977 32.2949H68.3396L68.4531 32.3951Z" fill="#48704D"/>
<path d="M58.0884 32.1807L58.1594 32.3094C58.138 32.2954 58.1204 32.2764 58.108 32.2539C58.0957 32.2315 58.0889 32.2063 58.0884 32.1807Z" fill="#48704D"/>
<path d="M68.4669 32.3951C68.5046 32.3772 68.5458 32.3679 68.5875 32.3679C68.6292 32.3679 68.6704 32.3772 68.7081 32.3951C68.7081 32.3951 68.552 32.3951 68.4669 32.3951Z" fill="#48704D"/>
</svg>
