<svg width="76" height="76" viewBox="0 0 76 76" fill="none" xmlns="http://www.w3.org/2000/svg">
<rect width="76" height="76" rx="8" fill="#EB143E"/>
<g clip-path="url(#clip0_3602_1002)">
<path d="M52.108 36.9713C52.8821 36.9089 53.6606 36.9232 54.432 37.0141C54.8502 37.1044 55.1733 37.6271 55.5393 37.9644C55.1686 38.335 54.8549 38.9147 54.4225 39.0288C53.6794 39.1348 52.9262 39.1507 52.1793 39.0763C49.7364 47.7954 47.8592 49.6723 39.0384 52.2239C39.1001 52.971 39.0858 53.7224 38.9957 54.4667C38.9054 54.88 38.3826 55.2079 38.0452 55.5738C37.6745 55.2031 37.0946 54.8895 36.9805 54.4571C36.8769 53.714 36.8609 52.9613 36.933 52.2144C28.2026 49.7626 26.3349 47.8952 23.7827 39.0763C23.0355 39.138 22.2838 39.1236 21.5395 39.0335C21.1213 38.9432 20.7981 38.4206 20.4322 38.0832C20.8029 37.7126 21.1165 37.1329 21.5538 37.0189C22.3161 36.9144 23.088 36.8985 23.854 36.9713C25.0801 29.4401 29.4145 25.1257 36.933 23.895C36.8706 23.1242 36.885 22.349 36.9758 21.581C37.0661 21.1628 37.5889 20.8397 37.9263 20.4739C38.297 20.8445 38.8769 21.1581 38.9909 21.5953C39.0954 22.3574 39.1113 23.1292 39.0384 23.895C46.5617 25.1162 50.9008 29.4306 52.108 36.9713ZM49.8553 38.126C49.8796 35.7767 49.2065 33.473 47.9213 31.5062C46.6361 29.5393 44.7965 27.9977 42.6349 27.0761C40.4734 26.1546 38.0871 25.8946 35.7777 26.329C33.4684 26.7633 31.3397 27.8726 29.6609 29.5165C27.9821 31.1604 26.8286 33.2651 26.3462 35.5644C25.8638 37.8638 26.0741 40.2545 26.9507 42.4343C27.8273 44.6141 29.3306 46.4851 31.2707 47.8106C33.2108 49.1362 35.5006 49.8568 37.8503 49.8814C39.415 49.9098 40.9697 49.6264 42.4238 49.0479C43.8779 48.4694 45.2023 47.6072 46.3197 46.5117C47.4371 45.4162 48.3252 44.1093 48.9322 42.6671C49.5392 41.225 49.853 39.6764 49.8553 38.1117V38.126Z" fill="white"/>
<path d="M17.1862 17.2048V28.7606C17.2531 29.5726 17.2387 30.3891 17.1434 31.1982C17.0341 31.6734 16.5731 32.4146 16.1596 32.5001C15.3612 32.6617 15.0095 32.025 15.0142 31.2124C15.0142 28.8129 15.0142 26.4134 15.0142 24.0138C15.0142 21.6143 15.0475 19.21 15.0142 16.8104C15.0142 15.5513 15.4325 15.0048 16.7489 15.0191C21.5015 15.0618 26.254 15.0428 31.0066 15.0191C31.8193 15.0191 32.5369 15.1759 32.5322 16.1262C32.5274 17.0765 31.7812 17.2048 30.9828 17.2001C26.4536 17.2001 21.9292 17.2048 17.1862 17.2048Z" fill="white"/>
<path d="M58.7948 17.2048H45.8204C45.4164 17.2048 44.9411 17.3331 44.6179 17.1668C44.1788 16.878 43.7794 16.533 43.4298 16.1405C43.7921 15.7576 44.1761 15.3959 44.5799 15.0571C44.7225 14.9478 45.0171 15.0571 45.2453 15.0571H59.1037C60.7053 15.0571 60.9572 15.2947 60.962 16.8247C60.962 21.5335 60.962 26.2423 60.962 30.9559C60.962 31.8017 60.8479 32.5952 59.8023 32.5572C58.8518 32.5287 58.7805 31.7399 58.7805 30.9606C58.7805 26.9313 58.7805 22.9004 58.7805 18.8679L58.7948 17.2048Z" fill="white"/>
<path d="M17.1862 58.8285H30.1654C30.566 58.7566 30.9772 58.7696 31.3725 58.8665C31.809 59.1588 32.2053 59.5071 32.5512 59.9024C32.1662 60.2635 31.805 60.6484 31.3963 60.981C31.287 61.0713 31.0446 60.981 30.864 60.981C26.1542 60.981 21.4444 60.9572 16.7346 60.981C15.4229 60.981 14.9904 60.4488 14.9999 59.1849C15.0427 54.4761 14.9999 49.7673 14.9999 45.0585C14.9999 44.2697 15.0808 43.5 16.0313 43.4619C17.0911 43.4144 17.1862 44.227 17.1814 45.068C17.1814 49.0973 17.1814 53.1267 17.1814 57.156L17.1862 58.8285Z" fill="white"/>
<path d="M58.7948 58.8285V45.8282C58.7948 45.4195 58.6665 44.9444 58.8329 44.6213C59.1252 44.1849 59.4735 43.7887 59.8689 43.4429C60.2489 43.8068 60.6075 44.1923 60.943 44.5975C61.0523 44.74 60.943 45.0394 60.943 45.2627C60.943 49.8813 60.943 54.5014 60.943 59.1231C60.943 60.7148 60.7054 60.9667 59.1703 60.9714C54.4558 60.9714 49.746 60.9714 45.0362 60.9714C44.2473 60.9714 43.4774 60.8907 43.4393 59.9403C43.3918 58.8807 44.1998 58.7857 45.041 58.7905C49.0711 58.7905 53.1029 58.7905 57.1362 58.7905L58.7948 58.8285Z" fill="white"/>
<path d="M37.9644 31.3597C39.2819 31.3522 40.572 31.7359 41.6712 32.4623C42.7704 33.1887 43.6291 34.2249 44.1385 35.4398C44.6479 36.6546 44.7851 37.9934 44.5327 39.2863C44.2803 40.5791 43.6496 41.768 42.7206 42.7021C41.7916 43.6363 40.6062 44.2736 39.3145 44.5334C38.0228 44.7932 36.683 44.6637 35.465 44.1613C34.247 43.659 33.2056 42.8064 32.4728 41.7116C31.74 40.6169 31.3488 39.3292 31.3488 38.0119C31.3574 36.2569 32.056 34.5756 33.2937 33.331C34.5314 32.0865 36.209 31.3784 37.9644 31.3597ZM42.4603 38.0119C42.463 37.1288 42.2042 36.2647 41.7164 35.5285C41.2286 34.7923 40.5336 34.217 39.7192 33.8752C38.9048 33.5334 38.0073 33.4403 37.14 33.6078C36.2728 33.7753 35.4746 34.1957 34.846 34.8162C34.2175 35.4367 33.7868 36.2293 33.6083 37.0942C33.4298 37.9591 33.5114 38.8575 33.8429 39.676C34.1744 40.4945 34.741 41.1966 35.4711 41.6937C36.2012 42.1907 37.0621 42.4605 37.9453 42.4689C38.5346 42.4746 39.1192 42.3637 39.6655 42.1427C40.2118 41.9217 40.709 41.595 41.1286 41.1812C41.5482 40.7675 41.8818 40.2749 42.1103 39.7318C42.3389 39.1888 42.4578 38.6059 42.4603 38.0167V38.0119Z" fill="white"/>
</g>
<defs>
<clipPath id="clip0_3602_1002">
<rect width="46" height="46" fill="white" transform="translate(15 15)"/>
</clipPath>
</defs>
</svg>
