<svg width="76" height="76" viewBox="0 0 76 76" fill="none" xmlns="http://www.w3.org/2000/svg">
<rect width="76" height="76" rx="8" fill="#EB143E"/>
<g clip-path="url(#clip0_3602_986)">
<path d="M38.129 16.3933C47.4074 16.5203 54.6779 24.7822 53.7105 34.13C53.3622 37.497 51.9348 40.3342 49.9355 42.9437C48.9896 44.174 48.0222 45.3868 47.1279 46.6521C45.944 48.2426 45.2766 50.1695 45.2189 52.1645C45.2189 52.6942 45.0512 53.1102 44.4493 53.1058C43.8474 53.1014 43.6668 52.668 43.6754 52.0944C43.7184 49.5418 44.6772 47.3351 46.139 45.3299C47.3558 43.6573 48.6886 42.0636 49.8323 40.3473C55.6968 31.5556 50.2235 19.4625 39.8445 18.2103C29.4654 16.9581 21.3135 27.0327 24.6413 37.0022C25.4066 39.2877 26.847 41.1485 28.2616 43.0356C29.3022 44.3842 30.2751 45.7856 31.1766 47.2344C32.0297 48.6981 32.4756 50.3705 32.4665 52.0725C32.4665 52.6286 32.359 53.0927 31.714 53.1058C31.0691 53.1189 30.9229 52.668 30.9143 52.1075C30.8436 50.0614 30.136 48.0911 28.8936 46.4814C27.7112 44.8482 26.4471 43.2764 25.2733 41.6345C18.7767 32.5232 23.618 19.5939 34.4056 16.9581C35.6352 16.6604 36.895 16.5772 38.129 16.3933Z" fill="white"/>
<path d="M44.4536 53.3247C44.324 53.3326 44.1942 53.3134 44.0722 53.2682C43.9501 53.223 43.8385 53.1528 43.7442 53.062C43.5314 52.7869 43.4312 52.4386 43.4647 52.09C43.5034 49.7169 44.3246 47.4665 45.9713 45.1985C46.44 44.5549 46.9344 43.9112 47.4116 43.2895C48.1727 42.3 48.9595 41.2755 49.6603 40.2247C50.974 38.225 51.7622 35.9157 51.9498 33.5173C52.1373 31.119 51.7179 28.7118 50.7316 26.5256C49.7453 24.3394 48.225 22.4472 46.316 21.0297C44.4069 19.6123 42.173 18.7169 39.8273 18.4292C37.4605 18.1324 35.0583 18.4551 32.848 19.3668C30.6377 20.2785 28.6922 21.749 27.1953 23.6395C25.7253 25.4702 24.7382 27.6526 24.3274 29.9801C23.9166 32.3077 24.0957 34.7035 24.8477 36.9409C25.5614 39.0907 26.9244 40.9033 28.24 42.6547L28.4336 42.9086C29.3623 44.1521 30.4371 45.6057 31.3615 47.1293C32.2437 48.6229 32.7076 50.3339 32.703 52.0769C32.703 52.3834 32.703 53.316 31.7399 53.3335C31.6116 53.3424 31.4828 53.3254 31.361 53.2833C31.2393 53.2412 31.1269 53.1749 31.0304 53.0883C30.8087 52.8184 30.6978 52.4718 30.7209 52.1207C30.6552 50.1188 29.9605 48.1912 28.7388 46.6214C28.1842 45.8465 27.5951 45.0759 27.019 44.3272C26.387 43.4953 25.7291 42.6371 25.1143 41.7702C23.589 39.6628 22.6075 37.1992 22.2597 34.6052C21.9119 32.0113 22.2089 29.3699 23.1236 26.9232C24.029 24.4146 25.5299 22.1731 27.4923 20.3985C29.4548 18.6239 31.818 17.3712 34.3712 16.7523C35.2108 16.5633 36.0608 16.4259 36.9165 16.3407C37.3078 16.2926 37.699 16.2444 38.0903 16.1875H38.1247C40.3651 16.2229 42.5738 16.7329 44.6101 17.6849C46.6465 18.637 48.4659 20.0102 49.9527 21.7174C51.4254 23.3985 52.5384 25.3734 53.2209 27.5165C53.9034 29.6595 54.1404 31.9237 53.9168 34.165C53.5944 37.2693 52.3819 40.1065 50.0946 43.0925C49.8495 43.4165 49.5958 43.7361 49.3464 44.0601C48.6585 44.9358 47.9491 45.864 47.2913 46.7966C46.1308 48.3484 45.4781 50.2321 45.4253 52.182C45.421 53.1233 44.8964 53.3247 44.4536 53.3247ZM38.1204 17.8863C38.7052 17.8865 39.2895 17.9216 39.8703 17.9914C42.2894 18.2882 44.5933 19.2117 46.5622 20.6735C48.531 22.1353 50.099 24.0868 51.1163 26.3414C52.1337 28.5961 52.5664 31.0786 52.3732 33.5521C52.18 36.0256 51.3674 38.4073 50.0129 40.4699C49.3035 41.5338 48.508 42.5627 47.7427 43.561C47.2698 44.1783 46.7796 44.8176 46.311 45.4612C44.7202 47.6504 43.9248 49.8395 43.8904 52.0944C43.8593 52.3273 43.9161 52.5636 44.0494 52.7555C44.1047 52.804 44.1689 52.8406 44.2384 52.8632C44.3078 52.8857 44.381 52.8938 44.4536 52.8869C44.776 52.8869 44.991 52.7643 44.9996 52.1601C45.0613 50.1219 45.7418 48.1533 46.9473 46.5251C47.6094 45.5882 48.3232 44.6687 49.0154 43.7755C49.2648 43.4559 49.5142 43.1319 49.7592 42.8079C51.995 39.8919 53.1988 37.116 53.4955 34.1037C53.7105 31.9229 53.4776 29.7203 52.8114 27.6361C52.1452 25.5519 51.0604 23.6317 49.6259 21.9976C48.1798 20.3387 46.4113 19.0035 44.4323 18.0765C42.4533 17.1495 40.3069 16.6509 38.129 16.6122C37.7377 16.6691 37.3508 16.7173 36.9595 16.7654C36.1196 16.8506 35.2855 16.9866 34.4615 17.1726C31.9776 17.775 29.6787 18.9936 27.7695 20.7201C25.8603 22.4466 24.4001 24.6272 23.5192 27.0677C22.6275 29.4483 22.3374 32.0189 22.6754 34.5435C23.0135 37.0681 23.9689 39.4657 25.454 41.5163C26.0645 42.392 26.718 43.2326 27.3501 44.0601C27.9176 44.8132 28.5066 45.5882 29.0699 46.3631C30.3428 48.0076 31.0659 50.0235 31.1336 52.1163C31.1087 52.3521 31.1733 52.5886 31.3142 52.7774C31.4265 52.8702 31.5701 52.9142 31.714 52.9C32.0623 52.9 32.2644 52.7599 32.2558 52.0856C32.2552 50.4208 31.8093 48.7876 30.9659 47.3614C30.0501 45.8552 28.9881 44.4148 28.0594 43.1801L27.8703 42.9261C26.5331 41.1441 25.1487 39.3052 24.4307 37.0854C23.6558 34.7779 23.4713 32.3074 23.8949 29.9072C24.3185 27.507 25.336 25.2564 26.8513 23.368C28.2063 21.6528 29.9225 20.2697 31.8731 19.3209C33.8236 18.372 35.9587 17.8818 38.1204 17.8863Z" fill="white"/>
<path d="M30.2135 32.497C30.4328 31.757 30.0243 31.3367 29.5342 30.8989C27.6725 29.2438 27.6854 29.2307 28.9108 27.0634C30.0674 25.01 30.1017 24.9268 32.3074 25.7849C33.3823 26.2228 34.096 25.7543 34.8011 25.1939C35.0806 24.9706 35.1322 24.4101 35.2311 23.9854C35.6997 21.6956 35.6911 21.6956 37.9527 21.6956C40.4722 21.6956 40.4722 21.6956 40.9882 24.165C41.2891 25.5835 42.3855 26.2403 43.7313 25.7849C46.1777 24.9618 46.0831 24.9443 47.36 27.2167C48.4779 29.2088 48.5252 29.2351 46.8398 30.6975C46.1218 31.3192 45.7435 31.9759 45.9455 32.8866C46.0151 33.2497 46.1716 33.5896 46.4013 33.8761C46.7905 34.2898 47.2055 34.6773 47.6438 35.0364C47.9051 35.2335 48.0814 35.5258 48.1359 35.8522C48.1904 36.1786 48.1188 36.5138 47.9362 36.7878C47.512 37.5583 47.0749 38.3231 46.6248 39.082C46.4887 39.3677 46.2494 39.5888 45.9569 39.699C45.6644 39.8091 45.3414 39.7999 45.0555 39.6731C44.5739 39.5023 44.0666 39.3885 43.6023 39.1827C43.0519 38.9331 42.6177 39.0951 42.0974 39.3316C41.2977 39.6862 41.0784 40.3036 40.9366 41.0829C40.5066 43.3334 40.5066 43.3159 38.2666 43.3378C35.5579 43.364 35.6868 43.3115 35.1795 40.8202C35.1394 40.5162 35.0314 40.2255 34.8639 39.9705C34.6965 39.7155 34.4738 39.5029 34.2132 39.3491C33.9525 39.1952 33.6608 39.1042 33.3603 39.083C33.0597 39.0617 32.7584 39.1108 32.4794 39.2265L31.5292 39.533C30.2694 39.9445 29.9942 39.8395 29.3493 38.7055C29.0139 38.1232 28.67 37.5408 28.3432 36.9541C27.8574 36.0785 27.9133 35.6406 28.6313 34.9576C28.9323 34.673 29.2246 34.3797 29.5471 34.1213C30.063 33.7098 30.4715 33.2413 30.2135 32.497ZM29.6847 36.1529C29.8265 36.4156 29.9426 36.6433 30.0673 36.8666C30.7896 38.1407 30.7897 38.1407 32.187 37.6722C32.6482 37.5176 33.1363 37.4642 33.6192 37.5154C34.1021 37.5667 34.5689 37.7215 34.9888 37.9697C35.4087 38.2178 35.7724 38.5537 36.0557 38.9552C36.339 39.3567 36.5357 39.8147 36.6327 40.2992C36.9251 41.7703 36.9251 41.7265 38.3998 41.7878C39.1178 41.8185 39.3544 41.5295 39.3973 40.8815C39.4833 39.4542 40.1755 38.526 41.4611 37.878C42.321 37.4401 43.0605 37.2869 43.929 37.659C44.2543 37.8082 44.5966 37.9156 44.948 37.9787C45.0571 37.9932 45.1679 37.9831 45.2727 37.9491C45.3775 37.915 45.4736 37.8578 45.5543 37.7816C45.8982 37.2781 46.1777 36.7221 46.4958 36.1616C45.4682 35.1021 44.2644 34.3753 44.2644 32.532C44.2644 30.6887 45.4941 29.9312 46.4916 28.9023C46.2981 28.5521 46.1476 28.2806 45.9928 28.0267C45.2318 26.7131 45.593 26.8007 44.2257 27.3305C43.0863 27.7683 42.0759 27.7202 41.1386 26.9627C41.0167 26.8666 40.8839 26.7858 40.7431 26.7219C40.4243 26.5832 40.1483 26.3595 39.944 26.0744C39.7397 25.7893 39.6147 25.4533 39.5822 25.1019C39.4833 24.4977 39.3242 23.9066 39.1909 23.2893H38.4858C36.9423 23.2893 36.9767 23.2893 36.6069 24.8305C36.5084 25.432 36.236 25.99 35.8244 26.4329C34.5732 27.475 33.1673 28.1142 31.5249 27.1729C31.3969 27.088 31.2477 27.0424 31.0949 27.0415C30.9098 27.0449 30.733 27.1201 30.6005 27.2517C30.2608 27.7902 29.9684 28.355 29.646 28.933C30.7682 29.9619 31.8602 30.7631 31.8774 32.5758C31.8946 34.3884 30.6521 35.1021 29.6847 36.1529Z" fill="white"/>
<path d="M37.7334 43.574C35.5837 43.574 35.4461 43.3507 35.0204 41.2097L34.9559 40.877C34.9132 40.6082 34.8143 40.3518 34.6659 40.1252C34.5176 39.8986 34.3232 39.7071 34.096 39.5635C33.8561 39.4334 33.5919 39.3565 33.3207 39.3376C33.0496 39.3187 32.7775 39.3584 32.5224 39.454L31.5722 39.7605C30.2222 40.1983 29.8524 40.0495 29.1387 38.8323L28.8033 38.2456C28.574 37.8603 28.3504 37.4706 28.1326 37.0766C27.6037 36.1221 27.7026 35.5485 28.4637 34.8129L28.64 34.6466C28.8807 34.4189 29.1258 34.1825 29.3881 33.9679C29.9169 33.5301 30.2049 33.1579 30.0029 32.5669V32.5012V32.4355C30.1835 31.8269 29.8739 31.4985 29.3881 31.0651C27.4533 29.34 27.436 29.2262 28.713 26.9626L28.7388 26.9188C29.9255 24.8172 30.0674 24.6814 32.3805 25.5834C33.3651 25.9643 33.9972 25.5527 34.6636 25.0229C34.8415 24.7653 34.9443 24.4618 34.9602 24.1473C34.9602 24.0685 34.986 23.994 35.0032 23.9196C35.4934 21.5246 35.5751 21.4546 37.9355 21.4546C40.554 21.4546 40.6442 21.5246 41.1817 24.0816C41.2244 24.3618 41.3256 24.6295 41.4784 24.8666C41.6312 25.1038 41.832 25.3048 42.0674 25.4564C42.3101 25.5843 42.5768 25.6578 42.8497 25.6722C43.1226 25.6865 43.3953 25.6413 43.6496 25.5396L43.7743 25.4958C46.1218 24.7033 46.225 24.7427 47.4246 26.8794L47.5708 27.1421C48.6757 29.1123 48.7188 29.3006 46.9603 30.8243C46.2207 31.4679 45.9757 32.0633 46.139 32.8208C46.203 33.1414 46.3416 33.4417 46.5432 33.6965C46.81 33.9943 47.0974 34.2723 47.4031 34.5284L47.76 34.8392C48.0589 35.0689 48.2605 35.4062 48.3236 35.7821C48.3867 36.1579 48.3066 36.5442 48.0996 36.862C47.6697 37.6239 47.2397 38.3988 46.784 39.1563C46.6239 39.4864 46.3458 39.7416 46.0068 39.8694C45.6677 39.9972 45.2935 39.988 44.961 39.8437C44.7804 39.778 44.5998 39.7255 44.4149 39.6685C44.1009 39.5804 43.7923 39.4737 43.4905 39.3489C43.0262 39.1344 42.6607 39.2701 42.1577 39.4934C41.4783 39.7999 41.2633 40.3078 41.1215 41.0871C40.6915 43.4077 40.5926 43.4996 38.301 43.5215H37.7206L37.7334 43.574ZM33.2361 38.898C33.6175 38.8943 33.9929 38.9941 34.3239 39.1869C34.6013 39.3635 34.8386 39.5981 35.0202 39.8751C35.2018 40.1521 35.3235 40.4652 35.3773 40.7938L35.4418 41.1222C35.8459 43.1581 35.846 43.1537 38.2537 43.1362H38.3096C40.3347 43.1362 40.3347 43.1362 40.713 41.0609C40.8377 40.356 41.057 39.5678 42.0029 39.1475C42.5704 38.8936 43.0563 38.7097 43.6797 38.9987C43.9603 39.1165 44.2474 39.2174 44.5396 39.3008C44.7288 39.3577 44.918 39.4146 45.1071 39.4803C45.225 39.5361 45.3526 39.5675 45.4826 39.5728C45.6125 39.5781 45.7421 39.5572 45.8641 39.5112C45.986 39.4652 46.0978 39.395 46.1929 39.3048C46.2881 39.2146 46.3648 39.1061 46.4185 38.9855C46.8485 38.2281 47.3042 37.4619 47.7084 36.6956C47.8663 36.4652 47.9287 36.1806 47.882 35.9036C47.8354 35.6266 47.6834 35.3794 47.459 35.2158L47.1064 34.9137C46.781 34.646 46.4763 34.3532 46.1949 34.038C45.9433 33.7229 45.7706 33.3503 45.6919 32.9521C45.4941 32.0283 45.7908 31.284 46.655 30.5309C48.1856 29.2174 48.1856 29.2174 47.1709 27.4004L47.0248 27.1377C45.9671 25.2462 45.9671 25.2462 43.8861 25.9512L43.7571 25.9906C43.446 26.1139 43.1124 26.1672 42.7791 26.1468C42.4459 26.1264 42.1209 26.0327 41.8266 25.8723C41.5387 25.6912 41.2924 25.4494 41.104 25.1632C40.9156 24.8769 40.7896 24.5529 40.7345 24.2129C40.253 21.9099 40.2702 21.9099 37.9097 21.9143C35.8287 21.9143 35.8288 21.9143 35.4031 24.0072C35.4031 24.0991 35.3687 24.1735 35.3558 24.2524C35.3346 24.6655 35.1736 25.0585 34.9 25.3645C34.1863 25.938 33.3909 26.4547 32.2042 25.9906C30.1748 25.2025 30.1791 25.2025 29.0871 27.1333L28.8764 27.072L29.0613 27.1815C27.9219 29.1999 27.9219 29.1999 29.646 30.7323C30.076 31.1045 30.6306 31.608 30.4114 32.4837C30.665 33.3243 30.162 33.876 29.6374 34.3007C29.388 34.5065 29.1473 34.7385 28.9108 34.9574L28.7345 35.1238C28.0982 35.728 28.0509 36.0652 28.4894 36.8533C28.7044 37.2429 28.9194 37.6282 29.1516 38.0179L29.4913 38.6046C30.0889 39.651 30.2523 39.7123 31.4217 39.3314L32.3676 39.0293C32.6479 38.9367 32.9415 38.8923 33.2361 38.898ZM38.4945 42.0022H38.2537C36.8091 41.9409 36.7231 41.8621 36.4221 40.3428C36.3308 39.889 36.1463 39.46 35.8807 39.084C35.615 38.708 35.2743 38.3935 34.8808 38.1611C34.4874 37.9287 34.0501 37.7837 33.5976 37.7356C33.1452 37.6876 32.6879 37.7375 32.2558 37.8822C30.7639 38.3813 30.6521 38.3419 29.8825 36.9802L29.6245 36.4986L29.4224 36.1221L29.5299 36.0082C29.7363 35.7806 29.9599 35.5704 30.1749 35.3602C30.9531 34.6203 31.6883 33.9241 31.6797 32.5669C31.6797 31.0169 30.8198 30.2507 29.8309 29.3619L29.401 28.9635L29.4869 28.8146L29.7406 28.3461C29.9728 27.9083 30.1964 27.5142 30.4457 27.1202C30.5283 27.0271 30.6282 26.9517 30.7397 26.8983C30.8512 26.845 30.9719 26.8147 31.095 26.8093C31.2948 26.801 31.4922 26.8578 31.6582 26.9713C32.9481 27.72 34.1992 27.4967 35.6954 26.2489C36.0745 25.8384 36.3232 25.3212 36.4092 24.7646L36.435 24.6464C36.8005 23.1184 36.9036 23.0527 38.4945 23.0571H39.3544L39.3931 23.2278C39.4318 23.4205 39.479 23.6087 39.522 23.797C39.6166 24.2086 39.7155 24.6289 39.7843 25.0536C39.8117 25.3698 39.923 25.6725 40.1063 25.9293C40.2895 26.1862 40.5379 26.3874 40.8248 26.5116C40.9779 26.5814 41.1223 26.6696 41.2548 26.7743C42.1147 27.4486 42.9746 27.5536 44.1311 27.1114L44.5611 26.945C45.3522 26.621 45.4769 26.6254 45.8811 27.3829C45.9542 27.523 46.0487 27.6981 46.1734 27.9083C46.2981 28.1184 46.3798 28.2673 46.4959 28.4731L46.7539 28.9416L46.6378 29.0598C46.4572 29.2481 46.268 29.4276 46.0788 29.6027C45.2533 30.3821 44.4751 31.1132 44.4751 32.5362C44.4751 33.9592 45.2189 34.6466 46.0745 35.4566C46.2637 35.6361 46.4572 35.8156 46.6464 36.0126L46.7624 36.1308L46.6808 36.2753C46.5905 36.4286 46.5045 36.5862 46.4228 36.7394C46.1949 37.1466 45.9929 37.5363 45.7263 37.9128C45.6228 38.0215 45.4959 38.1042 45.3556 38.1544C45.2153 38.2045 45.0655 38.2208 44.918 38.2018C44.5471 38.1364 44.1859 38.0231 43.8431 37.8647C43.1251 37.5582 42.4586 37.6195 41.5514 38.0792C40.2873 38.7141 39.6898 39.5854 39.6081 40.8989C39.5651 41.6563 39.2168 42.0022 38.5117 42.0022H38.4945ZM33.262 37.278C34.1045 37.2751 34.9219 37.5698 35.575 38.1119C36.2281 38.654 36.6763 39.4099 36.8434 40.2509C37.0928 41.5075 37.0928 41.5075 38.2709 41.5644H38.4085C38.9717 41.5906 39.148 41.433 39.1824 40.8638C39.2727 39.3927 39.9649 38.3813 41.3666 37.6764C41.7613 37.4359 42.2048 37.2907 42.6632 37.252C43.1216 37.2133 43.5826 37.2821 44.0108 37.4531C44.3202 37.593 44.645 37.6944 44.9782 37.7552C45.1196 37.7705 45.2615 37.7331 45.378 37.6501C45.6188 37.2955 45.808 36.9146 46.0488 36.5161L46.2293 36.1921L45.7994 35.7543C44.9394 34.9531 44.0795 34.1212 44.0795 32.5143C44.0795 30.9075 44.9652 30.0668 45.7994 29.2612C45.9455 29.1255 46.0874 28.9854 46.2293 28.8453L46.1347 28.6701C46.0186 28.4643 45.9198 28.2848 45.8166 28.1097C45.7134 27.9345 45.593 27.7156 45.5156 27.5712C45.2705 27.1114 45.2705 27.1333 44.7331 27.3347L44.3031 27.5055C43.0133 28.0002 41.9771 27.8733 41.0097 27.1027C40.9006 27.019 40.7822 26.9484 40.6571 26.8925C40.3054 26.7386 40.0005 26.492 39.7737 26.1779C39.547 25.8639 39.4066 25.4939 39.3673 25.1061C39.2985 24.6989 39.2039 24.3005 39.1093 23.8802C39.0749 23.7488 39.0448 23.6131 39.0147 23.4774H38.4773C37.1444 23.4774 37.1444 23.4774 36.8391 24.734L36.8134 24.8478C36.7097 25.4999 36.4091 26.1028 35.9535 26.5729C34.9216 27.4267 33.335 28.4381 31.4303 27.3347C31.3406 27.2699 31.2348 27.232 31.125 27.2253C31.005 27.2304 30.8888 27.2699 30.7897 27.3391C30.5446 27.7244 30.3296 28.1184 30.1018 28.5388C30.0459 28.6438 29.9857 28.7489 29.9298 28.8584L30.1061 29.016C31.1207 29.9355 32.0838 30.798 32.101 32.545C32.101 34.0949 31.2756 34.8918 30.4629 35.6667C30.2867 35.8287 30.1104 35.9995 29.9427 36.1746L29.9943 36.2753C30.0803 36.4373 30.162 36.5906 30.248 36.7438C30.88 37.8647 30.88 37.8647 32.1097 37.4487C32.4826 37.3308 32.8715 37.2732 33.262 37.278Z" fill="white"/>
<path d="M38.1032 56.9763C36.114 56.9763 34.1233 56.9763 32.1312 56.9763C31.8791 57.0086 31.6233 56.9645 31.3959 56.8493C31.2776 56.7643 31.1781 56.6549 31.104 56.5282C31.03 56.4014 30.9829 56.2602 30.9659 56.1138C30.9659 55.8773 31.2755 55.6322 31.4991 55.457C31.6195 55.3651 31.8474 55.4089 32.0237 55.4089C36.0366 55.4089 40.0495 55.4089 44.0624 55.4089H44.3676C44.47 55.3938 44.5744 55.4013 44.6738 55.4309C44.7731 55.4605 44.8649 55.5115 44.9432 55.5804C45.0215 55.6494 45.0843 55.7346 45.1274 55.8304C45.1705 55.9262 45.193 56.0303 45.1931 56.1357C45.2189 56.683 44.8707 56.9413 44.3762 56.9675C43.7915 56.9938 43.2025 56.9675 42.6134 56.9675L38.1032 56.9763Z" fill="white"/>
<path d="M43.5636 57.1996H36.5725C35.0892 57.1996 33.6102 57.1996 32.1268 57.1996H32.0623C31.7819 57.2313 31.4989 57.1715 31.254 57.0289C31.1093 56.921 30.9899 56.7818 30.9044 56.6213C30.8189 56.4608 30.7695 56.283 30.7596 56.1007C30.7897 55.7854 31.0907 55.514 31.3787 55.2863C31.5391 55.1895 31.7286 55.1553 31.9119 55.19H32.0323C35.4719 55.19 38.9115 55.19 42.3512 55.19H44.3762C44.5059 55.1759 44.637 55.1897 44.7612 55.2302C44.8854 55.2707 45 55.3372 45.0975 55.4254C45.195 55.5136 45.2734 55.6215 45.3277 55.7423C45.3819 55.8631 45.4108 55.9941 45.4124 56.1269C45.4233 56.2574 45.4088 56.3888 45.3697 56.5135C45.3306 56.6382 45.2677 56.7539 45.1845 56.8537C45.0802 56.9601 44.9562 57.0443 44.8196 57.1015C44.6831 57.1586 44.5367 57.1875 44.3891 57.1865C44.1011 57.1953 43.8388 57.1996 43.5636 57.1996ZM38.1032 56.7618H43.1078C43.5378 56.7618 43.9678 56.7618 44.3719 56.7618C44.5561 56.7643 44.7344 56.6954 44.8707 56.5692C44.9159 56.5127 44.9494 56.4475 44.9693 56.3776C44.9893 56.3076 44.9952 56.2343 44.9868 56.162C44.9868 56.035 44.961 55.6453 44.3762 55.6409H42.3554C38.9158 55.6409 35.4761 55.6409 32.0365 55.6409H31.8904C31.8078 55.6271 31.7236 55.6271 31.641 55.6409C31.3572 55.8642 31.211 56.035 31.211 56.1445C31.2492 56.3608 31.3658 56.5546 31.5378 56.6874C31.7108 56.7584 31.8983 56.7855 32.0839 56.7662H32.1398C33.6188 56.7662 35.1021 56.7662 36.5812 56.7662L38.1032 56.7618Z" fill="white"/>
<path d="M38.0559 60.7723C37.0369 60.7723 36.0136 60.7723 34.9903 60.7723C34.4486 60.7723 34.0573 60.5621 34.0616 59.9885C34.0659 59.415 34.4571 59.196 34.9946 59.196H41.1214C41.6804 59.196 42.1232 59.4062 42.0974 60.0279C42.0716 60.6497 41.6675 60.7854 41.1214 60.7766C40.0981 60.7766 39.0791 60.7766 38.0559 60.7766V60.7723Z" fill="white"/>
<path d="M41.1559 60.9999H41.1172C40.3992 60.9999 39.6811 60.9999 38.9674 60.9999H37.1573C36.4392 60.9999 35.7169 60.9999 35.0075 60.9999C34.6824 61.0254 34.3608 60.9183 34.1132 60.7022C34.0251 60.6092 33.9569 60.4984 33.9133 60.377C33.8696 60.2557 33.8513 60.1263 33.8596 59.9973C33.8596 59.3624 34.2895 58.9859 35.0032 58.9859H41.1343C41.3063 58.9717 41.4794 58.9935 41.6428 59.05C41.8062 59.1064 41.9566 59.1964 42.0846 59.3143C42.1724 59.4124 42.2392 59.5281 42.2807 59.654C42.3221 59.7799 42.3373 59.9132 42.3253 60.0455C42.2952 60.4176 42.1276 60.9999 41.1559 60.9999ZM39.866 60.5621C40.2959 60.5621 40.7044 60.5621 41.1257 60.5621C41.775 60.5621 41.8739 60.2775 41.8825 60.0236C41.8907 59.9503 41.8842 59.876 41.8636 59.8053C41.8429 59.7345 41.8084 59.6688 41.7621 59.612C41.5794 59.4691 41.351 59.4004 41.1214 59.4194H34.9903C34.2766 59.4194 34.2766 59.8572 34.2766 59.9929C34.2688 60.0642 34.2762 60.1364 34.2985 60.2044C34.3208 60.2724 34.3573 60.3347 34.4056 60.387C34.5744 60.5128 34.7817 60.5733 34.9903 60.5577C35.7127 60.5577 36.435 60.5577 37.1401 60.5577H39.8488L39.866 60.5621Z" fill="white"/>
<path d="M21.6962 14.9966C21.9417 15.1192 22.175 15.2658 22.3927 15.4344C23.2526 16.2707 24.0652 17.1201 24.895 17.9695C25.2562 18.3416 25.4368 18.7663 25.024 19.1998C24.6113 19.6333 24.1985 19.4931 23.8201 19.1079C22.9602 18.2322 22.1004 17.4047 21.2834 16.5027C21.0933 16.22 21.0192 15.8727 21.077 15.5351C21.1114 15.3206 21.4597 15.1892 21.6962 14.9966Z" fill="white"/>
<path d="M24.4952 19.699C24.3375 19.6885 24.1833 19.6463 24.0417 19.575C23.9 19.5036 23.7735 19.4044 23.6696 19.2831L22.9688 18.5782C22.354 17.9652 21.7177 17.3303 21.1244 16.6692C21.0072 16.505 20.9239 16.3183 20.8795 16.1204C20.8352 15.9224 20.8307 15.7174 20.8663 15.5177C20.905 15.2856 21.1244 15.1412 21.335 15.0054C21.4143 14.958 21.4903 14.9053 21.5629 14.8478L21.679 14.7559L21.808 14.8303C21.8983 14.8872 21.9842 14.9354 22.0659 14.9792C22.2388 15.0609 22.3994 15.167 22.5432 15.2944C23.2526 15.9949 23.9491 16.7086 24.6456 17.4223L25.0455 17.8338C25.7507 18.5519 25.4325 19.1036 25.1788 19.3707C25.0936 19.4698 24.9894 19.5501 24.8725 19.6065C24.7557 19.663 24.6287 19.6945 24.4995 19.699H24.4952ZM21.7091 15.2813L21.5672 15.3732C21.4631 15.4305 21.3687 15.5044 21.2877 15.5921C21.2411 15.8625 21.2964 16.1408 21.4425 16.3715C22.0273 17.0238 22.6593 17.6543 23.2698 18.2673C23.5063 18.4994 23.7385 18.7358 23.9706 18.9722C24.1024 19.1338 24.2903 19.2373 24.4952 19.2612C24.5675 19.2565 24.6381 19.2365 24.7025 19.2026C24.7669 19.1687 24.8236 19.1215 24.8692 19.0642C25.0584 18.8671 25.1917 18.6044 24.7402 18.1403L24.3404 17.7288C23.6439 17.0195 22.9517 16.3102 22.2465 15.6096C22.1301 15.5111 22.0015 15.4287 21.8639 15.3645L21.7091 15.2813Z" fill="white"/>
<path d="M38.8427 11.0167C38.8427 11.6121 38.8427 12.212 38.8427 12.8074C38.8427 13.3153 38.6191 13.6831 38.086 13.6831C37.5529 13.6831 37.3078 13.3284 37.2949 12.8074C37.2734 11.5596 37.2648 10.3161 37.2949 9.0683C37.2949 8.59106 37.5055 8.19263 38.0559 8.19263C38.6062 8.19263 38.8384 8.58668 38.8427 9.12084V10.9904V11.0167Z" fill="white"/>
<path d="M38.0817 13.9152C37.8313 13.9241 37.5875 13.833 37.4024 13.6612C37.301 13.5528 37.2219 13.425 37.1695 13.2852C37.1171 13.1454 37.0924 12.9964 37.0971 12.8468C37.0756 11.4852 37.0713 10.2592 37.0971 9.10334C37.0971 8.41156 37.4711 8 38.0731 8C38.4471 8 39.0706 8.14886 39.0749 9.14713V10.8021V11.0167V11.5596C39.0749 11.9755 39.0749 12.3959 39.0749 12.8118C39.0935 12.9508 39.0824 13.0922 39.0423 13.2264C39.0022 13.3605 38.934 13.4843 38.8425 13.5891C38.751 13.6939 38.6383 13.7773 38.5122 13.8336C38.3861 13.8899 38.2494 13.9177 38.1117 13.9152H38.0817ZM38.0817 8.43784C37.9484 8.43784 37.5442 8.43784 37.5356 9.10772C37.5356 10.2636 37.5356 11.4808 37.5356 12.8381C37.5296 13.0239 37.5926 13.2052 37.7119 13.346C37.7658 13.3937 37.8287 13.43 37.8966 13.4526C37.9646 13.4751 38.0363 13.4836 38.1075 13.4773C38.3397 13.4773 38.6449 13.3941 38.6492 12.8031C38.6492 12.3915 38.6492 11.9756 38.6492 11.564V11.0167V9.15151C38.6105 8.5254 38.3268 8.43784 38.043 8.43784H38.0817Z" fill="white"/>
<path d="M55.2282 49.2529C55.0691 49.4368 54.9273 49.7302 54.708 49.8177C54.5835 49.8647 54.4499 49.8816 54.3179 49.8671C54.1858 49.8527 54.0589 49.8073 53.947 49.7345C52.9753 48.8107 52.0294 47.865 51.1394 46.8623C51.0673 46.712 51.0342 46.5453 51.0432 46.3783C51.0522 46.2112 51.1031 46.0493 51.191 45.9079C51.3189 45.808 51.4699 45.7431 51.6294 45.7194C51.7889 45.6956 51.9518 45.7138 52.1025 45.7721C53.1214 46.7179 54.076 47.7293 55.0348 48.7363C55.1337 48.8326 55.1465 49.034 55.2282 49.2529Z" fill="white"/>
<path d="M54.4199 50.0892C54.2025 50.0999 53.9886 50.0299 53.818 49.8921C52.67 48.7975 51.7757 47.8825 51.0018 47.0068C50.8925 46.8163 50.8393 46.5978 50.8484 46.3774C50.8576 46.1569 50.9287 45.9438 51.0534 45.7633C51.2529 45.5873 51.5075 45.4895 51.7714 45.4875C51.8584 45.4721 51.9475 45.475 52.0333 45.4961C52.1191 45.5172 52.1997 45.556 52.2702 45.6101C53.1645 46.442 54.0201 47.3352 54.8499 48.2021L55.211 48.583C55.3026 48.693 55.3635 48.8261 55.3873 48.9683C55.4045 49.0296 55.426 49.0996 55.4518 49.1785L55.4948 49.2967L55.4132 49.3974C55.3702 49.4455 55.3271 49.5068 55.2841 49.5637C55.17 49.752 55.0061 49.9038 54.8112 50.0016C54.6871 50.0546 54.5545 50.0843 54.4199 50.0892ZM51.866 45.9166C51.6932 45.9129 51.523 45.96 51.3759 46.0523C51.3232 46.153 51.2911 46.2634 51.2815 46.3771C51.2719 46.4907 51.285 46.6051 51.32 46.7134C52.0896 47.5891 52.9753 48.4867 54.1147 49.5769C54.2825 49.6596 54.4754 49.6722 54.6521 49.6119C54.7467 49.5769 54.8456 49.4324 54.9359 49.3098C54.9617 49.2748 54.9832 49.2398 55.009 49.2091L54.9746 49.0865C54.9617 49.0176 54.9385 48.9512 54.9058 48.8895L54.5403 48.5086C53.7148 47.6329 52.8635 46.7572 51.9606 45.9341C51.922 45.9204 51.8811 45.9145 51.8402 45.9166H51.866Z" fill="white"/>
<path d="M16.928 33.2718H15.0921C14.5976 33.2718 14.2322 33.0704 14.2322 32.5187C14.2222 32.4067 14.237 32.2939 14.2757 32.1885C14.3144 32.0832 14.3759 31.9881 14.4556 31.9103C14.5353 31.8325 14.6312 31.7739 14.7362 31.739C14.8412 31.7041 14.9525 31.6938 15.062 31.7087C16.3088 31.7087 17.5557 31.6868 18.8069 31.7087C18.9168 31.6979 19.0277 31.7125 19.1313 31.7513C19.2349 31.7902 19.3286 31.8523 19.4054 31.933C19.4823 32.0138 19.5402 32.1111 19.5751 32.2178C19.6099 32.3245 19.6207 32.4378 19.6066 32.5494C19.5808 33.0616 19.2454 33.263 18.7811 33.2674C18.149 33.2718 17.5385 33.2718 16.928 33.2718Z" fill="white"/>
<path d="M18.02 33.4953H15.0921C14.1634 33.4953 14.0086 32.8867 14 32.5276C13.9922 32.3947 14.0107 32.2615 14.0543 32.1359C14.0978 32.0104 14.1656 31.8949 14.2536 31.7964C14.3575 31.694 14.481 31.6143 14.6163 31.5624C14.7516 31.5104 14.896 31.4872 15.0405 31.4943C16.0681 31.4943 17.4224 31.4681 18.794 31.4943C18.9355 31.4911 19.0762 31.517 19.2077 31.5704C19.3392 31.6238 19.4588 31.7037 19.5593 31.8052C19.648 31.9082 19.7154 32.0284 19.7575 32.1585C19.7996 32.2887 19.8156 32.4261 19.8044 32.5627C19.8036 32.6958 19.7751 32.8272 19.7208 32.9483C19.6664 33.0694 19.5874 33.1773 19.4891 33.265C19.3908 33.3528 19.2753 33.4183 19.1503 33.4572C19.0253 33.4961 18.8935 33.5076 18.7639 33.4909L18.02 33.4953ZM16.928 33.0574H18.7596C19.2841 33.0574 19.3615 32.7816 19.3744 32.5495C19.3833 32.4715 19.3764 32.3924 19.3543 32.3171C19.3321 32.2418 19.295 32.1719 19.2454 32.1117C19.1196 31.9962 18.9547 31.935 18.7854 31.9409C17.4224 31.9147 16.0681 31.9409 15.0448 31.9409C14.8678 31.9301 14.6936 31.9898 14.5589 32.1073C14.5087 32.1671 14.4712 32.2369 14.449 32.3123C14.4268 32.3877 14.4203 32.467 14.4299 32.5451C14.4299 32.7903 14.516 33.0793 15.0964 33.0837H16.928V33.0574Z" fill="white"/>
<path d="M51.5693 19.5108C51.3802 19.3488 51.0878 19.2131 50.9975 18.9898C50.9495 18.863 50.9311 18.7266 50.9438 18.5913C50.9565 18.456 50.9999 18.3256 51.0706 18.2104C51.9907 17.2034 52.9366 16.2139 53.9384 15.29C54.0725 15.1842 54.2386 15.1292 54.4082 15.1344C54.5778 15.1396 54.7403 15.2047 54.8679 15.3186C54.9955 15.4325 55.0802 15.5881 55.1075 15.7586C55.1348 15.9291 55.103 16.104 55.0176 16.2533C54.076 17.3085 53.0699 18.3024 52.0681 19.3181C51.9692 19.4057 51.7929 19.4232 51.5693 19.5108Z" fill="white"/>
<path d="M51.5307 19.7602L51.4318 19.677C51.3802 19.6332 51.32 19.5938 51.2598 19.55C51.0629 19.44 50.9016 19.2742 50.7954 19.0728C50.7332 18.9072 50.7113 18.7287 50.7315 18.5526C50.7517 18.3764 50.8135 18.2079 50.9115 18.0614C51.9993 16.8748 52.9151 15.9422 53.7922 15.1279C53.9768 15.0143 54.1894 14.9568 54.405 14.9623C54.6206 14.9677 54.8301 15.0358 55.009 15.1585C55.1897 15.3647 55.2905 15.6308 55.2927 15.9072C55.3192 16.0799 55.2775 16.2562 55.1766 16.3976C54.3468 17.3302 53.4568 18.2277 52.5969 19.0947L52.2272 19.4581C52.1208 19.5531 51.9918 19.618 51.8531 19.6463L51.6553 19.712L51.5307 19.7602ZM54.3383 15.3818C54.2491 15.3736 54.1595 15.3919 54.0802 15.4344C53.2203 16.24 52.3045 17.1638 51.2297 18.3416C51.1876 18.4256 51.1629 18.5175 51.157 18.6116C51.151 18.7057 51.1641 18.8001 51.1953 18.8889C51.234 18.9852 51.3715 19.0772 51.5005 19.1691L51.608 19.2479L51.7241 19.2085C51.7922 19.1926 51.8575 19.166 51.9176 19.1297L52.2874 18.7619C53.1473 17.8862 54.0373 17.0106 54.8671 16.0867C54.8959 15.8733 54.8503 15.6564 54.7381 15.4738C54.6149 15.4093 54.4758 15.3834 54.3383 15.3993V15.3818Z" fill="white"/>
<path d="M25.282 46.3413C25.1622 46.6 25.0182 46.8463 24.852 47.0768C24.0523 47.9175 23.2268 48.7362 22.4185 49.5681C22.0444 49.9491 21.6231 50.1023 21.2146 49.6863C20.8062 49.2704 20.9395 48.8457 21.3221 48.4604C22.1562 47.6154 22.9645 46.7441 23.8287 45.9341C23.9494 45.8388 24.088 45.7699 24.2359 45.7314C24.3838 45.693 24.5379 45.686 24.6886 45.7108C24.9079 45.759 25.067 46.1005 25.282 46.3413Z" fill="white"/>
<path d="M21.7091 50.1548C21.455 50.1345 21.2164 50.0223 21.0365 49.8384C20.8567 49.6544 20.7475 49.411 20.7288 49.1521C20.7405 48.9883 20.7846 48.8286 20.8585 48.6827C20.9324 48.5367 21.0345 48.4074 21.1587 48.3027L21.9627 47.4796C22.5131 46.9148 23.0806 46.3281 23.6826 45.7764C23.8303 45.6548 24.0019 45.5668 24.1858 45.5185C24.3698 45.4702 24.5618 45.4626 24.7488 45.4962C24.9768 45.5827 25.1672 45.7487 25.2863 45.9647C25.3422 46.0435 25.4024 46.1223 25.4626 46.1924L25.5744 46.3149L25.4883 46.455C25.4238 46.5601 25.3723 46.6565 25.325 46.7484C25.2392 46.9219 25.1323 47.0837 25.0068 47.23C24.4823 47.7773 23.9534 48.3159 23.4203 48.8544L22.5604 49.7301C22.4559 49.8558 22.328 49.9592 22.1841 50.0343C22.0402 50.1095 21.8832 50.1549 21.7219 50.1679L21.7091 50.1548ZM24.5081 45.9078C24.3079 45.9068 24.113 45.973 23.9534 46.096C23.373 46.6389 22.8054 47.2256 22.2594 47.7905C21.9885 48.0663 21.7219 48.3421 21.4511 48.6136C21.2889 48.7479 21.1842 48.9409 21.1587 49.1521C21.1631 49.2243 21.1818 49.2948 21.2135 49.3595C21.2453 49.4242 21.2895 49.4818 21.3436 49.5287C21.3888 49.5836 21.4446 49.6286 21.5074 49.661C21.5702 49.6933 21.6388 49.7124 21.7091 49.7169C21.9191 49.689 22.1102 49.5791 22.2422 49.4104L23.1021 48.5348C23.6353 48.0006 24.1627 47.4606 24.6843 46.9148C24.7841 46.7968 24.868 46.6657 24.9337 46.5251L25.0283 46.3544L24.9294 46.2186C24.8348 46.0917 24.7187 45.9296 24.6413 45.9121C24.5973 45.9052 24.5525 45.9037 24.5081 45.9078Z" fill="white"/>
<path d="M59.1494 33.3025H57.4296C56.9309 33.3025 56.5697 33.0879 56.5697 32.545C56.5607 32.4335 56.5761 32.3213 56.6148 32.2166C56.6535 32.1118 56.7146 32.0171 56.7935 31.9392C56.8724 31.8613 56.9674 31.8023 57.0714 31.7662C57.1754 31.7301 57.286 31.718 57.3952 31.7307C58.5934 31.7132 59.7901 31.7132 60.9853 31.7307C61.4755 31.7307 61.8452 31.989 61.8452 32.5319C61.8452 33.0748 61.4755 33.2937 60.9853 33.3025C60.3404 33.3112 59.7514 33.3025 59.1494 33.3025Z" fill="white"/>
<path d="M60.2372 33.5258H57.4296C56.7503 33.5258 56.3504 33.1712 56.3332 32.5582C56.3224 32.4264 56.3386 32.2937 56.3808 32.1686C56.4229 32.0435 56.4902 31.9286 56.5783 31.8314C56.6833 31.7272 56.8078 31.6455 56.9445 31.5914C57.0812 31.5372 57.2271 31.5116 57.3737 31.5161C58.5561 31.5161 59.7642 31.5161 60.9681 31.5161C61.1057 31.5028 61.2445 31.5197 61.375 31.5658C61.5056 31.6119 61.6249 31.686 61.7248 31.7832C61.8247 31.8804 61.9029 31.9984 61.9541 32.1291C62.0053 32.2598 62.0283 32.4001 62.0215 32.5407C62.0215 33.1537 61.6217 33.5127 60.9423 33.5258H60.2372ZM59.1666 33.088H60.9208C61.5013 33.088 61.5701 32.7684 61.5744 32.5319C61.5744 32.1554 61.3637 31.9584 60.9423 31.954C59.7471 31.954 58.5432 31.954 57.3608 31.954C57.1816 31.9472 57.0064 32.0098 56.8707 32.1291C56.8231 32.1861 56.7874 32.2524 56.766 32.3239C56.7446 32.3955 56.7378 32.4707 56.746 32.5451C56.746 32.7771 56.8277 33.0836 57.4124 33.088H59.1666Z" fill="white"/>
<path d="M38.1204 36.63C37.0724 36.6478 36.0587 36.2495 35.2942 35.5194C34.5296 34.7893 34.0742 33.7847 34.0245 32.7186C33.9747 31.6524 34.3345 30.6084 35.0276 29.8078C35.7208 29.0071 36.6928 28.5127 37.7377 28.4293C38.2794 28.3768 38.7567 28.4906 38.8212 29.1211C38.8857 29.7516 38.4772 29.9398 37.914 29.9967C37.2858 30.0346 36.6954 30.3153 36.2638 30.7817C35.8321 31.248 35.5916 31.8647 35.5916 32.5055C35.5916 33.1464 35.8321 33.7631 36.2638 34.2294C36.6954 34.6957 37.2858 34.9765 37.914 35.0143C39.264 35.1063 40.3217 34.2043 40.5324 32.7201C40.6141 32.1334 40.7818 31.6561 41.4482 31.7568C42.1146 31.8576 42.1447 32.4136 42.0717 32.9696C41.9612 33.9641 41.4995 34.8837 40.7726 35.5571C40.0456 36.2306 39.1029 36.6119 38.1204 36.63Z" fill="white"/>
<path d="M38.0817 36.8491C36.9809 36.8575 35.9198 36.4304 35.1222 35.6578C34.3245 34.8852 33.8525 33.8274 33.8057 32.7074C33.7589 31.5874 34.1408 30.4926 34.8711 29.6537C35.6014 28.8149 36.623 28.2975 37.7206 28.2106C38.7181 28.123 38.9889 28.6484 39.0362 29.0863C39.1394 30.067 38.2365 30.1765 37.9398 30.2159C37.3675 30.2519 36.8302 30.5089 36.4374 30.9343C36.0447 31.3598 35.826 31.9218 35.826 32.5057C35.826 33.0897 36.0447 33.6517 36.4374 34.0771C36.8302 34.5026 37.3675 34.7596 37.9398 34.7956C39.191 34.8876 40.1326 34.0557 40.3261 32.6896C40.3383 32.3118 40.4922 31.953 40.756 31.687C40.8608 31.615 40.9788 31.5651 41.1028 31.5403C41.2269 31.5154 41.3546 31.5162 41.4784 31.5425C42.45 31.6914 42.3383 32.6415 42.2781 33.0005C42.16 34.0463 41.672 35.0124 40.9052 35.7183C40.1384 36.4242 39.1454 36.8215 38.1118 36.8359H38.0688L38.0817 36.8491ZM37.957 28.6353H37.7592C36.7764 28.7177 35.8629 29.1843 35.2103 29.9372C34.5576 30.6902 34.2164 31.6711 34.2581 32.6745C34.2998 33.6779 34.7211 34.6259 35.4339 35.32C36.1466 36.0141 37.0955 36.4005 38.0817 36.3981H38.1204C39.0502 36.384 39.9432 36.0256 40.6324 35.3898C41.3216 34.754 41.7599 33.8845 41.8653 32.9436C41.9513 32.2825 41.8395 32.0373 41.4354 31.976C41.3681 31.9585 41.298 31.9549 41.2293 31.9654C41.1606 31.976 41.0947 32.0004 41.0355 32.0373C40.8661 32.236 40.7689 32.4879 40.7603 32.7509C40.5367 34.3403 39.3974 35.3342 37.9183 35.2335C37.2406 35.1855 36.606 34.8775 36.1425 34.3717C35.6791 33.8658 35.4213 33.1998 35.4213 32.5079C35.4213 31.8161 35.6791 31.1501 36.1425 30.6442C36.606 30.1383 37.2406 29.8304 37.9183 29.7824C38.5719 29.6992 38.6751 29.4847 38.6407 29.1344C38.5805 28.8936 38.4772 28.6353 37.957 28.6353Z" fill="white"/>
</g>
<defs>
<clipPath id="clip0_3602_986">
<rect width="48" height="53" fill="white" transform="translate(14 8)"/>
</clipPath>
</defs>
</svg>
