<svg width="76" height="76" viewBox="0 0 76 76" fill="none" xmlns="http://www.w3.org/2000/svg">
<rect width="76" height="76" rx="8" fill="#EB143E"/>
<path d="M58.584 28.4784C58.4349 27.9624 58.1147 27.5109 57.6748 27.1965C57.2349 26.882 56.7008 26.7228 56.1583 26.7444H20.5418C20.048 26.7868 19.579 26.9767 19.1969 27.2887C18.8148 27.6008 18.5378 28.0204 18.4026 28.4917C18.3008 28.8514 18.2858 29.2297 18.3591 29.5961C18.4323 29.9625 18.5917 30.3068 18.8242 30.6013C19.0568 30.8957 19.356 31.132 19.6979 31.2911C20.0398 31.4502 20.4147 31.5277 20.7925 31.5174C24.3416 31.5174 27.8863 31.5174 31.4309 31.5174H32.0485V40.1433C32.0351 40.3023 32.0351 40.4621 32.0485 40.6211C32.0643 40.8092 32.1515 40.9844 32.2927 41.1116C32.4338 41.2388 32.6184 41.3085 32.8093 41.3067C33.0096 41.3227 33.2082 41.2603 33.3623 41.1328C33.5163 41.0054 33.6135 40.8232 33.6328 40.6255C33.6475 40.4784 33.6475 40.3302 33.6328 40.1831V31.0441C33.6328 30.1594 33.3867 29.9293 32.4737 29.9293H21.1774C20.9987 29.9449 20.819 29.9449 20.6403 29.9293C20.4507 29.9011 20.2776 29.8065 20.1525 29.6629C20.0274 29.5192 19.9586 29.3359 19.9586 29.1464C19.9586 28.9568 20.0274 28.7736 20.1525 28.6299C20.2776 28.4862 20.4507 28.3917 20.6403 28.3634C20.8012 28.3501 20.9629 28.3501 21.1237 28.3634H55.8808C56.0601 28.3507 56.2402 28.3581 56.4178 28.3855C56.5982 28.4214 56.7605 28.5179 56.877 28.6586C56.9936 28.7993 57.0573 28.9756 57.0573 29.1574C57.0573 29.3393 56.9936 29.5155 56.877 29.6562C56.7605 29.797 56.5982 29.8935 56.4178 29.9293C56.2404 29.9582 56.0603 29.9671 55.8808 29.9559H44.6919C43.5507 29.9559 43.3851 30.124 43.3851 31.2387V58.8019C43.3851 59.8591 42.9375 60.4474 42.1319 60.4386C41.3263 60.4298 40.928 59.868 40.928 58.824V43.983C40.928 43.1558 40.6639 42.8904 39.8449 42.8904H37.2133C36.3181 42.8904 36.0944 43.1292 36.0944 43.983V55.2454C36.0944 55.7319 36.0944 56.2185 36.0944 56.7051C36.0944 57.4748 36.0944 58.2445 36.072 59.0142C36.0569 59.3795 35.9322 59.7321 35.714 60.0272C35.5634 60.2198 35.3492 60.3541 35.1088 60.4066C34.8683 60.4592 34.6169 60.4266 34.3982 60.3147C34.1479 60.213 33.9376 60.0339 33.7989 59.8043C33.6601 59.5747 33.6003 59.3068 33.6283 59.0408V56.6874C33.6283 52.4998 33.6283 48.3092 33.6283 44.1157C33.6441 43.9391 33.6441 43.7615 33.6283 43.5849C33.5998 43.3974 33.5041 43.2263 33.3587 43.1027C33.2134 42.9791 33.028 42.9111 32.8362 42.9111C32.6444 42.9111 32.459 42.9791 32.3136 43.1027C32.1683 43.2263 32.0726 43.3974 32.044 43.5849C32.0283 43.76 32.0283 43.9361 32.044 44.1113C32.044 48.4493 32.044 52.7873 32.044 57.1254C32.044 57.6739 32.044 58.2268 32.0709 58.7798L32.0977 59.7928C32.2345 60.424 32.5881 60.9891 33.0985 61.3919C33.6089 61.7948 34.2447 62.0106 34.8978 62.0028C35.5509 61.995 36.1812 61.764 36.6816 61.3491C37.182 60.9341 37.5217 60.3608 37.6429 59.7264L37.6832 59.0054C37.6832 58.594 37.719 58.1826 37.719 57.7712C37.719 53.5777 37.719 49.3856 37.719 45.195V44.5271H39.3302V45.1773C39.3302 49.6009 39.3302 54.0244 39.3302 58.448C39.3302 58.6913 39.3302 58.9346 39.3571 59.1779C39.3571 59.3239 39.357 59.4743 39.3884 59.6202C39.3944 59.6843 39.4049 59.7478 39.4197 59.8105C39.5536 60.4157 39.8868 60.96 40.3671 61.358C40.8474 61.7561 41.4477 61.9855 42.074 62.0103C42.7003 62.035 43.3173 61.8538 43.8283 61.495C44.3393 61.1361 44.7154 60.6199 44.8978 60.0272C44.8978 59.7751 44.9426 59.5273 44.9605 59.2885C44.9605 59.1469 44.9604 59.0142 44.9873 58.8771C44.9873 58.7444 44.9873 58.6161 44.9873 58.4878C44.9873 49.7439 44.9873 41 44.9873 32.2561V31.5572H45.7079C49.1988 31.5572 52.6897 31.5572 56.1806 31.5572C56.5662 31.5744 56.9502 31.4996 57.3003 31.3392C57.6504 31.1787 57.9563 30.9373 58.192 30.6353C58.4277 30.3333 58.5865 29.9796 58.6547 29.6042C58.7229 29.2288 58.6987 28.8426 58.584 28.4784Z" fill="white"/>
<path d="M67 49.8356C66.9105 50.1541 66.8299 50.477 66.727 50.7911C66.3992 51.8681 65.7389 52.8169 64.8384 53.5046C63.938 54.1923 62.8425 54.5845 61.7054 54.6263C58.7023 54.7015 55.6948 54.7148 52.6917 54.6263C49.899 54.5334 47.5806 52.0164 47.5627 49.2517C47.565 49.0076 47.6313 48.7684 47.7552 48.5572C50.6613 43.9154 53.5734 39.2766 56.4914 34.6407C56.939 33.9152 57.6148 33.9374 58.0847 34.6805C60.9401 39.2309 63.7985 43.7798 66.6599 48.3272C66.7583 48.4864 66.8881 48.6324 67 48.7695V49.8356ZM49.2858 49.9329C49.2926 50.0147 49.3045 50.0959 49.3216 50.1762C49.8318 51.9456 51.3848 53.0692 53.4525 53.0781C55.9946 53.0781 58.5367 53.0781 61.0609 53.0781C61.6505 53.0827 62.2364 52.9869 62.793 52.795C63.4202 52.5705 63.9784 52.1901 64.4135 51.6903C64.8486 51.1905 65.146 50.5883 65.2769 49.9418L49.2858 49.9329ZM56.4466 48.2652V37.7504L49.8363 48.2652H56.4466ZM64.7354 48.2652L58.1966 37.8743L58.1116 37.9141V48.2652H64.7354Z" fill="white"/>
<path d="M19.7298 54.6352C18.2082 54.6352 16.6865 54.7015 15.1693 54.6352C13.7911 54.5303 12.5015 53.9233 11.5505 52.9318C10.5995 51.9404 10.0549 50.6352 10.0224 49.2694C10.0244 49.009 10.097 48.7539 10.2327 48.5307C13.1269 43.9036 16.03 39.278 18.9421 34.654C19.3897 33.9152 20.0655 33.9196 20.5355 34.654C23.4356 39.281 26.3536 43.8992 29.2314 48.5351C29.4178 48.9091 29.479 49.3321 29.406 49.7427C28.9584 52.7375 26.7206 54.6307 23.5878 54.675C22.2988 54.6971 21.0098 54.675 19.7209 54.675L19.7298 54.6352ZM27.7142 49.9373H11.7365C11.7589 50.0524 11.7634 50.1231 11.7813 50.1851C12.3004 51.9545 13.8132 53.0471 15.8093 53.0781C17.1832 53.0781 18.5662 53.0781 19.9447 53.0781C21.3231 53.0781 22.8448 53.1046 24.2904 53.0161C25.1187 52.9377 25.8987 52.5948 26.5124 52.0393C27.1261 51.4839 27.5401 50.746 27.6919 49.9373H27.7142ZM12.2915 48.2608H18.8929V37.7593L12.2915 48.2608ZM27.1816 48.2608L20.5802 37.7637V48.2652L27.1816 48.2608Z" fill="white"/>
<path d="M44.128 19.6312C44.1153 20.7357 43.7705 21.8115 43.1375 22.7219C42.5045 23.6322 41.6119 24.336 40.5732 24.7437C39.5345 25.1513 38.3966 25.2445 37.3042 25.0113C36.2118 24.7781 35.2142 24.2291 34.4383 23.4341C33.6624 22.6391 33.1432 21.634 32.9467 20.5466C32.7502 19.4592 32.8854 18.3386 33.3349 17.3273C33.7845 16.316 34.5281 15.4597 35.4714 14.8672C36.4146 14.2747 37.5148 13.9728 38.632 14C40.1128 14.0371 41.5194 14.6485 42.5478 15.7022C43.5762 16.7559 44.1438 18.1672 44.128 19.6312ZM42.5168 19.5781C42.5168 18.7907 42.2806 18.0209 41.838 17.3662C41.3954 16.7115 40.7663 16.2013 40.0303 15.8999C39.2943 15.5986 38.4844 15.5198 37.703 15.6734C36.9217 15.827 36.2039 16.2062 35.6406 16.7629C35.0773 17.3197 34.6936 18.0291 34.5382 18.8014C34.3828 19.5737 34.4626 20.3742 34.7675 21.1016C35.0723 21.8291 35.5886 22.4509 36.251 22.8883C36.9134 23.3258 37.6922 23.5593 38.4888 23.5593C39.0178 23.5593 39.5416 23.4563 40.0303 23.2562C40.519 23.0562 40.963 22.7629 41.337 22.3932C41.7111 22.0235 42.0078 21.5846 42.2102 21.1016C42.4126 20.6186 42.5168 20.1009 42.5168 19.5781Z" fill="white"/>
</svg>
