<svg width="76" height="76" viewBox="0 0 76 76" fill="none" xmlns="http://www.w3.org/2000/svg">
<rect width="76" height="76" rx="8" fill="#EB143E"/>
<g clip-path="url(#clip0_3602_994)">
<path d="M28.554 27.1242C25.5035 21.2337 28.108 15.5706 31.6759 13.02C33.6761 11.5835 36.1067 10.8725 38.5658 11.0046C41.025 11.1367 43.3653 12.104 45.2 13.7465C47.0347 15.389 48.2538 17.6084 48.6557 20.0377C49.0576 22.4669 48.6182 24.9606 47.4103 27.1063L48.0347 27.4229C51.6026 29.1263 55.1705 30.8267 58.7384 32.5242C59.1666 32.7164 59.5061 33.0637 59.6883 33.4963C61.3652 37.1527 63.0495 40.8077 64.7413 44.4612C65.1873 45.4333 65.0714 45.7544 64.0902 46.2226C62.7255 46.8825 61.3608 47.5603 59.9827 48.1802C59.8529 48.2237 59.7426 48.3113 59.6708 48.4279C59.5991 48.5444 59.5706 48.6824 59.5902 48.8178C59.5902 50.5435 59.5902 52.2692 59.5902 53.9948C59.6102 54.2372 59.551 54.4795 59.4215 54.6853C59.292 54.8911 59.0993 55.0494 58.8722 55.1364C52.0962 58.3707 45.3246 61.611 38.5575 64.8573C38.3763 64.9537 38.1741 65.0041 37.9688 65.0041C37.7635 65.0041 37.5613 64.9537 37.3801 64.8573C30.6487 61.611 23.9009 58.3826 17.1368 55.1721C16.9006 55.0844 16.6995 54.9219 16.5643 54.7094C16.429 54.4969 16.3669 54.2459 16.3875 53.9948C16.3875 52.3227 16.3875 50.655 16.3875 48.9873C16.4113 48.7987 16.3675 48.6079 16.2637 48.4487C16.16 48.2895 16.0032 48.1722 15.8211 48.1177C14.4386 47.489 13.0783 46.8157 11.7136 46.1602C10.942 45.7856 10.8216 45.4155 11.1695 44.6262C12.8954 40.885 14.6125 37.1394 16.3652 33.4115C16.565 33.0416 16.8774 32.7448 17.2572 32.5643C20.776 30.8475 24.3082 29.1709 27.8404 27.4854L28.554 27.1242ZM13.0872 44.7912L32.1665 53.9146L36.8271 43.8459L17.7522 34.7181L13.0872 44.7912ZM43.8603 53.919L62.9396 44.7912C61.3697 41.3934 59.8177 38.0713 58.2924 34.7225L39.2131 43.8503L43.8603 53.919ZM42.5223 35.3067C42.5223 36.1717 42.5223 36.9565 42.5223 37.7413C42.5223 38.6332 42.219 38.9141 41.336 38.9185H34.731C33.781 38.9185 33.5 38.6332 33.5 37.6745V35.2977H31.7161V33.5141H33.4019C33.2316 32.3942 32.6496 31.3781 31.7696 30.6647C31.1313 30.1444 30.5223 29.5891 29.9455 29.0015C29.8997 28.9351 29.8411 28.8786 29.7729 28.8355C29.7048 28.7924 29.6287 28.7635 29.5491 28.7506C29.4695 28.7377 29.3881 28.741 29.3099 28.7604C29.2316 28.7797 29.1581 28.8147 29.0937 28.8632C26.7567 30.0003 24.4019 31.0928 22.056 32.2388C21.1997 32.6446 20.3479 33.0548 19.4068 33.5096C19.6566 33.6434 19.8127 33.737 19.9732 33.8173C25.8335 36.6176 31.6923 39.4224 37.5496 42.2317C37.6953 42.3076 37.8584 42.3443 38.0226 42.338C38.1868 42.3318 38.3466 42.2828 38.4861 42.196C44.0937 39.5205 49.6997 36.8376 55.3043 34.1473C55.7012 33.96 56.0892 33.7593 56.5753 33.5141L46.4648 28.6759C45.5728 29.4607 44.7121 30.1831 43.887 30.9412C43.1372 31.6143 42.661 32.5395 42.549 33.5408H44.2438V35.3245L42.5223 35.3067ZM40.7384 33.4963C41.0015 31.4451 42.112 30.0137 43.664 28.7785C45.0829 27.6486 46.1214 26.1111 46.6397 24.373C47.158 22.635 47.1312 20.7799 46.5629 19.0576C46.1309 17.7193 45.3912 16.5008 44.4031 15.5C43.415 14.4991 42.2061 13.7438 40.8732 13.2945C39.5404 12.8453 38.1208 12.7146 36.7283 12.913C35.3358 13.1114 34.0093 13.6333 32.855 14.4369C31.7007 15.2406 30.7509 16.3035 30.0817 17.5405C29.4126 18.7774 29.0427 20.154 29.0018 21.5597C28.9609 22.9654 29.2501 24.3611 29.8461 25.6349C30.4422 26.9087 31.3286 28.025 32.4341 28.8944C32.9808 29.3178 33.4856 29.7927 33.9415 30.3124C34.6804 31.222 35.1445 32.3234 35.2795 33.4873H35.8905C35.8548 33.3134 35.8281 33.1707 35.7879 33.0414L33.6472 25.1844C33.3974 24.2703 33.4465 24.1187 34.1868 23.5613L37.3087 21.2381C37.8796 20.7922 38.1561 20.7922 38.7225 21.2381C39.8063 22.0408 40.8766 22.8657 41.9648 23.6594C42.1863 23.7983 42.3522 24.0104 42.4337 24.2588C42.5152 24.5073 42.5071 24.7764 42.4108 25.0195C41.6839 27.5968 40.9926 30.1831 40.2879 32.765C40.221 33.0058 40.172 33.251 40.1095 33.523L40.7384 33.4963ZM38.9276 62.6678C39.1283 62.5787 39.3023 62.5118 39.4673 62.4315L44.8192 59.8631C49.0114 57.8594 53.1992 55.8558 57.3825 53.8522C57.5431 53.7719 57.7706 53.5935 57.7706 53.4553C57.8018 52.0774 57.7706 50.6996 57.7706 49.2548C57.4717 49.393 57.2354 49.4956 57.0035 49.6071L44.0298 55.8053C43.1958 56.2021 42.8211 56.0683 42.4287 55.2256C41.3583 52.9157 40.2894 50.6044 39.222 48.2916C39.1417 48.1177 39.0481 47.9483 38.8964 47.6451L38.9276 62.6678ZM18.1982 49.2325C18.1982 50.5702 18.1982 51.8411 18.1982 53.0941C18.1737 53.2647 18.2098 53.4385 18.3002 53.5851C18.3907 53.7318 18.5298 53.8421 18.6933 53.8968C24.6962 56.7506 30.6933 59.6133 36.6844 62.485C36.8123 62.5428 36.9433 62.5934 37.0768 62.6366V47.6495C36.9252 47.9483 36.8449 48.0954 36.7691 48.2738C35.7076 50.5717 34.6477 52.8667 33.5892 55.1587C33.1432 56.0906 32.8043 56.2155 31.8677 55.7696L24.219 52.1042L18.1982 49.2325ZM38 22.9237C37.2062 23.5212 36.4212 24.0964 35.6586 24.7073C35.6052 24.7673 35.5659 24.8385 35.5435 24.9157C35.5211 24.9928 35.5162 25.074 35.5292 25.1532C36.2398 27.8287 36.9638 30.5042 37.7012 33.1797C37.7369 33.3045 37.893 33.3982 37.9955 33.5096C38.0981 33.4026 38.2632 33.3134 38.2988 33.1886C39.0362 30.5131 39.7602 27.8376 40.4708 25.1622C40.4856 25.0836 40.4825 25.0026 40.4616 24.9254C40.4408 24.8482 40.4028 24.7767 40.3504 24.7162C39.5877 24.1143 38.8028 23.539 38 22.937V22.9237ZM40.6759 35.329H35.3241V37.068H40.6759V35.329Z" fill="white"/>
<path d="M44.8771 19.7532L43.2002 20.2615C42.9641 19.5165 42.5729 18.8297 42.0526 18.2464C41.5322 17.6631 40.8944 17.1965 40.1809 16.8771C39.4738 16.5587 38.7059 16.3978 37.9304 16.4055C37.155 16.4132 36.3904 16.5893 35.6898 16.9217L34.945 15.3699C38.0402 13.555 43.4143 14.982 44.8771 19.7532Z" fill="white"/>
<path d="M44.9484 23.8734L43.218 23.3607L43.4455 21.8401H45.2294L44.9484 23.8734Z" fill="white"/>
</g>
<defs>
<clipPath id="clip0_3602_994">
<rect width="54" height="54" fill="white" transform="translate(11 11)"/>
</clipPath>
</defs>
</svg>
