<svg width="293" height="214" viewBox="0 0 293 214" fill="none" xmlns="http://www.w3.org/2000/svg">
<path d="M146.5 129C182.122 129 211 100.122 211 64.5C211 28.8776 182.122 0 146.5 0C110.878 0 82 28.8776 82 64.5C82 100.122 110.878 129 146.5 129Z" fill="#EB143E"/>
<path d="M130.753 88.3403L111.023 68.5936C109.727 67.2968 109 65.5383 109 63.7048C109 61.8713 109.727 60.1129 111.023 58.8161C112.318 57.5199 114.075 56.7918 115.907 56.7918C117.739 56.7918 119.496 57.5199 120.792 58.8161L137.079 75.1368L172.16 40.0269C172.802 39.3843 173.564 38.8746 174.402 38.5268C175.241 38.179 176.14 38 177.048 38C177.955 38 178.854 38.179 179.693 38.5268C180.531 38.8746 181.293 39.3843 181.935 40.0269C182.577 40.6692 183.086 41.4317 183.434 42.271C183.781 43.1103 183.96 44.0099 183.96 44.9184C183.96 45.8269 183.781 46.7265 183.434 47.5658C183.086 48.405 182.577 49.1676 181.935 49.8098L143.404 88.3722C141.719 90.0403 139.442 90.9732 137.072 90.9672C134.702 90.9613 132.43 90.0169 130.753 88.3403Z" fill="white"/>
<path d="M67.968 181C67.7333 181 67.5413 180.925 67.392 180.776C67.2427 180.627 67.168 180.435 67.168 180.2V163.624H61.472C61.2373 163.624 61.0453 163.549 60.896 163.4C60.7467 163.229 60.672 163.037 60.672 162.824V159.4C60.672 159.165 60.7467 158.973 60.896 158.824C61.0453 158.675 61.2373 158.6 61.472 158.6H78.688C78.9227 158.6 79.1147 158.675 79.264 158.824C79.4133 158.973 79.488 159.165 79.488 159.4V162.824C79.488 163.037 79.4133 163.229 79.264 163.4C79.1147 163.549 78.9227 163.624 78.688 163.624H72.992V180.2C72.992 180.435 72.9173 180.627 72.768 180.776C72.6187 180.925 72.4267 181 72.192 181H67.968ZM82.313 181C82.0783 181 81.8863 180.925 81.737 180.776C81.5877 180.627 81.513 180.435 81.513 180.2V159.08C81.513 158.845 81.5877 158.653 81.737 158.504C81.8863 158.355 82.0783 158.28 82.313 158.28H86.409C86.6437 158.28 86.8357 158.355 86.985 158.504C87.1343 158.653 87.209 158.845 87.209 159.08V166.216C87.785 165.555 88.489 165.032 89.321 164.648C90.1743 164.243 91.1557 164.04 92.265 164.04C93.5023 164.04 94.601 164.317 95.561 164.872C96.5423 165.427 97.3103 166.248 97.865 167.336C98.4197 168.403 98.697 169.715 98.697 171.272V180.2C98.697 180.435 98.6223 180.627 98.473 180.776C98.3237 180.925 98.1317 181 97.897 181H93.769C93.5557 181 93.3637 180.925 93.193 180.776C93.0437 180.627 92.969 180.435 92.969 180.2V171.464C92.969 170.461 92.7237 169.693 92.233 169.16C91.7637 168.605 91.0597 168.328 90.121 168.328C89.2463 168.328 88.5423 168.605 88.009 169.16C87.4757 169.693 87.209 170.461 87.209 171.464V180.2C87.209 180.435 87.1343 180.627 86.985 180.776C86.8357 180.925 86.6437 181 86.409 181H82.313ZM107.318 181.32C106.166 181.32 105.131 181.107 104.214 180.68C103.318 180.232 102.603 179.635 102.07 178.888C101.536 178.141 101.27 177.299 101.27 176.36C101.27 174.845 101.888 173.651 103.126 172.776C104.363 171.88 106.006 171.272 108.054 170.952L112.054 170.344V169.896C112.054 169.128 111.894 168.541 111.574 168.136C111.254 167.731 110.667 167.528 109.814 167.528C109.216 167.528 108.726 167.645 108.342 167.88C107.979 168.115 107.691 168.435 107.478 168.84C107.286 169.117 107.019 169.256 106.678 169.256H103.094C102.859 169.256 102.678 169.192 102.549 169.064C102.422 168.915 102.368 168.744 102.39 168.552C102.39 168.168 102.528 167.731 102.806 167.24C103.104 166.728 103.552 166.227 104.15 165.736C104.747 165.245 105.515 164.84 106.454 164.52C107.392 164.2 108.523 164.04 109.845 164.04C111.232 164.04 112.416 164.2 113.398 164.52C114.379 164.84 115.168 165.288 115.766 165.864C116.384 166.44 116.843 167.123 117.142 167.912C117.44 168.68 117.59 169.533 117.59 170.472V180.2C117.59 180.435 117.504 180.627 117.333 180.776C117.184 180.925 117.003 181 116.79 181H113.078C112.843 181 112.651 180.925 112.502 180.776C112.352 180.627 112.278 180.435 112.278 180.2V179.08C112 179.485 111.627 179.859 111.158 180.2C110.688 180.541 110.134 180.808 109.494 181C108.875 181.213 108.15 181.32 107.318 181.32ZM108.822 177.672C109.44 177.672 109.995 177.544 110.486 177.288C110.998 177.011 111.392 176.595 111.67 176.04C111.968 175.464 112.118 174.749 112.118 173.896V173.448L109.398 173.928C108.395 174.099 107.659 174.365 107.19 174.728C106.742 175.069 106.518 175.475 106.518 175.944C106.518 176.307 106.624 176.616 106.838 176.872C107.051 177.128 107.328 177.331 107.67 177.48C108.011 177.608 108.395 177.672 108.822 177.672ZM122.001 181C121.766 181 121.574 180.925 121.424 180.776C121.275 180.627 121.201 180.435 121.201 180.2V165.16C121.201 164.925 121.275 164.733 121.424 164.584C121.574 164.435 121.766 164.36 122.001 164.36H125.681C125.915 164.36 126.107 164.435 126.257 164.584C126.406 164.733 126.481 164.925 126.481 165.16V166.376C127.035 165.715 127.761 165.16 128.657 164.712C129.553 164.264 130.609 164.04 131.825 164.04C133.062 164.04 134.15 164.317 135.089 164.872C136.049 165.427 136.795 166.248 137.329 167.336C137.883 168.403 138.161 169.715 138.161 171.272V180.2C138.161 180.435 138.075 180.627 137.905 180.776C137.755 180.925 137.574 181 137.361 181H133.329C133.115 181 132.923 180.925 132.753 180.776C132.603 180.627 132.529 180.435 132.529 180.2V171.464C132.529 170.461 132.283 169.693 131.793 169.16C131.323 168.605 130.619 168.328 129.681 168.328C128.806 168.328 128.102 168.605 127.569 169.16C127.057 169.693 126.801 170.461 126.801 171.464V180.2C126.801 180.435 126.715 180.627 126.545 180.776C126.395 180.925 126.214 181 126.001 181H122.001ZM142.532 181C142.297 181 142.105 180.925 141.956 180.776C141.806 180.627 141.732 180.435 141.732 180.2V159.08C141.732 158.845 141.806 158.653 141.956 158.504C142.105 158.355 142.297 158.28 142.532 158.28H146.244C146.457 158.28 146.638 158.355 146.788 158.504C146.958 158.653 147.044 158.845 147.044 159.08V169.8L151.492 164.904C151.62 164.755 151.758 164.627 151.908 164.52C152.057 164.413 152.27 164.36 152.548 164.36H156.836C157.028 164.36 157.188 164.435 157.316 164.584C157.465 164.712 157.54 164.872 157.54 165.064C157.54 165.149 157.518 165.245 157.476 165.352C157.433 165.459 157.369 165.544 157.284 165.608L151.524 171.816L158.084 179.784C158.254 179.955 158.34 180.125 158.34 180.296C158.34 180.488 158.265 180.659 158.116 180.808C157.988 180.936 157.817 181 157.604 181H153.22C152.9 181 152.665 180.947 152.516 180.84C152.366 180.712 152.228 180.584 152.1 180.456L147.044 174.376V180.2C147.044 180.435 146.958 180.627 146.788 180.776C146.638 180.925 146.457 181 146.244 181H142.532ZM173.113 181C172.899 181 172.707 180.925 172.536 180.776C172.387 180.627 172.312 180.435 172.312 180.2V173.32L164.889 159.624C164.867 159.56 164.846 159.507 164.825 159.464C164.803 159.4 164.793 159.336 164.793 159.272C164.793 159.101 164.857 158.952 164.985 158.824C165.134 158.675 165.305 158.6 165.497 158.6H169.497C169.817 158.6 170.062 158.685 170.233 158.856C170.425 159.005 170.542 159.144 170.585 159.272L175.193 167.528L179.801 159.272C179.865 159.144 179.982 159.005 180.153 158.856C180.345 158.685 180.601 158.6 180.921 158.6H184.921C185.113 158.6 185.273 158.675 185.401 158.824C185.529 158.952 185.593 159.101 185.593 159.272C185.593 159.336 185.582 159.4 185.561 159.464C185.561 159.507 185.55 159.56 185.529 159.624L178.073 173.32V180.2C178.073 180.435 177.998 180.627 177.849 180.776C177.699 180.925 177.507 181 177.273 181H173.113ZM193.073 181.32C191.281 181.32 189.766 181.032 188.529 180.456C187.313 179.88 186.374 179.059 185.713 177.992C185.073 176.904 184.71 175.613 184.625 174.12C184.603 173.693 184.593 173.213 184.593 172.68C184.593 172.125 184.603 171.645 184.625 171.24C184.71 169.725 185.094 168.435 185.777 167.368C186.459 166.301 187.409 165.48 188.625 164.904C189.862 164.328 191.345 164.04 193.073 164.04C194.822 164.04 196.305 164.328 197.521 164.904C198.758 165.48 199.718 166.301 200.401 167.368C201.083 168.435 201.467 169.725 201.553 171.24C201.574 171.645 201.585 172.125 201.585 172.68C201.585 173.213 201.574 173.693 201.553 174.12C201.467 175.613 201.094 176.904 200.433 177.992C199.793 179.059 198.854 179.88 197.617 180.456C196.401 181.032 194.886 181.32 193.073 181.32ZM193.073 177.416C194.033 177.416 194.726 177.128 195.153 176.552C195.601 175.976 195.857 175.112 195.921 173.96C195.942 173.64 195.953 173.213 195.953 172.68C195.953 172.147 195.942 171.72 195.921 171.4C195.857 170.269 195.601 169.416 195.153 168.84C194.726 168.243 194.033 167.944 193.073 167.944C192.134 167.944 191.441 168.243 190.993 168.84C190.545 169.416 190.299 170.269 190.257 171.4C190.235 171.72 190.225 172.147 190.225 172.68C190.225 173.213 190.235 173.64 190.257 173.96C190.299 175.112 190.545 175.976 190.993 176.552C191.441 177.128 192.134 177.416 193.073 177.416ZM210.844 181.32C209.628 181.32 208.54 181.043 207.58 180.488C206.641 179.933 205.905 179.123 205.372 178.056C204.838 176.968 204.572 175.645 204.572 174.088V165.16C204.572 164.925 204.646 164.733 204.796 164.584C204.945 164.435 205.137 164.36 205.372 164.36H209.372C209.606 164.36 209.798 164.435 209.948 164.584C210.097 164.733 210.172 164.925 210.172 165.16V173.896C210.172 175.987 211.11 177.032 212.988 177.032C213.862 177.032 214.556 176.765 215.068 176.232C215.601 175.677 215.868 174.899 215.868 173.896V165.16C215.868 164.925 215.942 164.733 216.092 164.584C216.241 164.435 216.433 164.36 216.668 164.36H220.668C220.902 164.36 221.094 164.435 221.244 164.584C221.393 164.733 221.468 164.925 221.468 165.16V180.2C221.468 180.435 221.393 180.627 221.244 180.776C221.094 180.925 220.902 181 220.668 181H216.956C216.742 181 216.55 180.925 216.38 180.776C216.23 180.627 216.156 180.435 216.156 180.2V178.984C215.601 179.752 214.876 180.339 213.98 180.744C213.105 181.128 212.06 181.32 210.844 181.32ZM226.16 173.928C225.925 173.928 225.733 173.853 225.584 173.704C225.434 173.533 225.36 173.341 225.36 173.128V159.4C225.36 159.165 225.434 158.973 225.584 158.824C225.733 158.675 225.925 158.6 226.16 158.6H229.84C230.053 158.6 230.234 158.675 230.384 158.824C230.554 158.973 230.64 159.165 230.64 159.4V173.128C230.64 173.341 230.554 173.533 230.384 173.704C230.234 173.853 230.053 173.928 229.84 173.928H226.16ZM226.032 181C225.797 181 225.605 180.925 225.456 180.776C225.306 180.627 225.232 180.435 225.232 180.2V176.264C225.232 176.029 225.306 175.837 225.456 175.688C225.605 175.517 225.797 175.432 226.032 175.432H229.968C230.181 175.432 230.362 175.517 230.512 175.688C230.682 175.837 230.768 176.029 230.768 176.264V180.2C230.768 180.435 230.682 180.627 230.512 180.776C230.362 180.925 230.181 181 229.968 181H226.032Z" fill="white"/>
<path d="M4.42 205.25L-0.01 196.8H2.05L5.28 203.26L8.5 196.8H10.56L6.14 205.25V210H4.42V205.25ZM14.7328 210.24C13.8861 210.24 13.1328 210.05 12.4728 209.67C11.8195 209.29 11.3061 208.777 10.9328 208.13C10.5595 207.477 10.3728 206.74 10.3728 205.92C10.3728 205.1 10.5595 204.36 10.9328 203.7C11.3061 203.04 11.8195 202.517 12.4728 202.13C13.1328 201.743 13.8861 201.55 14.7328 201.55C15.5728 201.55 16.3161 201.743 16.9628 202.13C17.6161 202.517 18.1261 203.04 18.4928 203.7C18.8595 204.36 19.0428 205.1 19.0428 205.92C19.0428 206.74 18.8595 207.477 18.4928 208.13C18.1261 208.777 17.6161 209.29 16.9628 209.67C16.3161 210.05 15.5728 210.24 14.7328 210.24ZM14.7328 208.75C15.2661 208.75 15.7295 208.627 16.1228 208.38C16.5228 208.133 16.8328 207.797 17.0528 207.37C17.2728 206.937 17.3828 206.45 17.3828 205.91C17.3828 205.37 17.2728 204.883 17.0528 204.45C16.8328 204.017 16.5228 203.673 16.1228 203.42C15.7295 203.167 15.2661 203.04 14.7328 203.04C14.1928 203.04 13.7228 203.167 13.3228 203.42C12.9228 203.673 12.6095 204.017 12.3828 204.45C12.1628 204.883 12.0528 205.37 12.0528 205.91C12.0528 206.45 12.1628 206.937 12.3828 207.37C12.6095 207.797 12.9228 208.133 13.3228 208.38C13.7228 208.627 14.1928 208.75 14.7328 208.75ZM22.6019 205.93C22.6019 206.79 22.7852 207.477 23.1519 207.99C23.5252 208.497 24.0952 208.75 24.8619 208.75C25.6352 208.75 26.2052 208.497 26.5719 207.99C26.9385 207.477 27.1219 206.79 27.1219 205.93V201.79H28.8419V206.17C28.8419 206.97 28.6852 207.677 28.3719 208.29C28.0652 208.903 27.6152 209.383 27.0219 209.73C26.4352 210.07 25.7152 210.24 24.8619 210.24C24.0152 210.24 23.2952 210.07 22.7019 209.73C22.1152 209.383 21.6652 208.903 21.3519 208.29C21.0452 207.677 20.8919 206.97 20.8919 206.17V201.79H22.6019V205.93ZM32.9163 210H31.1863V201.79H32.9163V203.21H32.8663C32.8996 203.037 33.0229 202.82 33.2363 202.56C33.4496 202.3 33.7429 202.067 34.1163 201.86C34.4896 201.653 34.9363 201.55 35.4563 201.55C35.8363 201.55 36.1696 201.603 36.4563 201.71C36.7496 201.81 36.9563 201.91 37.0763 202.01L36.3663 203.45C36.2729 203.357 36.1096 203.263 35.8763 203.17C35.6429 203.07 35.3529 203.02 35.0063 203.02C34.5663 203.02 34.1896 203.157 33.8763 203.43C33.5629 203.703 33.3229 204.033 33.1563 204.42C32.9963 204.8 32.9163 205.153 32.9163 205.48V210ZM47.3389 196.56C48.0989 196.56 48.7522 196.647 49.2989 196.82C49.8522 196.993 50.2856 197.177 50.5989 197.37C50.9189 197.563 51.1089 197.69 51.1689 197.75L50.2889 199.16C50.1889 199.073 50.0122 198.95 49.7589 198.79C49.5056 198.623 49.1889 198.477 48.8089 198.35C48.4289 198.217 47.9956 198.15 47.5089 198.15C46.7556 198.15 46.1589 198.303 45.7189 198.61C45.2856 198.91 45.0689 199.337 45.0689 199.89C45.0689 200.263 45.1822 200.593 45.4089 200.88C45.6422 201.16 45.9689 201.417 46.3889 201.65C46.8089 201.883 47.2989 202.123 47.8589 202.37C48.3189 202.563 48.7689 202.783 49.2089 203.03C49.6556 203.277 50.0589 203.567 50.4189 203.9C50.7856 204.233 51.0756 204.62 51.2889 205.06C51.5089 205.5 51.6189 206.007 51.6189 206.58C51.6189 207.147 51.5022 207.657 51.2689 208.11C51.0422 208.563 50.7189 208.95 50.2989 209.27C49.8856 209.583 49.4022 209.823 48.8489 209.99C48.2956 210.157 47.6989 210.24 47.0589 210.24C46.2522 210.24 45.5222 210.14 44.8689 209.94C44.2222 209.74 43.6989 209.53 43.2989 209.31C42.9056 209.09 42.6789 208.953 42.6189 208.9L43.5489 207.43C43.6289 207.497 43.7756 207.597 43.9889 207.73C44.2022 207.857 44.4656 207.99 44.7789 208.13C45.0922 208.27 45.4456 208.39 45.8389 208.49C46.2322 208.583 46.6522 208.63 47.0989 208.63C47.9922 208.63 48.6689 208.43 49.1289 208.03C49.5889 207.63 49.8189 207.117 49.8189 206.49C49.8189 206.01 49.6722 205.597 49.3789 205.25C49.0856 204.903 48.6956 204.593 48.2089 204.32C47.7222 204.047 47.1856 203.783 46.5989 203.53C45.9989 203.257 45.4489 202.957 44.9489 202.63C44.4489 202.303 44.0456 201.913 43.7389 201.46C43.4389 201 43.2889 200.447 43.2889 199.8C43.2889 199.16 43.4689 198.597 43.8289 198.11C44.1956 197.623 44.6856 197.243 45.2989 196.97C45.9189 196.697 46.5989 196.56 47.3389 196.56ZM55.3753 205.93C55.3753 206.79 55.5586 207.477 55.9253 207.99C56.2986 208.497 56.8686 208.75 57.6353 208.75C58.4086 208.75 58.9786 208.497 59.3453 207.99C59.712 207.477 59.8953 206.79 59.8953 205.93V201.79H61.6153V206.17C61.6153 206.97 61.4586 207.677 61.1453 208.29C60.8386 208.903 60.3886 209.383 59.7953 209.73C59.2086 210.07 58.4886 210.24 57.6353 210.24C56.7886 210.24 56.0686 210.07 55.4753 209.73C54.8886 209.383 54.4386 208.903 54.1253 208.29C53.8186 207.677 53.6653 206.97 53.6653 206.17V201.79H55.3753V205.93ZM63.9397 210V196.24H65.6997V203.33C65.7397 203.123 65.8964 202.88 66.1697 202.6C66.443 202.32 66.8097 202.077 67.2697 201.87C67.7297 201.657 68.2597 201.55 68.8597 201.55C69.6264 201.55 70.3064 201.733 70.8997 202.1C71.493 202.46 71.9597 202.967 72.2997 203.62C72.6464 204.267 72.8197 205.027 72.8197 205.9C72.8197 206.773 72.6464 207.537 72.2997 208.19C71.9597 208.837 71.493 209.34 70.8997 209.7C70.3064 210.06 69.6264 210.24 68.8597 210.24C68.293 210.24 67.7797 210.133 67.3197 209.92C66.8664 209.707 66.4964 209.457 66.2097 209.17C65.923 208.883 65.743 208.627 65.6697 208.4V210H63.9397ZM71.0897 205.9C71.0897 205.307 70.9697 204.793 70.7297 204.36C70.4897 203.927 70.1697 203.59 69.7697 203.35C69.3764 203.11 68.943 202.99 68.4697 202.99C67.9564 202.99 67.4897 203.113 67.0697 203.36C66.6497 203.6 66.3164 203.94 66.0697 204.38C65.823 204.813 65.6997 205.32 65.6997 205.9C65.6997 206.48 65.823 206.99 66.0697 207.43C66.3164 207.863 66.6497 208.2 67.0697 208.44C67.4897 208.68 67.9564 208.8 68.4697 208.8C68.943 208.8 69.3764 208.683 69.7697 208.45C70.1697 208.21 70.4897 207.873 70.7297 207.44C70.9697 207.007 71.0897 206.493 71.0897 205.9ZM84.318 201.55C84.9246 201.55 85.4446 201.683 85.878 201.95C86.3113 202.21 86.6413 202.61 86.868 203.15C87.1013 203.69 87.218 204.38 87.218 205.22V210H85.498V205.57C85.498 204.683 85.3746 204.017 85.128 203.57C84.8813 203.123 84.4313 202.9 83.778 202.9C83.4313 202.9 83.098 202.997 82.778 203.19C82.4646 203.377 82.2046 203.667 81.998 204.06C81.798 204.453 81.698 204.957 81.698 205.57V210H80.078V205.57C80.078 204.683 79.9246 204.017 79.618 203.57C79.3113 203.123 78.8813 202.9 78.328 202.9C77.9746 202.9 77.6413 202.993 77.328 203.18C77.0213 203.36 76.7713 203.647 76.578 204.04C76.3846 204.433 76.288 204.943 76.288 205.57V210H74.558V201.79H76.288V203.05C76.3613 202.843 76.518 202.623 76.758 202.39C77.0046 202.157 77.318 201.96 77.698 201.8C78.0846 201.633 78.5146 201.55 78.988 201.55C79.4813 201.55 79.8946 201.65 80.228 201.85C80.5613 202.05 80.8246 202.297 81.018 202.59C81.2113 202.877 81.3446 203.153 81.418 203.42C81.5113 203.133 81.6913 202.847 81.958 202.56C82.2246 202.267 82.5613 202.027 82.968 201.84C83.3746 201.647 83.8246 201.55 84.318 201.55ZM89.8142 210V201.79H91.5542V210H89.8142ZM90.7042 198.98C90.3909 198.98 90.1209 198.87 89.8942 198.65C89.6742 198.423 89.5642 198.153 89.5642 197.84C89.5642 197.527 89.6742 197.257 89.8942 197.03C90.1209 196.803 90.3909 196.69 90.7042 196.69C90.9109 196.69 91.1009 196.743 91.2742 196.85C91.4542 196.957 91.5976 197.097 91.7042 197.27C91.8109 197.437 91.8642 197.627 91.8642 197.84C91.8642 198.153 91.7509 198.423 91.5242 198.65C91.2976 198.87 91.0242 198.98 90.7042 198.98ZM97.2941 201.55C97.7207 201.55 98.1174 201.593 98.4841 201.68C98.8574 201.767 99.1774 201.87 99.4441 201.99C99.7174 202.11 99.9107 202.217 100.024 202.31L99.3341 203.41C99.2007 203.29 98.9607 203.157 98.6141 203.01C98.2674 202.857 97.8807 202.78 97.4541 202.78C96.9874 202.78 96.5907 202.873 96.2641 203.06C95.9374 203.24 95.7741 203.503 95.7741 203.85C95.7741 204.197 95.9407 204.473 96.2741 204.68C96.6141 204.88 97.0674 205.047 97.6341 205.18C98.0874 205.287 98.5107 205.43 98.9041 205.61C99.3041 205.79 99.6274 206.04 99.8741 206.36C100.121 206.673 100.244 207.093 100.244 207.62C100.244 208.1 100.144 208.51 99.9441 208.85C99.7441 209.183 99.4741 209.453 99.1341 209.66C98.7941 209.86 98.4141 210.007 97.9941 210.1C97.5741 210.193 97.1474 210.24 96.7141 210.24C96.2074 210.24 95.7507 210.187 95.3441 210.08C94.9374 209.98 94.5941 209.86 94.3141 209.72C94.0407 209.573 93.8407 209.447 93.7141 209.34L94.4041 208.1C94.5774 208.267 94.8607 208.443 95.2541 208.63C95.6541 208.817 96.1074 208.91 96.6141 208.91C97.1741 208.91 97.6274 208.793 97.9741 208.56C98.3207 208.32 98.4941 208.01 98.4941 207.63C98.4941 207.343 98.4107 207.113 98.2441 206.94C98.0774 206.767 97.8541 206.627 97.5741 206.52C97.2941 206.413 96.9874 206.32 96.6541 206.24C96.3341 206.167 96.0207 206.07 95.7141 205.95C95.4141 205.83 95.1374 205.677 94.8841 205.49C94.6374 205.297 94.4407 205.063 94.2941 204.79C94.1474 204.51 94.0741 204.183 94.0741 203.81C94.0741 203.337 94.2241 202.933 94.5241 202.6C94.8241 202.26 95.2174 202 95.7041 201.82C96.1907 201.64 96.7207 201.55 97.2941 201.55ZM105.341 201.55C105.768 201.55 106.164 201.593 106.531 201.68C106.904 201.767 107.224 201.87 107.491 201.99C107.764 202.11 107.958 202.217 108.071 202.31L107.381 203.41C107.248 203.29 107.008 203.157 106.661 203.01C106.314 202.857 105.928 202.78 105.501 202.78C105.034 202.78 104.638 202.873 104.311 203.06C103.984 203.24 103.821 203.503 103.821 203.85C103.821 204.197 103.988 204.473 104.321 204.68C104.661 204.88 105.114 205.047 105.681 205.18C106.134 205.287 106.558 205.43 106.951 205.61C107.351 205.79 107.674 206.04 107.921 206.36C108.168 206.673 108.291 207.093 108.291 207.62C108.291 208.1 108.191 208.51 107.991 208.85C107.791 209.183 107.521 209.453 107.181 209.66C106.841 209.86 106.461 210.007 106.041 210.1C105.621 210.193 105.194 210.24 104.761 210.24C104.254 210.24 103.798 210.187 103.391 210.08C102.984 209.98 102.641 209.86 102.361 209.72C102.088 209.573 101.888 209.447 101.761 209.34L102.451 208.1C102.624 208.267 102.908 208.443 103.301 208.63C103.701 208.817 104.154 208.91 104.661 208.91C105.221 208.91 105.674 208.793 106.021 208.56C106.368 208.32 106.541 208.01 106.541 207.63C106.541 207.343 106.458 207.113 106.291 206.94C106.124 206.767 105.901 206.627 105.621 206.52C105.341 206.413 105.034 206.32 104.701 206.24C104.381 206.167 104.068 206.07 103.761 205.95C103.461 205.83 103.184 205.677 102.931 205.49C102.684 205.297 102.488 205.063 102.341 204.79C102.194 204.51 102.121 204.183 102.121 203.81C102.121 203.337 102.271 202.933 102.571 202.6C102.871 202.26 103.264 202 103.751 201.82C104.238 201.64 104.768 201.55 105.341 201.55ZM110.498 210V201.79H112.238V210H110.498ZM111.388 198.98C111.074 198.98 110.804 198.87 110.578 198.65C110.358 198.423 110.248 198.153 110.248 197.84C110.248 197.527 110.358 197.257 110.578 197.03C110.804 196.803 111.074 196.69 111.388 196.69C111.594 196.69 111.784 196.743 111.958 196.85C112.138 196.957 112.281 197.097 112.388 197.27C112.494 197.437 112.548 197.627 112.548 197.84C112.548 198.153 112.434 198.423 112.208 198.65C111.981 198.87 111.708 198.98 111.388 198.98ZM118.698 210.24C117.851 210.24 117.098 210.05 116.438 209.67C115.784 209.29 115.271 208.777 114.898 208.13C114.524 207.477 114.338 206.74 114.338 205.92C114.338 205.1 114.524 204.36 114.898 203.7C115.271 203.04 115.784 202.517 116.438 202.13C117.098 201.743 117.851 201.55 118.698 201.55C119.538 201.55 120.281 201.743 120.928 202.13C121.581 202.517 122.091 203.04 122.458 203.7C122.824 204.36 123.008 205.1 123.008 205.92C123.008 206.74 122.824 207.477 122.458 208.13C122.091 208.777 121.581 209.29 120.928 209.67C120.281 210.05 119.538 210.24 118.698 210.24ZM118.698 208.75C119.231 208.75 119.694 208.627 120.088 208.38C120.488 208.133 120.798 207.797 121.018 207.37C121.238 206.937 121.348 206.45 121.348 205.91C121.348 205.37 121.238 204.883 121.018 204.45C120.798 204.017 120.488 203.673 120.088 203.42C119.694 203.167 119.231 203.04 118.698 203.04C118.158 203.04 117.688 203.167 117.288 203.42C116.888 203.673 116.574 204.017 116.348 204.45C116.128 204.883 116.018 205.37 116.018 205.91C116.018 206.45 116.128 206.937 116.348 207.37C116.574 207.797 116.888 208.133 117.288 208.38C117.688 208.627 118.158 208.75 118.698 208.75ZM129.527 201.55C130.067 201.55 130.59 201.663 131.097 201.89C131.61 202.117 132.03 202.477 132.357 202.97C132.69 203.457 132.857 204.093 132.857 204.88V210H131.097V205.22C131.097 204.407 130.907 203.817 130.527 203.45C130.147 203.077 129.657 202.89 129.057 202.89C128.663 202.89 128.283 203.003 127.917 203.23C127.557 203.45 127.26 203.757 127.027 204.15C126.793 204.537 126.677 204.977 126.677 205.47V210H124.937V201.79H126.677V203.25C126.737 203.023 126.9 202.777 127.167 202.51C127.433 202.243 127.773 202.017 128.187 201.83C128.6 201.643 129.047 201.55 129.527 201.55ZM148.193 204.15H141.863V210H140.173V196.8H141.863V202.61H148.193V196.8H149.883V210H148.193V204.15ZM159.115 210V208.4C159.062 208.567 158.905 208.797 158.645 209.09C158.392 209.383 158.042 209.65 157.595 209.89C157.155 210.123 156.635 210.24 156.035 210.24C155.275 210.24 154.585 210.06 153.965 209.7C153.352 209.34 152.862 208.837 152.495 208.19C152.135 207.537 151.955 206.773 151.955 205.9C151.955 205.027 152.135 204.267 152.495 203.62C152.862 202.967 153.352 202.46 153.965 202.1C154.585 201.733 155.275 201.55 156.035 201.55C156.628 201.55 157.142 201.657 157.575 201.87C158.015 202.083 158.365 202.33 158.625 202.61C158.892 202.89 159.048 203.13 159.095 203.33V201.79H160.815V210H159.115ZM153.675 205.9C153.675 206.493 153.805 207.007 154.065 207.44C154.325 207.873 154.662 208.21 155.075 208.45C155.495 208.683 155.942 208.8 156.415 208.8C156.922 208.8 157.375 208.68 157.775 208.44C158.175 208.2 158.492 207.863 158.725 207.43C158.958 206.99 159.075 206.48 159.075 205.9C159.075 205.32 158.958 204.813 158.725 204.38C158.492 203.94 158.175 203.6 157.775 203.36C157.375 203.113 156.922 202.99 156.415 202.99C155.942 202.99 155.495 203.11 155.075 203.35C154.662 203.59 154.325 203.927 154.065 204.36C153.805 204.793 153.675 205.307 153.675 205.9ZM166.22 201.55C166.647 201.55 167.043 201.593 167.41 201.68C167.783 201.767 168.103 201.87 168.37 201.99C168.643 202.11 168.837 202.217 168.95 202.31L168.26 203.41C168.127 203.29 167.887 203.157 167.54 203.01C167.193 202.857 166.807 202.78 166.38 202.78C165.913 202.78 165.517 202.873 165.19 203.06C164.863 203.24 164.7 203.503 164.7 203.85C164.7 204.197 164.867 204.473 165.2 204.68C165.54 204.88 165.993 205.047 166.56 205.18C167.013 205.287 167.437 205.43 167.83 205.61C168.23 205.79 168.553 206.04 168.8 206.36C169.047 206.673 169.17 207.093 169.17 207.62C169.17 208.1 169.07 208.51 168.87 208.85C168.67 209.183 168.4 209.453 168.06 209.66C167.72 209.86 167.34 210.007 166.92 210.1C166.5 210.193 166.073 210.24 165.64 210.24C165.133 210.24 164.677 210.187 164.27 210.08C163.863 209.98 163.52 209.86 163.24 209.72C162.967 209.573 162.767 209.447 162.64 209.34L163.33 208.1C163.503 208.267 163.787 208.443 164.18 208.63C164.58 208.817 165.033 208.91 165.54 208.91C166.1 208.91 166.553 208.793 166.9 208.56C167.247 208.32 167.42 208.01 167.42 207.63C167.42 207.343 167.337 207.113 167.17 206.94C167.003 206.767 166.78 206.627 166.5 206.52C166.22 206.413 165.913 206.32 165.58 206.24C165.26 206.167 164.947 206.07 164.64 205.95C164.34 205.83 164.063 205.677 163.81 205.49C163.563 205.297 163.367 205.063 163.22 204.79C163.073 204.51 163 204.183 163 203.81C163 203.337 163.15 202.933 163.45 202.6C163.75 202.26 164.143 202 164.63 201.82C165.117 201.64 165.647 201.55 166.22 201.55ZM176.217 196.8H179.887C180.607 196.8 181.284 196.897 181.917 197.09C182.551 197.283 183.064 197.61 183.457 198.07C183.851 198.53 184.047 199.17 184.047 199.99C184.047 200.543 183.937 201.047 183.717 201.5C183.504 201.947 183.237 202.31 182.917 202.59C182.597 202.87 182.281 203.037 181.967 203.09C182.221 203.11 182.501 203.19 182.807 203.33C183.121 203.47 183.417 203.67 183.697 203.93C183.984 204.19 184.217 204.517 184.397 204.91C184.584 205.297 184.677 205.757 184.677 206.29C184.677 207.01 184.531 207.65 184.237 208.21C183.944 208.77 183.497 209.21 182.897 209.53C182.304 209.843 181.551 210 180.637 210H176.217V196.8ZM177.917 208.57H180.467C181.101 208.57 181.591 208.46 181.937 208.24C182.291 208.013 182.537 207.72 182.677 207.36C182.824 207 182.897 206.617 182.897 206.21C182.897 205.537 182.677 204.993 182.237 204.58C181.797 204.167 181.161 203.96 180.327 203.96H177.917V208.57ZM177.917 202.56H180.127C180.634 202.56 181.051 202.45 181.377 202.23C181.704 202.003 181.947 201.717 182.107 201.37C182.267 201.017 182.347 200.653 182.347 200.28C182.347 199.513 182.121 198.98 181.667 198.68C181.221 198.38 180.621 198.23 179.867 198.23H177.917V202.56ZM187.902 206.25C187.908 206.743 188.015 207.193 188.222 207.6C188.428 208.007 188.735 208.33 189.142 208.57C189.555 208.81 190.062 208.93 190.662 208.93C191.168 208.93 191.598 208.857 191.952 208.71C192.312 208.557 192.605 208.377 192.832 208.17C193.058 207.957 193.222 207.767 193.322 207.6L194.172 208.65C193.952 208.97 193.682 209.25 193.362 209.49C193.048 209.73 192.665 209.913 192.212 210.04C191.758 210.173 191.205 210.24 190.552 210.24C189.672 210.24 188.908 210.053 188.262 209.68C187.622 209.3 187.128 208.777 186.782 208.11C186.435 207.437 186.262 206.667 186.262 205.8C186.262 205 186.425 204.28 186.752 203.64C187.078 202.993 187.552 202.483 188.172 202.11C188.798 201.737 189.552 201.55 190.432 201.55C191.238 201.55 191.938 201.72 192.532 202.06C193.132 202.393 193.595 202.867 193.922 203.48C194.255 204.093 194.422 204.827 194.422 205.68C194.422 205.733 194.418 205.83 194.412 205.97C194.405 206.103 194.398 206.197 194.392 206.25H187.902ZM192.762 204.94C192.755 204.667 192.675 204.367 192.522 204.04C192.375 203.713 192.135 203.433 191.802 203.2C191.468 202.967 191.018 202.85 190.452 202.85C189.865 202.85 189.392 202.963 189.032 203.19C188.678 203.417 188.418 203.693 188.252 204.02C188.085 204.34 187.988 204.647 187.962 204.94H192.762ZM197.433 206.25C197.44 206.743 197.546 207.193 197.753 207.6C197.96 208.007 198.266 208.33 198.673 208.57C199.086 208.81 199.593 208.93 200.193 208.93C200.7 208.93 201.13 208.857 201.483 208.71C201.843 208.557 202.136 208.377 202.363 208.17C202.59 207.957 202.753 207.767 202.853 207.6L203.703 208.65C203.483 208.97 203.213 209.25 202.893 209.49C202.58 209.73 202.196 209.913 201.743 210.04C201.29 210.173 200.736 210.24 200.083 210.24C199.203 210.24 198.44 210.053 197.793 209.68C197.153 209.3 196.66 208.777 196.313 208.11C195.966 207.437 195.793 206.667 195.793 205.8C195.793 205 195.956 204.28 196.283 203.64C196.61 202.993 197.083 202.483 197.703 202.11C198.33 201.737 199.083 201.55 199.963 201.55C200.77 201.55 201.47 201.72 202.063 202.06C202.663 202.393 203.126 202.867 203.453 203.48C203.786 204.093 203.953 204.827 203.953 205.68C203.953 205.733 203.95 205.83 203.943 205.97C203.936 206.103 203.93 206.197 203.923 206.25H197.433ZM202.293 204.94C202.286 204.667 202.206 204.367 202.053 204.04C201.906 203.713 201.666 203.433 201.333 203.2C201 202.967 200.55 202.85 199.983 202.85C199.396 202.85 198.923 202.963 198.563 203.19C198.21 203.417 197.95 203.693 197.783 204.02C197.616 204.34 197.52 204.647 197.493 204.94H202.293ZM210.464 201.55C211.004 201.55 211.528 201.663 212.034 201.89C212.548 202.117 212.968 202.477 213.294 202.97C213.628 203.457 213.794 204.093 213.794 204.88V210H212.034V205.22C212.034 204.407 211.844 203.817 211.464 203.45C211.084 203.077 210.594 202.89 209.994 202.89C209.601 202.89 209.221 203.003 208.854 203.23C208.494 203.45 208.198 203.757 207.964 204.15C207.731 204.537 207.614 204.977 207.614 205.47V210H205.874V201.79H207.614V203.25C207.674 203.023 207.838 202.777 208.104 202.51C208.371 202.243 208.711 202.017 209.124 201.83C209.538 201.643 209.984 201.55 210.464 201.55ZM221.1 196.8H225.71C226.423 196.8 227.07 196.95 227.65 197.25C228.237 197.543 228.703 197.977 229.05 198.55C229.403 199.117 229.58 199.81 229.58 200.63C229.58 201.443 229.417 202.117 229.09 202.65C228.77 203.183 228.383 203.587 227.93 203.86C227.477 204.127 227.057 204.273 226.67 204.3L229.94 210H228L224.94 204.42H222.81V210H221.1V196.8ZM222.81 203.15H225.11C225.897 203.15 226.547 202.953 227.06 202.56C227.573 202.167 227.83 201.537 227.83 200.67C227.83 199.803 227.573 199.18 227.06 198.8C226.553 198.42 225.907 198.23 225.12 198.23H222.81V203.15ZM233.234 206.25C233.24 206.743 233.347 207.193 233.554 207.6C233.76 208.007 234.067 208.33 234.474 208.57C234.887 208.81 235.394 208.93 235.994 208.93C236.5 208.93 236.93 208.857 237.284 208.71C237.644 208.557 237.937 208.377 238.164 208.17C238.39 207.957 238.554 207.767 238.654 207.6L239.504 208.65C239.284 208.97 239.014 209.25 238.694 209.49C238.38 209.73 237.997 209.913 237.544 210.04C237.09 210.173 236.537 210.24 235.884 210.24C235.004 210.24 234.24 210.053 233.594 209.68C232.954 209.3 232.46 208.777 232.114 208.11C231.767 207.437 231.594 206.667 231.594 205.8C231.594 205 231.757 204.28 232.084 203.64C232.41 202.993 232.884 202.483 233.504 202.11C234.13 201.737 234.884 201.55 235.764 201.55C236.57 201.55 237.27 201.72 237.864 202.06C238.464 202.393 238.927 202.867 239.254 203.48C239.587 204.093 239.754 204.827 239.754 205.68C239.754 205.733 239.75 205.83 239.744 205.97C239.737 206.103 239.73 206.197 239.724 206.25H233.234ZM238.094 204.94C238.087 204.667 238.007 204.367 237.854 204.04C237.707 203.713 237.467 203.433 237.134 203.2C236.8 202.967 236.35 202.85 235.784 202.85C235.197 202.85 234.724 202.963 234.364 203.19C234.01 203.417 233.75 203.693 233.584 204.02C233.417 204.34 233.32 204.647 233.294 204.94H238.094ZM245.545 208.8C246.065 208.8 246.485 208.717 246.805 208.55C247.125 208.383 247.325 208.263 247.405 208.19L248.255 209.44C248.188 209.5 248.028 209.597 247.775 209.73C247.528 209.857 247.208 209.973 246.815 210.08C246.428 210.187 245.988 210.24 245.495 210.24C244.742 210.24 244.042 210.073 243.395 209.74C242.748 209.4 242.225 208.907 241.825 208.26C241.432 207.613 241.235 206.823 241.235 205.89C241.235 204.95 241.432 204.16 241.825 203.52C242.225 202.873 242.748 202.383 243.395 202.05C244.042 201.717 244.742 201.55 245.495 201.55C245.982 201.55 246.415 201.61 246.795 201.73C247.175 201.843 247.488 201.97 247.735 202.11C247.982 202.25 248.145 202.357 248.225 202.43L247.365 203.68C247.312 203.627 247.208 203.547 247.055 203.44C246.908 203.327 246.708 203.223 246.455 203.13C246.202 203.037 245.898 202.99 245.545 202.99C245.118 202.99 244.702 203.107 244.295 203.34C243.895 203.567 243.565 203.897 243.305 204.33C243.045 204.763 242.915 205.283 242.915 205.89C242.915 206.497 243.045 207.02 243.305 207.46C243.565 207.893 243.895 208.227 244.295 208.46C244.702 208.687 245.118 208.8 245.545 208.8ZM251.066 206.25C251.072 206.743 251.179 207.193 251.386 207.6C251.592 208.007 251.899 208.33 252.306 208.57C252.719 208.81 253.226 208.93 253.826 208.93C254.332 208.93 254.762 208.857 255.116 208.71C255.476 208.557 255.769 208.377 255.996 208.17C256.222 207.957 256.386 207.767 256.486 207.6L257.336 208.65C257.116 208.97 256.846 209.25 256.526 209.49C256.212 209.73 255.829 209.913 255.376 210.04C254.922 210.173 254.369 210.24 253.716 210.24C252.836 210.24 252.072 210.053 251.426 209.68C250.786 209.3 250.292 208.777 249.946 208.11C249.599 207.437 249.426 206.667 249.426 205.8C249.426 205 249.589 204.28 249.916 203.64C250.242 202.993 250.716 202.483 251.336 202.11C251.962 201.737 252.716 201.55 253.596 201.55C254.402 201.55 255.102 201.72 255.696 202.06C256.296 202.393 256.759 202.867 257.086 203.48C257.419 204.093 257.586 204.827 257.586 205.68C257.586 205.733 257.582 205.83 257.576 205.97C257.569 206.103 257.562 206.197 257.556 206.25H251.066ZM255.926 204.94C255.919 204.667 255.839 204.367 255.686 204.04C255.539 203.713 255.299 203.433 254.966 203.2C254.632 202.967 254.182 202.85 253.616 202.85C253.029 202.85 252.556 202.963 252.196 203.19C251.842 203.417 251.582 203.693 251.416 204.02C251.249 204.34 251.152 204.647 251.126 204.94H255.926ZM259.697 210V201.79H261.437V210H259.697ZM260.587 198.98C260.274 198.98 260.004 198.87 259.777 198.65C259.557 198.423 259.447 198.153 259.447 197.84C259.447 197.527 259.557 197.257 259.777 197.03C260.004 196.803 260.274 196.69 260.587 196.69C260.794 196.69 260.984 196.743 261.157 196.85C261.337 196.957 261.48 197.097 261.587 197.27C261.694 197.437 261.747 197.627 261.747 197.84C261.747 198.153 261.634 198.423 261.407 198.65C261.18 198.87 260.907 198.98 260.587 198.98ZM263.277 201.79H265.147L267.827 208.39L270.507 201.79H272.367L268.857 210H266.807L263.277 201.79ZM275.089 206.25C275.096 206.743 275.203 207.193 275.409 207.6C275.616 208.007 275.923 208.33 276.329 208.57C276.743 208.81 277.249 208.93 277.849 208.93C278.356 208.93 278.786 208.857 279.139 208.71C279.499 208.557 279.793 208.377 280.019 208.17C280.246 207.957 280.409 207.767 280.509 207.6L281.359 208.65C281.139 208.97 280.869 209.25 280.549 209.49C280.236 209.73 279.853 209.913 279.399 210.04C278.946 210.173 278.393 210.24 277.739 210.24C276.859 210.24 276.096 210.053 275.449 209.68C274.809 209.3 274.316 208.777 273.969 208.11C273.623 207.437 273.449 206.667 273.449 205.8C273.449 205 273.613 204.28 273.939 203.64C274.266 202.993 274.739 202.483 275.359 202.11C275.986 201.737 276.739 201.55 277.619 201.55C278.426 201.55 279.126 201.72 279.719 202.06C280.319 202.393 280.783 202.867 281.109 203.48C281.443 204.093 281.609 204.827 281.609 205.68C281.609 205.733 281.606 205.83 281.599 205.97C281.593 206.103 281.586 206.197 281.579 206.25H275.089ZM279.949 204.94C279.943 204.667 279.863 204.367 279.709 204.04C279.563 203.713 279.323 203.433 278.989 203.2C278.656 202.967 278.206 202.85 277.639 202.85C277.053 202.85 276.579 202.963 276.219 203.19C275.866 203.417 275.606 203.693 275.439 204.02C275.273 204.34 275.176 204.647 275.149 204.94H279.949ZM287.15 210.24C286.397 210.24 285.72 210.06 285.12 209.7C284.527 209.34 284.057 208.837 283.71 208.19C283.37 207.537 283.2 206.773 283.2 205.9C283.2 205.027 283.37 204.267 283.71 203.62C284.057 202.967 284.527 202.46 285.12 202.1C285.72 201.733 286.397 201.55 287.15 201.55C287.757 201.55 288.29 201.657 288.75 201.87C289.21 202.077 289.577 202.32 289.85 202.6C290.124 202.88 290.28 203.123 290.32 203.33V196.24H292.07V210H290.35V208.4C290.277 208.627 290.094 208.883 289.8 209.17C289.514 209.457 289.144 209.707 288.69 209.92C288.237 210.133 287.724 210.24 287.15 210.24ZM287.55 208.8C288.057 208.8 288.52 208.68 288.94 208.44C289.36 208.2 289.694 207.863 289.94 207.43C290.194 206.99 290.32 206.48 290.32 205.9C290.32 205.32 290.194 204.813 289.94 204.38C289.694 203.94 289.36 203.6 288.94 203.36C288.52 203.113 288.057 202.99 287.55 202.99C287.084 202.99 286.65 203.11 286.25 203.35C285.85 203.59 285.527 203.927 285.28 204.36C285.04 204.793 284.92 205.307 284.92 205.9C284.92 206.493 285.04 207.007 285.28 207.44C285.527 207.873 285.85 208.21 286.25 208.45C286.65 208.683 287.084 208.8 287.55 208.8Z" fill="white"/>
</svg>
