<svg width="63" height="63" viewBox="0 0 63 63" fill="none" xmlns="http://www.w3.org/2000/svg">
<g clip-path="url(#clip0_3620_3008)">
<path d="M44.747 29.8819C44.747 32.126 44.747 34.3701 44.747 36.5906C44.7643 36.9158 44.6892 37.2392 44.5304 37.5235C44.3716 37.8077 44.1356 38.0412 43.8497 38.1969C40.3314 40.3701 36.7658 42.5906 33.2711 44.7638C33.0453 44.8861 32.7972 44.9617 32.5416 44.986C32.2861 45.0104 32.0282 44.983 31.7834 44.9055C27.5803 43.2756 23.4243 41.5748 19.2448 39.8977C18.926 39.7883 18.653 39.5754 18.469 39.2929C18.285 39.0104 18.2007 38.6745 18.2295 38.3386V24.6615C18.2034 24.323 18.2885 23.9854 18.4717 23.6997C18.655 23.4141 18.9264 23.1961 19.2448 23.0788C22.9049 21.4252 26.5412 19.7717 30.2249 18.1417C30.6787 18.0016 31.1643 18.0016 31.6181 18.1417C35.5851 19.2047 39.5521 20.3386 43.4247 21.4725C43.6117 21.4984 43.7915 21.5614 43.9538 21.6578C44.116 21.7542 44.2575 21.8821 44.3697 22.034C44.4819 22.1858 44.5626 22.3585 44.6071 22.542C44.6516 22.7255 44.6591 22.916 44.629 23.1024L44.747 29.8819ZM31.0514 41.6929C31.0653 41.599 31.0653 41.5035 31.0514 41.4095C31.0514 37.6063 31.0514 33.8032 31.0514 30.0237C31.0219 29.8836 30.9593 29.7527 30.8689 29.6417C30.7786 29.5308 30.663 29.443 30.5318 29.3859C29.0206 28.8426 27.5094 28.3701 25.9982 27.8741L20.9213 26.2205C20.9213 26.4567 20.9213 26.5748 20.9213 26.7166C20.9213 30.189 20.9213 33.6615 20.9213 37.1339C20.9213 37.63 21.1574 37.7717 21.5589 37.9134L30.4611 41.504L31.0514 41.6929ZM42.1024 24.8977C39.3396 26.3858 36.7186 27.7796 34.1447 29.1969C34.0288 29.3104 33.9376 29.4466 33.8767 29.597C33.8157 29.7474 33.7863 29.9087 33.7905 30.0709C33.7905 33.5669 33.7905 37.1575 33.7905 40.5827C33.7788 40.7873 33.7788 40.9923 33.7905 41.1969H34.0031C36.5769 39.5906 39.1507 38.0079 41.6773 36.4725C41.7981 36.3665 41.8943 36.2356 41.9595 36.0888C42.0248 35.942 42.0574 35.7827 42.0551 35.6221C42.0551 33.7559 42.0551 31.8898 42.0551 30.0237L42.1024 24.8977ZM39.741 23.126L39.4577 22.9607L31.4292 20.7166C31.253 20.6572 31.0623 20.6572 30.8861 20.7166C28.4067 21.8268 25.9036 22.937 23.2826 24.1418L24.0619 24.4489L29.1151 26.1024C30.0752 26.586 31.1155 26.8902 32.1848 27C33.2421 26.7103 34.2409 26.2387 35.1364 25.6063L39.741 23.126Z" fill="#EB143E"/>
<path d="M58.7023 30.0707L56.648 28.1101C56.5002 28.0068 56.3765 27.8727 56.2853 27.7172C56.1942 27.5616 56.1378 27.3881 56.1199 27.2086C56.1019 27.0292 56.1229 26.848 56.1814 26.6774C56.24 26.5068 56.3348 26.3509 56.4592 26.2204C57.0023 25.6534 57.687 25.7007 58.3718 26.3621L62.4805 30.4723C62.6413 30.5857 62.7724 30.7361 62.863 30.9108C62.9536 31.0855 63.0009 31.2795 63.0009 31.4763C63.0009 31.6731 62.9536 31.867 62.863 32.0417C62.7724 32.2164 62.6413 32.3668 62.4805 32.4802C61.1109 33.8975 59.7177 35.2912 58.3245 36.6613C58.2093 36.792 58.0677 36.8967 57.9089 36.9684C57.7501 37.0401 57.5778 37.0772 57.4036 37.0772C57.2294 37.0772 57.0572 37.0401 56.8984 36.9684C56.7397 36.8967 56.598 36.792 56.4828 36.6613C56.3591 36.5379 56.2632 36.3894 56.2015 36.226C56.1397 36.0625 56.1136 35.8877 56.1248 35.7133C56.136 35.5389 56.1842 35.3689 56.2663 35.2146C56.3484 35.0604 56.4624 34.9254 56.6008 34.8188C57.262 34.1101 57.9704 33.4487 58.7732 32.6456H58.0176H50.5559C49.446 32.6456 48.8557 32.2204 48.8793 31.4172C48.9029 30.6141 49.4932 30.2361 50.603 30.2125H58.5843L58.7023 30.0707Z" fill="#EB143E"/>
<path d="M30.2957 58.8188V50.622C30.2957 49.4645 30.7208 48.8503 31.5236 48.8739C32.3265 48.8976 32.7278 49.4645 32.7278 50.6692V58.8188C33.4598 58.0865 34.0501 57.4724 34.6641 56.8818C35.278 56.2913 36.199 55.8897 36.7657 56.4566C37.3324 57.0235 37.2616 57.7322 36.3879 58.6062L32.6334 62.3621C31.7833 63.1889 31.2166 63.1889 30.4137 62.3621C29.0678 61.0393 27.7218 59.6928 26.3995 58.3464C25.7383 57.685 25.6676 56.9999 26.2107 56.4566C26.3417 56.3305 26.4981 56.2339 26.6696 56.1733C26.841 56.1126 27.0233 56.0893 27.2044 56.105C27.3855 56.1207 27.5613 56.1749 27.7198 56.2641C27.8783 56.3532 28.0159 56.4753 28.1233 56.622L30.2957 58.8188Z" fill="#EB143E"/>
<path d="M13.1525 11.5039C13.7429 12.0472 14.3568 12.6141 14.9235 13.1811L19.0558 17.2913C19.2091 17.3951 19.3375 17.5317 19.4317 17.6911C19.5259 17.8506 19.5835 18.0289 19.6005 18.2133C19.6174 18.3978 19.5934 18.5836 19.5299 18.7576C19.4663 18.9316 19.365 19.0893 19.2332 19.2193C19.1014 19.3494 18.9425 19.4486 18.7677 19.5098C18.593 19.5709 18.4068 19.5926 18.2226 19.5731C18.0385 19.5536 17.861 19.4935 17.7029 19.3971C17.5449 19.3008 17.4102 19.1705 17.3085 19.0157L11.3343 12.9921V15.7323C11.3343 16.9606 10.9565 17.5275 10.1536 17.5511C9.35076 17.5747 8.90218 16.9842 8.90218 15.7323V10.3936C8.90218 9.28341 9.3036 8.88184 10.3662 8.88184H16.1986C17.0487 8.88184 17.5918 9.3543 17.5918 10.0866C17.5918 10.8189 17.0487 11.2913 16.1986 11.2913H13.3178L13.1525 11.5039Z" fill="#EB143E"/>
<path d="M51.5004 13.1575L49.139 15.7086L45.8096 19.0393C45.7004 19.1844 45.5615 19.3045 45.4021 19.3915C45.2427 19.4785 45.0665 19.5305 44.8854 19.5439C44.7043 19.5573 44.5224 19.5319 44.352 19.4693C44.1815 19.4067 44.0264 19.3084 43.897 19.1811C43.3775 18.6377 43.4483 17.9291 44.1094 17.2677L49.4224 11.9527L50.0127 11.2913H46.9903C46.0694 11.2913 45.5263 10.7952 45.5263 10.0629C45.5263 9.33065 46.093 8.88184 46.9667 8.88184H52.7756C53.7909 8.88184 54.2159 9.28342 54.2159 10.2519C54.2159 12.2362 54.2159 14.1968 54.2159 16.1574C54.2159 17.0314 53.72 17.5748 53.0116 17.5748C52.3032 17.5748 51.7837 17.0315 51.7837 16.1102C51.7837 15.189 51.7837 14.2204 51.7837 13.2755L51.5004 13.1575Z" fill="#EB143E"/>
<path d="M11.4996 49.8426C11.8066 49.5119 12.09 49.1812 12.397 48.8741L17.3085 43.9607C17.416 43.814 17.5536 43.6919 17.7121 43.6028C17.8706 43.5136 18.0462 43.4594 18.2273 43.4437C18.4085 43.428 18.5909 43.4513 18.7623 43.512C18.9337 43.5726 19.0902 43.6692 19.2212 43.7953C19.346 43.928 19.4409 44.0858 19.4997 44.2583C19.5584 44.4307 19.5795 44.6137 19.5616 44.795C19.5437 44.9763 19.4872 45.1516 19.3959 45.3092C19.3046 45.4668 19.1806 45.6031 19.0323 45.7087L13.6957 51.0473L13.129 51.6851H16.0806C17.0488 51.6851 17.6155 52.1575 17.5919 52.9134C17.5683 53.6693 17.0488 54.0946 16.1042 54.1182H10.3426C9.30364 54.1182 8.90225 53.693 8.90225 52.6772V46.8426C8.87903 46.6688 8.89261 46.492 8.94203 46.3237C8.99146 46.1555 9.07567 45.9995 9.1892 45.8658C9.30274 45.7322 9.44308 45.624 9.60111 45.5481C9.75914 45.4722 9.93132 45.4303 10.1066 45.4252C10.8386 45.4252 11.3108 45.9686 11.3108 46.819C11.3108 47.6694 11.3108 48.756 11.3108 49.7481L11.4996 49.8426Z" fill="#EB143E"/>
<path d="M32.7278 4.39372V12.567C32.7278 13.5591 32.2556 14.126 31.5 14.1024C30.7444 14.0788 30.2957 13.5118 30.2957 12.5433V4.18113L28.3594 6.09451C27.5093 6.94491 26.8245 7.08665 26.2342 6.54334C25.6438 6.00003 25.7384 5.26775 26.6357 4.37012L30.3901 0.614182C31.2166 -0.188967 31.7833 -0.212589 32.6098 0.614182C33.9557 1.93702 35.2781 3.2835 36.624 4.62996C37.2616 5.29138 37.3325 6.00003 36.813 6.54334C36.6819 6.66945 36.5255 6.76604 36.3541 6.82668C36.1827 6.88733 36.0002 6.91061 35.8191 6.89495C35.638 6.87929 35.4622 6.82505 35.3037 6.73589C35.1452 6.64672 35.0078 6.52469 34.9003 6.37797C34.2155 5.69293 33.5543 4.98429 32.8931 4.29925L32.7278 4.39372Z" fill="#EB143E"/>
<path d="M4.41562 30.2598H12.8455C13.0119 30.2535 13.1778 30.2804 13.3336 30.339C13.4893 30.3977 13.6319 30.4868 13.7528 30.6012C13.8737 30.7155 13.9707 30.8529 14.0379 31.0052C14.1051 31.1575 14.1412 31.3217 14.1442 31.4882C14.1415 31.6527 14.1052 31.8148 14.0375 31.9647C13.9697 32.1146 13.8719 32.249 13.7502 32.3597C13.6285 32.4704 13.4855 32.5549 13.3299 32.6081C13.1744 32.6614 13.0095 32.6822 12.8455 32.6693H4.22682C4.9116 33.4016 5.50188 33.9685 6.09221 34.559C6.29199 34.7464 6.47377 34.952 6.63527 35.1732C6.82511 35.4068 6.91653 35.7052 6.89008 36.0051C6.86363 36.305 6.72139 36.5828 6.49359 36.7795C6.39413 36.8869 6.27357 36.9725 6.13948 37.031C6.0054 37.0896 5.86077 37.1198 5.71446 37.1198C5.56816 37.1198 5.42339 37.0896 5.2893 37.031C5.15521 36.9725 5.03466 36.8869 4.93519 36.7795C3.3531 35.2441 1.81825 33.7087 0.212549 32.0551C0.105257 31.9556 0.019588 31.835 -0.0389466 31.7009C-0.0974812 31.5667 -0.127583 31.4219 -0.127583 31.2756C-0.127583 31.1292 -0.0974812 30.9844 -0.0389466 30.8503C0.019588 30.7162 0.105257 30.5956 0.212549 30.4961C1.67657 28.9842 3.18772 27.4724 4.69897 26.0078C4.80705 25.8942 4.93708 25.8037 5.08118 25.7419C5.22529 25.6801 5.38054 25.6482 5.53734 25.6482C5.69413 25.6482 5.84924 25.6801 5.99334 25.7419C6.13744 25.8037 6.26748 25.8942 6.37556 26.0078C6.48622 26.1176 6.57403 26.2483 6.63397 26.3922C6.69391 26.5361 6.72477 26.6905 6.72477 26.8465C6.72477 27.0024 6.69391 27.1567 6.63397 27.3006C6.57403 27.4446 6.48622 27.5752 6.37556 27.685C5.64355 28.4409 4.86431 29.126 4.01424 29.8582L4.41562 30.2598Z" fill="#EB143E"/>
<path d="M49.8239 51.4961L45.8569 47.5749L43.897 45.6142C43.7696 45.497 43.6679 45.3546 43.5983 45.196C43.5288 45.0374 43.4928 44.8661 43.4928 44.693C43.4928 44.5198 43.5288 44.3485 43.5983 44.19C43.6679 44.0314 43.7696 43.889 43.897 43.7717C44.0197 43.6559 44.165 43.5666 44.3238 43.5095C44.4827 43.4524 44.6515 43.4286 44.8199 43.4397C44.9883 43.4507 45.1526 43.4964 45.3026 43.5739C45.4525 43.6513 45.585 43.7589 45.6916 43.8898L51.028 49.2048C51.2169 49.4174 51.3587 49.6536 51.524 49.8662L51.7602 49.7481C51.7602 48.7323 51.7602 47.7166 51.7602 46.6772C51.7537 46.51 51.7815 46.3432 51.8418 46.187C51.9021 46.0309 51.9935 45.8888 52.1107 45.7693C52.2279 45.6499 52.3683 45.5556 52.5232 45.4924C52.6781 45.4292 52.8443 45.3983 53.0116 45.4016C53.3166 45.4077 53.6073 45.5316 53.823 45.7473C54.0387 45.9631 54.1626 46.254 54.1686 46.5591C54.1686 48.6851 54.1686 50.8347 54.1686 52.9843C54.1722 53.1351 54.1444 53.2851 54.0869 53.4246C54.0294 53.564 53.9435 53.69 53.8347 53.7945C53.7259 53.8989 53.5965 53.9795 53.4548 54.0312C53.3131 54.0829 53.1621 54.1044 53.0116 54.0945H46.6597C46.5026 54.0946 46.3472 54.0633 46.2024 54.0024C46.0575 53.9416 45.9263 53.8525 45.8164 53.7403C45.7064 53.6281 45.6199 53.4951 45.562 53.3491C45.5041 53.203 45.4759 53.0469 45.479 52.8898C45.4848 52.5762 45.6104 52.2766 45.8299 52.0526C46.0495 51.8286 46.3463 51.6971 46.6597 51.6851H49.8002L49.8239 51.4961Z" fill="#EB143E"/>
</g>
<defs>
<clipPath id="clip0_3620_3008">
<rect width="63" height="63" fill="white"/>
</clipPath>
</defs>
</svg>
