<svg width="57" height="57" viewBox="0 0 57 57" fill="none" xmlns="http://www.w3.org/2000/svg">
<path d="M28.4781 27.1862C27.3877 27.182 26.3231 26.8544 25.4191 26.2447C24.5151 25.635 23.8123 24.7707 23.3999 23.7613C22.9875 22.7519 22.8838 21.6428 23.1022 20.5745C23.3205 19.5062 23.851 18.5267 24.6265 17.7601C25.4019 16.9935 26.3874 16.4743 27.4582 16.2682C28.5289 16.0621 29.6367 16.1785 30.6413 16.6025C31.6459 17.0265 32.502 17.7391 33.1013 18.65C33.7006 19.561 34.0161 20.6293 34.0078 21.7197C34.005 22.4421 33.8596 23.1569 33.58 23.823C33.3004 24.4891 32.892 25.0934 32.3782 25.6013C31.8644 26.1092 31.2555 26.5106 30.5862 26.7826C29.9169 27.0546 29.2005 27.1918 28.4781 27.1862ZM31.6319 21.6986C31.632 20.8694 31.3055 20.0735 30.7231 19.4833C30.1407 18.893 29.3493 18.5558 28.5202 18.5448C27.6837 18.5448 26.8815 18.877 26.2901 19.4685C25.6986 20.06 25.3664 20.8622 25.3664 21.6986C25.3664 22.5351 25.6986 23.3373 26.2901 23.9287C26.8815 24.5202 27.6837 24.8524 28.5202 24.8524C29.3476 24.836 30.1359 24.4971 30.7171 23.908C31.2983 23.3189 31.6266 22.5262 31.6319 21.6986Z" fill="#EB143E"/>
<path d="M29.6976 49.2416C29.6976 51.3441 29.6976 53.4467 29.6976 55.5492C29.7344 55.8419 29.6657 56.1381 29.5039 56.3847C29.3421 56.6313 29.0977 56.8122 28.8145 56.8948C28.0155 57.1471 27.3007 56.5374 27.3007 55.5702V49.2626L26.775 49.7251C25.7658 50.7133 24.7776 51.7226 23.7684 52.7318C23.656 52.8576 23.5183 52.9582 23.3643 53.0271C23.2103 53.096 23.0435 53.1316 22.8748 53.1316C22.7061 53.1316 22.5393 53.096 22.3853 53.0271C22.2314 52.9582 22.0937 52.8576 21.9812 52.7318C21.8594 52.6215 21.7621 52.4868 21.6955 52.3365C21.6288 52.1862 21.5944 52.0237 21.5944 51.8593C21.5944 51.6949 21.6288 51.5323 21.6955 51.382C21.7621 51.2317 21.8594 51.0971 21.9812 50.9867L27.4689 45.4991C27.5784 45.3512 27.721 45.2311 27.8853 45.1484C28.0497 45.0656 28.231 45.0225 28.415 45.0225C28.599 45.0225 28.7805 45.0656 28.9448 45.1484C29.1091 45.2311 29.2517 45.3512 29.3612 45.4991L34.7647 50.8816C34.8986 50.986 35.0088 51.1177 35.088 51.2679C35.1672 51.4181 35.2135 51.5835 35.224 51.7529C35.2344 51.9224 35.2087 52.0922 35.1486 52.251C35.0885 52.4098 34.9952 52.554 34.8752 52.6741C34.7551 52.7942 34.6109 52.8874 34.4521 52.9475C34.2933 53.0076 34.1235 53.0333 33.954 53.0228C33.7845 53.0124 33.6192 52.966 33.469 52.8869C33.3188 52.8077 33.1871 52.6975 33.0827 52.5636L29.7607 49.2206L29.6976 49.2416Z" fill="#EB143E"/>
<path d="M49.2513 27.186H55.5589C55.8293 27.1521 56.1034 27.2052 56.3415 27.3375C56.5797 27.4698 56.7695 27.6745 56.8835 27.9219C56.9647 28.1132 56.9948 28.3224 56.9707 28.5288C56.9467 28.7352 56.8693 28.9319 56.7464 29.0994C56.6234 29.2669 56.4589 29.3996 56.2692 29.4843C56.0794 29.5691 55.8709 29.6031 55.664 29.583H49.1251L52.321 32.7368C52.5394 32.9329 52.7368 33.1514 52.9097 33.3886C53.0588 33.6139 53.1259 33.8836 53.0997 34.1526C53.0735 34.4215 52.9556 34.6733 52.7658 34.8656C52.576 35.0579 52.3257 35.179 52.0571 35.2087C51.7886 35.2383 51.518 35.1748 51.2908 35.0286C51.113 34.8927 50.9444 34.7452 50.7862 34.587L45.6769 29.4778C44.899 28.6788 44.878 28.1111 45.6769 27.3753L50.9123 22.1399L51.0594 21.9927C51.1639 21.8588 51.2956 21.7487 51.4458 21.6695C51.596 21.5903 51.7614 21.544 51.9309 21.5335C52.1004 21.5231 52.2701 21.5488 52.4289 21.6089C52.5877 21.669 52.7319 21.7622 52.852 21.8823C52.9721 22.0023 53.0652 22.1465 53.1254 22.3054C53.1855 22.4642 53.2112 22.634 53.2007 22.8035C53.1903 22.973 53.144 23.1383 53.0648 23.2885C52.9856 23.4387 52.8754 23.5704 52.7415 23.6748L49.7559 26.6184L49.2513 27.186Z" fill="#EB143E"/>
<path d="M7.78904 29.5619H1.48141C1.12918 29.5637 0.782127 29.477 0.472165 29.3097C0.271129 29.177 0.121782 28.9793 0.0490634 28.7496C-0.0236552 28.52 -0.0153395 28.2723 0.0726759 28.0481C0.149602 27.7857 0.31549 27.5582 0.541847 27.4047C0.768205 27.2513 1.04097 27.1814 1.31323 27.2071H7.768L7.20033 26.6184C6.19111 25.6092 5.0978 24.621 4.19371 23.6118C4.0747 23.4997 3.97986 23.3645 3.91504 23.2145C3.85023 23.0644 3.81681 22.9027 3.81681 22.7392C3.81681 22.5757 3.85023 22.414 3.91504 22.2639C3.97986 22.1139 4.0747 21.9787 4.19371 21.8666C4.30203 21.7487 4.4336 21.6546 4.58017 21.5903C4.72675 21.5259 4.88515 21.4927 5.04524 21.4927C5.20533 21.4927 5.36366 21.5259 5.51024 21.5903C5.65682 21.6546 5.78845 21.7487 5.89677 21.8666C7.76803 23.7169 9.63931 25.5672 11.4895 27.4384C11.6254 27.5467 11.735 27.6842 11.8104 27.8407C11.8857 27.9973 11.9249 28.1688 11.9249 28.3425C11.9249 28.5162 11.8857 28.6877 11.8104 28.8442C11.735 29.0007 11.6254 29.1383 11.4895 29.2466C9.66033 31.0968 7.81008 32.9471 5.95984 34.7763C5.85129 34.9011 5.71723 35.0011 5.5667 35.0697C5.41618 35.1383 5.25268 35.1738 5.08727 35.1738C4.92186 35.1738 4.75835 35.1383 4.60783 35.0697C4.4573 35.0011 4.32324 34.9011 4.21469 34.7763C4.09896 34.6645 4.00697 34.5305 3.94411 34.3824C3.88125 34.2343 3.84883 34.0751 3.84883 33.9142C3.84883 33.7533 3.88125 33.5941 3.94411 33.446C4.00697 33.2979 4.09896 33.164 4.21469 33.0522L7.17929 30.0666L7.78904 29.5619Z" fill="#EB143E"/>
<path d="M27.3007 7.69532V1.38769C27.28 1.21462 27.296 1.03917 27.3477 0.872702C27.3994 0.706239 27.4855 0.552489 27.6006 0.421561C27.7156 0.290633 27.857 0.185438 28.0155 0.112801C28.1739 0.0401642 28.3459 0.00172211 28.5202 0C28.6898 0.0104469 28.8556 0.0550967 29.0076 0.131217C29.1596 0.207336 29.2946 0.313386 29.4046 0.442992C29.5145 0.572598 29.5971 0.723064 29.6475 0.885407C29.6979 1.04775 29.7149 1.2186 29.6976 1.38769V7.69532H29.8868L31.7581 5.73997L33.2929 4.20509C33.4034 4.09603 33.5342 4.00982 33.678 3.95132C33.8218 3.89282 33.9757 3.86321 34.1309 3.86418C34.2861 3.86516 34.4396 3.89667 34.5827 3.95697C34.7257 4.01727 34.8554 4.10517 34.9644 4.21561C35.0735 4.32606 35.1598 4.45689 35.2183 4.60066C35.2768 4.74444 35.3064 4.89832 35.3054 5.05354C35.3044 5.20875 35.2729 5.36229 35.2126 5.50532C35.1523 5.64835 35.0644 5.7781 34.954 5.88716C34.4494 6.43383 33.9027 6.93844 33.3771 7.46407L29.5294 11.3327C29.4178 11.5109 29.2628 11.6577 29.0789 11.7595C28.895 11.8613 28.6883 11.9147 28.4781 11.9147C28.2679 11.9147 28.0612 11.8613 27.8773 11.7595C27.6934 11.6577 27.5384 11.5109 27.4268 11.3327L22.1284 6.03429C21.4556 5.36148 21.3925 4.66765 21.9392 4.14202C22.4859 3.61638 23.1587 3.7215 23.8315 4.39431L26.6489 7.19073C26.8591 7.27483 27.0273 7.40097 27.3007 7.69532Z" fill="#EB143E"/>
<path d="M28.4781 27.5855C30.7361 27.579 32.9074 28.4545 34.5294 30.0255C36.1514 31.5964 37.0958 33.7386 37.1616 35.9957C37.1902 36.2543 37.134 36.5152 37.0012 36.739C36.8684 36.9628 36.6664 37.1373 36.4257 37.2362C36.2088 37.3422 35.9617 37.3687 35.7273 37.311C35.4929 37.2534 35.2861 37.1153 35.1432 36.9208C34.9394 36.6066 34.8233 36.2436 34.8068 35.8695C34.7457 34.8328 34.4296 33.8272 33.8866 32.9419C33.3435 32.0567 32.5903 31.3193 31.6938 30.7951C30.7972 30.2709 29.7852 29.9762 28.7474 29.9371C27.7096 29.898 26.6782 30.1158 25.7448 30.5711C24.7696 31.0206 23.9308 31.7204 23.3141 32.5994C22.6973 33.4784 22.3244 34.5052 22.2335 35.5752C22.2335 35.7854 22.2335 35.9957 22.2335 36.1849C22.2255 36.3423 22.1864 36.4967 22.1186 36.639C22.0508 36.7814 21.9556 36.9089 21.8384 37.0144C21.7212 37.1199 21.5844 37.2012 21.4357 37.2537C21.287 37.3062 21.1294 37.3288 20.972 37.3203C20.6633 37.2987 20.3756 37.1564 20.171 36.9243C19.9663 36.6921 19.8613 36.3887 19.8787 36.0798C19.8969 34.0573 20.6433 32.109 21.9812 30.5922C22.7864 29.6559 23.783 28.903 24.9037 28.3844C26.0244 27.8658 27.2432 27.5933 28.4781 27.5855Z" fill="#EB143E"/>
<path d="M44.1421 22.5815C44.1626 22.8558 44.0881 23.1288 43.9311 23.3547C43.7742 23.5806 43.5443 23.7456 43.2801 23.8221C43.0357 23.9135 42.7663 23.9127 42.5225 23.8198C42.2786 23.727 42.077 23.5483 41.9554 23.3174C41.7662 23.0021 41.6611 22.6656 41.4929 22.3292C39.9909 19.0961 37.3369 16.5395 34.0499 15.1595L33.5663 14.9283C33.3551 14.7698 33.2033 14.5449 33.1353 14.2897C33.0672 14.0346 33.087 13.764 33.1913 13.5214C33.2956 13.2788 33.4784 13.0783 33.7104 12.9522C33.9424 12.826 34.2101 12.7815 34.4704 12.8258C34.8082 12.9371 35.1383 13.0705 35.4586 13.2252C39.2607 14.9605 42.2652 18.0703 43.8688 21.9297C43.9758 22.14 44.0672 22.3578 44.1421 22.5815Z" fill="#EB143E"/>
<path d="M44.1421 34.1034C44.0926 34.3175 44.0294 34.5282 43.9529 34.7341C42.3364 38.677 39.2647 41.8466 35.3744 43.5859C35.1087 43.7493 34.8033 43.8366 34.4914 43.8382C34.2248 43.8465 33.9643 43.757 33.759 43.5866C33.5538 43.4162 33.418 43.1767 33.3771 42.9131C33.3114 42.6483 33.3431 42.3687 33.4667 42.1255C33.5903 41.8822 33.7972 41.6916 34.0498 41.5885C34.6806 41.2731 35.3114 40.9787 35.9211 40.6213C38.503 39.0648 40.5267 36.7319 41.7031 33.9562C41.7798 33.7433 41.8784 33.539 41.9974 33.3465C42.1343 33.1384 42.3382 32.9833 42.5752 32.9068C42.8123 32.8303 43.0684 32.8371 43.3011 32.926C43.5504 33.0038 43.7675 33.1609 43.9193 33.3735C44.0711 33.586 44.1494 33.8423 44.1421 34.1034Z" fill="#EB143E"/>
<path d="M24.0207 42.4924C24.0207 43.6488 23.2007 44.2375 22.3387 43.8801C20.698 43.2522 19.1763 42.3492 17.8392 41.2099C15.8385 39.5532 14.2542 37.4504 13.2136 35.0704C13.105 34.8971 13.0427 34.6988 13.0324 34.4945C13.0222 34.2903 13.0644 34.0868 13.155 33.9035C13.2456 33.7201 13.3817 33.563 13.5502 33.4471C13.7187 33.3311 13.9141 33.2603 14.1177 33.2412C14.8115 33.2412 15.169 33.5987 15.4213 34.1874C16.6328 36.9279 18.6783 39.2162 21.2663 40.7263C21.8761 41.0837 22.5699 41.315 23.1797 41.6935C23.4935 41.9222 23.7762 42.1907 24.0207 42.4924Z" fill="#EB143E"/>
<path d="M23.6423 14.1082C23.6162 14.3783 23.5103 14.6346 23.338 14.8443C23.1658 15.0539 22.935 15.2076 22.6751 15.2856C20.0517 16.4431 17.8491 18.3815 16.3674 20.8364C15.9469 21.5302 15.6105 22.2661 15.2531 22.9389C15.2059 23.0998 15.1261 23.2492 15.0186 23.3779C14.9111 23.5065 14.7782 23.6117 14.6283 23.6866C14.4783 23.7616 14.3145 23.8049 14.1471 23.8137C13.9797 23.8225 13.8122 23.7967 13.6552 23.7379C13.4954 23.6756 13.3509 23.5797 13.2314 23.4568C13.1119 23.3339 13.0201 23.1867 12.9623 23.0253C12.9045 22.8639 12.882 22.6919 12.8963 22.521C12.9107 22.3502 12.9615 22.1844 13.0454 22.0349C14.6886 17.9792 17.8602 14.7319 21.8762 12.9939C22.0632 12.8929 22.2736 12.8436 22.486 12.8508C22.6984 12.858 22.9051 12.9216 23.0848 13.035C23.2646 13.1484 23.4109 13.3076 23.5088 13.4962C23.6068 13.6848 23.6529 13.896 23.6423 14.1082Z" fill="#EB143E"/>
</svg>
