<svg width="42" height="51" viewBox="0 0 42 51" fill="none" xmlns="http://www.w3.org/2000/svg">
<g clip-path="url(#clip0_3620_3018)">
<path d="M0 8.25297C2.69307 7.33152 5.36633 6.53026 7.92078 5.48862C11.8812 3.84605 15.8416 2.06324 19.802 0.28044C20.1292 0.108377 20.4926 0.0185547 20.8614 0.0185547C21.2302 0.0185547 21.5936 0.108377 21.9208 0.28044C26.0617 2.35789 30.3123 4.20358 34.6535 5.80913L41.4852 8.13278C41.8614 8.23294 42 8.37313 42 8.79379C42 14.8032 42 20.8126 42 26.8221C41.9191 30.0589 40.9 33.2003 39.0693 35.8563C36.5337 39.6594 33.3566 42.9818 29.6832 45.6716C27.0435 47.6452 24.2637 49.4195 21.3663 50.98C21.2755 51.0191 21.1779 51.0393 21.0792 51.0393C20.9805 51.0393 20.8829 51.0191 20.7921 50.98C15.7911 48.4192 11.2094 45.0952 7.20792 41.1245C4.52236 38.5298 2.41007 35.3895 1.0099 31.9101C0.380166 30.2337 0.0580612 28.4552 0.0594035 26.6618V8.27302L0 8.25297ZM3.42574 19.3103C3.42574 21.8543 3.42574 24.3783 3.42574 26.9022C3.42885 27.6916 3.52188 28.4781 3.70297 29.2459C4.43934 31.9749 5.79548 34.4922 7.66336 36.5974C11.3124 40.8139 15.6952 44.3173 20.5941 46.9336C20.694 46.9778 20.8019 47.0005 20.9109 47.0005C21.0199 47.0005 21.1278 46.9778 21.2277 46.9336C23.9375 45.4977 26.5038 43.8006 28.8911 41.8657C31.9482 39.4767 34.5571 36.5526 36.5941 33.2322C37.7648 31.4399 38.4479 29.3671 38.5743 27.2227C38.5743 21.9545 38.5743 16.6662 38.5743 11.3979C38.5855 11.3268 38.5825 11.2541 38.5656 11.1841C38.5487 11.1142 38.5181 11.0484 38.4757 10.9905C38.4332 10.9327 38.3798 10.884 38.3185 10.8473C38.2573 10.8106 38.1893 10.7867 38.1188 10.7769C32.4593 8.95901 26.9395 6.72283 21.604 4.08646C21.4246 3.98828 21.2238 3.93681 21.0198 3.93681C20.8158 3.93681 20.615 3.98828 20.4356 4.08646C15.0979 6.71768 9.57844 8.95371 3.92079 10.7769C3.58416 10.8771 3.50495 11.0574 3.50495 11.3979L3.42574 19.3103Z" fill="#EB143E"/>
<path d="M31.901 15.4043L34.3366 17.8281L19.6238 32.7114L11.1287 24.118L13.4852 21.8344L19.5446 27.8438L31.901 15.4043Z" fill="#EB143E"/>
</g>
<defs>
<clipPath id="clip0_3620_3018">
<rect width="42" height="51" fill="white"/>
</clipPath>
</defs>
</svg>
