<svg width="48" height="52" viewBox="0 0 48 52" fill="none" xmlns="http://www.w3.org/2000/svg">
<g clip-path="url(#clip0_3620_3033)">
<path d="M40.6087 51.874C40.6087 50.0273 40.6087 48.1806 40.6087 46.3123C40.5469 41.9549 41.8052 37.6806 44.2184 34.0509C46.6015 30.4969 47.8988 26.3268 47.9522 22.0488C48.0056 17.7709 46.8129 13.5698 44.5192 9.95742C41.3393 4.35278 35.9248 1.84035 29.7583 1.08877C29.35 1.08877 28.9418 0.938444 28.555 0.874023H24.2578C22.453 1.19613 20.6051 1.38944 18.8218 1.86186C15.6704 2.58342 12.7933 4.19606 10.5341 6.50733C8.27479 8.8186 6.72877 11.7308 6.08051 14.8963C5.05758 18.8942 3.39619 22.701 1.16024 26.17C0.84467 26.6761 0.557685 27.1995 0.300739 27.7376C0.121254 28.0728 0.0116981 28.4409 -0.0214743 28.8196C-0.0546467 29.1984 -0.0106515 29.5798 0.107831 29.9411C0.226313 30.3023 0.416748 30.6359 0.667802 30.9215C0.918857 31.2071 1.22528 31.4389 1.56848 31.6029C2.42792 32.0538 3.30881 32.5048 4.21123 32.8913C4.47374 32.979 4.69713 33.156 4.84241 33.3915C4.9877 33.627 5.04565 33.9059 5.00621 34.1797C4.87752 35.8379 4.87752 37.5035 5.00621 39.1616C5.12533 40.3113 5.47895 41.4243 6.0451 42.4321C6.61126 43.4399 7.37791 44.3211 8.29797 45.0213C9.21804 45.7215 10.272 46.2259 11.3946 46.5034C12.5172 46.7808 13.6848 46.8254 14.8254 46.6344L16.2649 46.4842V51.874H18.1987V44.4012C16.8021 44.4012 15.427 44.573 14.0519 44.6159C13.1451 44.7137 12.2277 44.6133 11.3635 44.3218C10.4993 44.0303 9.70888 43.5546 9.04679 42.9276C8.38469 42.3006 7.86676 41.5373 7.52896 40.6906C7.19117 39.8438 7.04159 38.9338 7.09043 38.0235C7.09043 36.3701 7.09043 34.7166 7.09043 33.0416C7.13599 32.7505 7.07678 32.4527 6.92335 32.201C6.76993 31.9494 6.53221 31.7603 6.25244 31.6673C5.24259 31.2378 4.27572 30.701 3.30885 30.2071C1.80482 29.4555 1.74028 29.2408 2.55676 27.8235C3.37323 26.4063 4.27573 24.8172 5.19964 23.3355C6.34507 21.493 7.13905 19.4544 7.54155 17.3229C9.41085 8.11066 15.4699 3.17173 24.8809 2.91405C28.3189 2.69658 31.7648 3.19376 35.0009 4.37424C37.9123 5.54071 40.4433 7.49061 42.3132 10.0075C44.183 12.5245 45.3185 15.51 45.5935 18.6328C46.4948 23.978 45.235 29.462 42.0913 33.8791C39.8533 37.1356 38.689 41.0095 38.761 44.9595V51.874H40.6087Z" fill="#EB143E"/>
<path d="M37.7082 23.1209C37.4463 23.1252 37.1913 23.2053 36.974 23.3516C36.7568 23.4978 36.5867 23.7039 36.4844 23.9449C36.382 24.1858 36.3518 24.4513 36.3974 24.7091C36.443 24.9668 36.5625 25.2058 36.7413 25.3971L38.546 27.8666L35.1942 31.152C35.1307 31.1675 35.0644 31.1675 35.0009 31.152L32.8523 29.5844C31.7135 28.7684 30.7036 29.1765 30.4887 30.5723C30.3383 31.5171 30.145 32.4619 29.9731 33.4067H25.2462C25.0744 32.376 24.9239 31.3668 24.752 30.379C24.7516 30.113 24.6728 29.853 24.5254 29.6315C24.3779 29.4101 24.1685 29.2369 23.9232 29.1338C23.6778 29.0307 23.4075 29.0022 23.146 29.0518C22.8845 29.1014 22.6434 29.2269 22.4529 29.4127L20.025 31.0876L16.6732 27.6518C17.1888 26.9217 17.812 26.1057 18.3922 25.2683C18.5584 25.0825 18.6671 24.8525 18.7052 24.6062C18.7433 24.3599 18.7092 24.1078 18.6068 23.8805C18.5045 23.6533 18.3384 23.4605 18.1287 23.3257C17.919 23.1908 17.6746 23.1197 17.4253 23.1209L14.3741 22.6699V17.8813L17.3392 17.3874C17.6048 17.3914 17.8657 17.3174 18.0894 17.1743C18.3131 17.0313 18.4898 16.8257 18.5974 16.5831C18.705 16.3405 18.739 16.0715 18.6948 15.8098C18.6507 15.5481 18.5304 15.3051 18.3492 15.1112C17.769 14.2522 17.1674 13.3933 16.6732 12.7061L19.9821 9.27034C20.8416 9.8716 21.7225 10.5373 22.6249 11.1385C22.8012 11.2461 23.0008 11.3097 23.2069 11.3241C23.413 11.3384 23.6195 11.3031 23.8091 11.221C23.9986 11.1389 24.1657 11.0124 24.2961 10.8524C24.4266 10.6923 24.5166 10.5032 24.5587 10.3011C24.6661 9.74278 24.7521 9.18447 24.838 8.62615C25.1388 7.01562 25.1387 6.99415 26.7717 7.01562C27.803 7.01562 29.1137 6.71501 29.7368 7.23037C30.3599 7.74574 30.2525 9.07706 30.4459 10.0649C30.4511 10.3239 30.5331 10.5756 30.6815 10.7881C30.8299 11.0005 31.038 11.1643 31.2795 11.2585C31.521 11.3528 31.785 11.3733 32.0382 11.3176C32.2914 11.2618 32.5224 11.1322 32.7019 10.9453L35.0009 9.31332L38.4171 12.6632L36.8057 14.9179C35.9677 16.0775 36.3115 17.0653 37.7511 17.3445L40.6733 17.9457V22.6699L37.7082 23.1209ZM32.2292 13.6939C31.1549 13.2859 30.2094 12.9424 29.307 12.5129C28.9803 12.3305 28.7347 12.0313 28.6195 11.6754C28.4046 10.8379 28.2972 9.97897 28.1468 9.07708H26.7932L26.3419 11.3962C26.3419 11.5895 26.3419 11.7828 26.3419 11.9545C25.2178 12.9257 23.7658 13.4325 22.2812 13.3718L19.9176 11.6969L19.2085 12.8565L21.0134 15.4977L19.5739 18.9335C18.7574 19.0838 17.812 19.1912 16.9096 19.4488C16.6303 19.4488 16.2221 19.9213 16.2221 20.1575C16.2221 20.3937 16.6517 20.9305 16.8666 20.9305C18.7789 20.9305 20.154 21.5318 20.4763 23.6147C20.6252 24.0259 20.8276 24.4157 21.0779 24.7743L19.0582 27.5874L19.9821 28.4463C20.1325 28.4463 20.2614 28.339 20.3043 28.2531C20.6355 27.8556 21.0423 27.5278 21.5011 27.2886C21.96 27.0494 22.4617 26.9036 22.9774 26.8596C23.493 26.8157 24.0122 26.8745 24.5049 27.0326C24.9976 27.1907 25.4541 27.4449 25.8478 27.7806C26.0853 27.9239 26.2671 28.1434 26.3634 28.4034C26.5353 29.155 26.5998 29.9495 26.8147 30.7225C26.8147 30.9802 27.2874 31.3453 27.5023 31.3239C27.7171 31.3024 28.3187 30.9158 28.3187 30.744C28.0179 28.0813 30.0805 27.5659 31.8424 26.8144C31.9951 26.777 32.154 26.771 32.3091 26.7969C32.4642 26.8227 32.6125 26.8798 32.7449 26.9646C33.4969 27.4585 34.2059 27.9954 34.8935 28.5537L35.8603 27.6733C35.3231 26.9217 34.786 26.2131 34.2918 25.5259C34.1046 25.2729 34.0201 24.9583 34.0555 24.6455C34.3701 23.6859 34.7433 22.7465 35.1728 21.8325C35.1728 21.6392 35.581 21.5318 35.8174 21.4889C36.3911 21.3132 36.9816 21.198 37.5793 21.1453C38.6536 21.1453 38.8468 20.587 38.546 19.5562C37.6841 19.4267 36.8305 19.2475 35.9893 19.0194C35.58 18.8713 35.2371 18.5819 35.0224 18.2034C34.5712 17.3444 34.2274 16.4211 33.8192 15.4548L35.7314 12.7491L34.8505 11.8257L32.2292 13.6939Z" fill="#EB143E"/>
<path d="M27.5023 25.3541C26.4857 25.3754 25.4858 25.0934 24.6303 24.544C23.7749 23.9946 23.1028 23.2028 22.6998 22.2697C22.2969 21.3367 22.1814 20.3048 22.3682 19.3058C22.5549 18.3069 23.0354 17.3862 23.7483 16.6615C24.4611 15.9368 25.3741 15.4411 26.3703 15.2374C27.3665 15.0338 28.4009 15.1316 29.3412 15.5184C30.2815 15.9052 31.0851 16.5633 31.6493 17.4088C32.2135 18.2543 32.5125 19.2486 32.5085 20.2648C32.5143 21.6015 31.9914 22.8864 31.0537 23.8396C30.1161 24.7928 28.8397 25.3371 27.5023 25.3541ZM30.5533 20.2648C30.5618 19.6533 30.3885 19.0531 30.0556 18.54C29.7227 18.0268 29.2451 17.6239 28.6831 17.3821C28.1211 17.1402 27.4999 17.0704 26.8982 17.1813C26.2964 17.2923 25.7411 17.5791 25.3024 18.0055C24.8638 18.4319 24.5615 18.9787 24.4338 19.5768C24.306 20.1749 24.3587 20.7974 24.585 21.3657C24.8112 21.9339 25.2009 22.4222 25.7049 22.769C26.2089 23.1159 26.8044 23.3056 27.4163 23.3141C28.2316 23.3201 29.0168 23.0063 29.6033 22.4403C30.1898 21.8742 30.5308 21.1009 30.5533 20.2863V20.2648Z" fill="#EB143E"/>
</g>
<defs>
<clipPath id="clip0_3620_3033">
<rect width="48" height="51" fill="white" transform="translate(0 0.874023)"/>
</clipPath>
</defs>
</svg>
